G04 #@! TF.GenerationSoftware,KiCad,Pcbnew,(5.1.9)-1*
G04 #@! TF.CreationDate,2021-01-26T21:32:47-05:00*
G04 #@! TF.ProjectId,reviung34-split-L-TOP,72657669-756e-4673-9334-2d73706c6974,2.0*
G04 #@! TF.SameCoordinates,PX2faf080PY2faf080*
G04 #@! TF.FileFunction,Soldermask,Bot*
G04 #@! TF.FilePolarity,Negative*
%FSLAX46Y46*%
G04 Gerber Fmt 4.6, Leading zero omitted, Abs format (unit mm)*
G04 Created by KiCad (PCBNEW (5.1.9)-1) date 2021-01-26 21:32:47*
%MOMM*%
%LPD*%
G01*
G04 APERTURE LIST*
%ADD10C,2.902000*%
%ADD11C,2.302000*%
%ADD12C,0.702000*%
%ADD13C,4.502000*%
%ADD14C,0.100000*%
G04 APERTURE END LIST*
D10*
X117160000Y-16750000D03*
D11*
X77060000Y-15510000D03*
D12*
X92015000Y-20500000D03*
X92865000Y-20500000D03*
X93690000Y-20500000D03*
X94515000Y-20500000D03*
X91190000Y-20500000D03*
X90365000Y-20500000D03*
X92875000Y-18260000D03*
X92025000Y-18260000D03*
X91200000Y-18260000D03*
X90375000Y-18260000D03*
X93700000Y-18260000D03*
X94525000Y-18260000D03*
X109565000Y-20500000D03*
X110415000Y-20500000D03*
X111240000Y-20500000D03*
X112065000Y-20500000D03*
X108740000Y-20500000D03*
X107915000Y-20500000D03*
X110405000Y-18260000D03*
X109555000Y-18260000D03*
X108730000Y-18260000D03*
X107905000Y-18260000D03*
X111230000Y-18260000D03*
X112055000Y-18260000D03*
X102070000Y-73230000D03*
X102080000Y-66630000D03*
X102080000Y-72405000D03*
X102080000Y-69930000D03*
X102080000Y-69105000D03*
X102080000Y-68280000D03*
X102080000Y-67455000D03*
X102080000Y-70755000D03*
X102080000Y-71580000D03*
X100350000Y-66620000D03*
X100340000Y-73220000D03*
X100340000Y-67445000D03*
X100340000Y-69920000D03*
X100340000Y-70745000D03*
X100340000Y-71570000D03*
X100340000Y-72395000D03*
X100340000Y-69095000D03*
X100340000Y-68270000D03*
X102080000Y-35110000D03*
X102090000Y-28510000D03*
X102090000Y-34285000D03*
X102090000Y-31810000D03*
X102090000Y-30985000D03*
X102090000Y-30160000D03*
X102090000Y-29335000D03*
X102090000Y-32635000D03*
X102090000Y-33460000D03*
X100340000Y-28500000D03*
X100330000Y-35100000D03*
X100330000Y-29325000D03*
X100330000Y-31800000D03*
X100330000Y-32625000D03*
X100330000Y-33450000D03*
X100330000Y-34275000D03*
X100330000Y-30975000D03*
X100330000Y-30150000D03*
D11*
X77070000Y-960000D03*
X161810000Y-4050000D03*
X181100000Y-77430000D03*
X123950000Y-77430000D03*
X123950000Y-41330000D03*
X78470000Y-77430000D03*
X78470000Y-41330000D03*
X21320000Y-77430000D03*
D13*
X181110000Y-41330000D03*
X21320000Y-41330000D03*
D14*
G36*
X101915000Y-72712456D02*
G01*
X101915487Y-72712781D01*
X101978692Y-72738962D01*
X102045795Y-72752310D01*
X102114205Y-72752310D01*
X102181308Y-72738962D01*
X102241846Y-72713886D01*
X102243829Y-72714147D01*
X102244594Y-72715995D01*
X102243722Y-72717397D01*
X102242048Y-72718516D01*
X102223333Y-72733874D01*
X102208038Y-72752511D01*
X102196673Y-72773775D01*
X102189673Y-72796850D01*
X102187310Y-72820841D01*
X102189673Y-72844832D01*
X102196673Y-72867907D01*
X102208038Y-72889171D01*
X102223333Y-72907808D01*
X102237380Y-72919335D01*
X102238084Y-72921207D01*
X102236816Y-72922753D01*
X102235000Y-72922544D01*
X102234513Y-72922219D01*
X102171308Y-72896038D01*
X102104205Y-72882690D01*
X102035795Y-72882690D01*
X101968692Y-72896038D01*
X101908154Y-72921114D01*
X101906171Y-72920853D01*
X101905406Y-72919005D01*
X101906278Y-72917603D01*
X101907952Y-72916484D01*
X101926667Y-72901126D01*
X101941962Y-72882489D01*
X101953327Y-72861225D01*
X101960327Y-72838150D01*
X101962690Y-72814159D01*
X101960327Y-72790168D01*
X101953327Y-72767093D01*
X101941962Y-72745829D01*
X101926667Y-72727192D01*
X101912620Y-72715665D01*
X101911916Y-72713793D01*
X101913184Y-72712247D01*
X101915000Y-72712456D01*
G37*
G36*
X100176938Y-72703382D02*
G01*
X100238692Y-72728962D01*
X100305795Y-72742310D01*
X100374205Y-72742310D01*
X100441308Y-72728962D01*
X100503062Y-72703382D01*
X100505045Y-72703643D01*
X100505810Y-72705491D01*
X100505096Y-72706776D01*
X100488333Y-72720533D01*
X100473038Y-72739170D01*
X100461673Y-72760434D01*
X100454673Y-72783509D01*
X100452310Y-72807500D01*
X100454673Y-72831491D01*
X100461673Y-72854566D01*
X100473038Y-72875830D01*
X100488333Y-72894467D01*
X100505096Y-72908224D01*
X100505800Y-72910096D01*
X100504531Y-72911642D01*
X100503062Y-72911618D01*
X100441308Y-72886038D01*
X100374205Y-72872690D01*
X100305795Y-72872690D01*
X100238692Y-72886038D01*
X100176938Y-72911618D01*
X100174955Y-72911357D01*
X100174190Y-72909509D01*
X100174904Y-72908224D01*
X100191667Y-72894467D01*
X100206962Y-72875830D01*
X100218327Y-72854566D01*
X100225327Y-72831491D01*
X100227690Y-72807500D01*
X100225327Y-72783509D01*
X100218327Y-72760434D01*
X100206962Y-72739170D01*
X100191667Y-72720533D01*
X100174904Y-72706776D01*
X100174200Y-72704904D01*
X100175469Y-72703358D01*
X100176938Y-72703382D01*
G37*
G36*
X101916938Y-71888382D02*
G01*
X101978692Y-71913962D01*
X102045795Y-71927310D01*
X102114205Y-71927310D01*
X102181308Y-71913962D01*
X102243062Y-71888382D01*
X102245045Y-71888643D01*
X102245810Y-71890491D01*
X102245096Y-71891776D01*
X102228333Y-71905533D01*
X102213038Y-71924170D01*
X102201673Y-71945434D01*
X102194673Y-71968509D01*
X102192310Y-71992500D01*
X102194673Y-72016491D01*
X102201673Y-72039566D01*
X102213038Y-72060830D01*
X102228333Y-72079467D01*
X102245096Y-72093224D01*
X102245800Y-72095096D01*
X102244531Y-72096642D01*
X102243062Y-72096618D01*
X102181308Y-72071038D01*
X102114205Y-72057690D01*
X102045795Y-72057690D01*
X101978692Y-72071038D01*
X101916938Y-72096618D01*
X101914955Y-72096357D01*
X101914190Y-72094509D01*
X101914904Y-72093224D01*
X101931667Y-72079467D01*
X101946962Y-72060830D01*
X101958327Y-72039566D01*
X101965327Y-72016491D01*
X101967690Y-71992500D01*
X101965327Y-71968509D01*
X101958327Y-71945434D01*
X101946962Y-71924170D01*
X101931667Y-71905533D01*
X101914904Y-71891776D01*
X101914200Y-71889904D01*
X101915469Y-71888358D01*
X101916938Y-71888382D01*
G37*
G36*
X100176938Y-71878382D02*
G01*
X100238692Y-71903962D01*
X100305795Y-71917310D01*
X100374205Y-71917310D01*
X100441308Y-71903962D01*
X100503062Y-71878382D01*
X100505045Y-71878643D01*
X100505810Y-71880491D01*
X100505096Y-71881776D01*
X100488333Y-71895533D01*
X100473038Y-71914170D01*
X100461673Y-71935434D01*
X100454673Y-71958509D01*
X100452310Y-71982500D01*
X100454673Y-72006491D01*
X100461673Y-72029566D01*
X100473038Y-72050830D01*
X100488333Y-72069467D01*
X100505096Y-72083224D01*
X100505800Y-72085096D01*
X100504531Y-72086642D01*
X100503062Y-72086618D01*
X100441308Y-72061038D01*
X100374205Y-72047690D01*
X100305795Y-72047690D01*
X100238692Y-72061038D01*
X100176938Y-72086618D01*
X100174955Y-72086357D01*
X100174190Y-72084509D01*
X100174904Y-72083224D01*
X100191667Y-72069467D01*
X100206962Y-72050830D01*
X100218327Y-72029566D01*
X100225327Y-72006491D01*
X100227690Y-71982500D01*
X100225327Y-71958509D01*
X100218327Y-71935434D01*
X100206962Y-71914170D01*
X100191667Y-71895533D01*
X100174904Y-71881776D01*
X100174200Y-71879904D01*
X100175469Y-71878358D01*
X100176938Y-71878382D01*
G37*
G36*
X101916938Y-71063382D02*
G01*
X101978692Y-71088962D01*
X102045795Y-71102310D01*
X102114205Y-71102310D01*
X102181308Y-71088962D01*
X102243062Y-71063382D01*
X102245045Y-71063643D01*
X102245810Y-71065491D01*
X102245096Y-71066776D01*
X102228333Y-71080533D01*
X102213038Y-71099170D01*
X102201673Y-71120434D01*
X102194673Y-71143509D01*
X102192310Y-71167500D01*
X102194673Y-71191491D01*
X102201673Y-71214566D01*
X102213038Y-71235830D01*
X102228333Y-71254467D01*
X102245096Y-71268224D01*
X102245800Y-71270096D01*
X102244531Y-71271642D01*
X102243062Y-71271618D01*
X102181308Y-71246038D01*
X102114205Y-71232690D01*
X102045795Y-71232690D01*
X101978692Y-71246038D01*
X101916938Y-71271618D01*
X101914955Y-71271357D01*
X101914190Y-71269509D01*
X101914904Y-71268224D01*
X101931667Y-71254467D01*
X101946962Y-71235830D01*
X101958327Y-71214566D01*
X101965327Y-71191491D01*
X101967690Y-71167500D01*
X101965327Y-71143509D01*
X101958327Y-71120434D01*
X101946962Y-71099170D01*
X101931667Y-71080533D01*
X101914904Y-71066776D01*
X101914200Y-71064904D01*
X101915469Y-71063358D01*
X101916938Y-71063382D01*
G37*
G36*
X100176938Y-71053382D02*
G01*
X100238692Y-71078962D01*
X100305795Y-71092310D01*
X100374205Y-71092310D01*
X100441308Y-71078962D01*
X100503062Y-71053382D01*
X100505045Y-71053643D01*
X100505810Y-71055491D01*
X100505096Y-71056776D01*
X100488333Y-71070533D01*
X100473038Y-71089170D01*
X100461673Y-71110434D01*
X100454673Y-71133509D01*
X100452310Y-71157500D01*
X100454673Y-71181491D01*
X100461673Y-71204566D01*
X100473038Y-71225830D01*
X100488333Y-71244467D01*
X100505096Y-71258224D01*
X100505800Y-71260096D01*
X100504531Y-71261642D01*
X100503062Y-71261618D01*
X100441308Y-71236038D01*
X100374205Y-71222690D01*
X100305795Y-71222690D01*
X100238692Y-71236038D01*
X100176938Y-71261618D01*
X100174955Y-71261357D01*
X100174190Y-71259509D01*
X100174904Y-71258224D01*
X100191667Y-71244467D01*
X100206962Y-71225830D01*
X100218327Y-71204566D01*
X100225327Y-71181491D01*
X100227690Y-71157500D01*
X100225327Y-71133509D01*
X100218327Y-71110434D01*
X100206962Y-71089170D01*
X100191667Y-71070533D01*
X100174904Y-71056776D01*
X100174200Y-71054904D01*
X100175469Y-71053358D01*
X100176938Y-71053382D01*
G37*
G36*
X101916938Y-70238382D02*
G01*
X101978692Y-70263962D01*
X102045795Y-70277310D01*
X102114205Y-70277310D01*
X102181308Y-70263962D01*
X102243062Y-70238382D01*
X102245045Y-70238643D01*
X102245810Y-70240491D01*
X102245096Y-70241776D01*
X102228333Y-70255533D01*
X102213038Y-70274170D01*
X102201673Y-70295434D01*
X102194673Y-70318509D01*
X102192310Y-70342500D01*
X102194673Y-70366491D01*
X102201673Y-70389566D01*
X102213038Y-70410830D01*
X102228333Y-70429467D01*
X102245096Y-70443224D01*
X102245800Y-70445096D01*
X102244531Y-70446642D01*
X102243062Y-70446618D01*
X102181308Y-70421038D01*
X102114205Y-70407690D01*
X102045795Y-70407690D01*
X101978692Y-70421038D01*
X101916938Y-70446618D01*
X101914955Y-70446357D01*
X101914190Y-70444509D01*
X101914904Y-70443224D01*
X101931667Y-70429467D01*
X101946962Y-70410830D01*
X101958327Y-70389566D01*
X101965327Y-70366491D01*
X101967690Y-70342500D01*
X101965327Y-70318509D01*
X101958327Y-70295434D01*
X101946962Y-70274170D01*
X101931667Y-70255533D01*
X101914904Y-70241776D01*
X101914200Y-70239904D01*
X101915469Y-70238358D01*
X101916938Y-70238382D01*
G37*
G36*
X100176938Y-70228382D02*
G01*
X100238692Y-70253962D01*
X100305795Y-70267310D01*
X100374205Y-70267310D01*
X100441308Y-70253962D01*
X100503062Y-70228382D01*
X100505045Y-70228643D01*
X100505810Y-70230491D01*
X100505096Y-70231776D01*
X100488333Y-70245533D01*
X100473038Y-70264170D01*
X100461673Y-70285434D01*
X100454673Y-70308509D01*
X100452310Y-70332500D01*
X100454673Y-70356491D01*
X100461673Y-70379566D01*
X100473038Y-70400830D01*
X100488333Y-70419467D01*
X100505096Y-70433224D01*
X100505800Y-70435096D01*
X100504531Y-70436642D01*
X100503062Y-70436618D01*
X100441308Y-70411038D01*
X100374205Y-70397690D01*
X100305795Y-70397690D01*
X100238692Y-70411038D01*
X100176938Y-70436618D01*
X100174955Y-70436357D01*
X100174190Y-70434509D01*
X100174904Y-70433224D01*
X100191667Y-70419467D01*
X100206962Y-70400830D01*
X100218327Y-70379566D01*
X100225327Y-70356491D01*
X100227690Y-70332500D01*
X100225327Y-70308509D01*
X100218327Y-70285434D01*
X100206962Y-70264170D01*
X100191667Y-70245533D01*
X100174904Y-70231776D01*
X100174200Y-70229904D01*
X100175469Y-70228358D01*
X100176938Y-70228382D01*
G37*
G36*
X101916938Y-69413382D02*
G01*
X101978692Y-69438962D01*
X102045795Y-69452310D01*
X102114205Y-69452310D01*
X102181308Y-69438962D01*
X102243062Y-69413382D01*
X102245045Y-69413643D01*
X102245810Y-69415491D01*
X102245096Y-69416776D01*
X102228333Y-69430533D01*
X102213038Y-69449170D01*
X102201673Y-69470434D01*
X102194673Y-69493509D01*
X102192310Y-69517500D01*
X102194673Y-69541491D01*
X102201673Y-69564566D01*
X102213038Y-69585830D01*
X102228333Y-69604467D01*
X102245096Y-69618224D01*
X102245800Y-69620096D01*
X102244531Y-69621642D01*
X102243062Y-69621618D01*
X102181308Y-69596038D01*
X102114205Y-69582690D01*
X102045795Y-69582690D01*
X101978692Y-69596038D01*
X101916938Y-69621618D01*
X101914955Y-69621357D01*
X101914190Y-69619509D01*
X101914904Y-69618224D01*
X101931667Y-69604467D01*
X101946962Y-69585830D01*
X101958327Y-69564566D01*
X101965327Y-69541491D01*
X101967690Y-69517500D01*
X101965327Y-69493509D01*
X101958327Y-69470434D01*
X101946962Y-69449170D01*
X101931667Y-69430533D01*
X101914904Y-69416776D01*
X101914200Y-69414904D01*
X101915469Y-69413358D01*
X101916938Y-69413382D01*
G37*
G36*
X100176938Y-69403382D02*
G01*
X100238692Y-69428962D01*
X100305795Y-69442310D01*
X100374205Y-69442310D01*
X100441308Y-69428962D01*
X100503062Y-69403382D01*
X100505045Y-69403643D01*
X100505810Y-69405491D01*
X100505096Y-69406776D01*
X100488333Y-69420533D01*
X100473038Y-69439170D01*
X100461673Y-69460434D01*
X100454673Y-69483509D01*
X100452310Y-69507500D01*
X100454673Y-69531491D01*
X100461673Y-69554566D01*
X100473038Y-69575830D01*
X100488333Y-69594467D01*
X100505096Y-69608224D01*
X100505800Y-69610096D01*
X100504531Y-69611642D01*
X100503062Y-69611618D01*
X100441308Y-69586038D01*
X100374205Y-69572690D01*
X100305795Y-69572690D01*
X100238692Y-69586038D01*
X100176938Y-69611618D01*
X100174955Y-69611357D01*
X100174190Y-69609509D01*
X100174904Y-69608224D01*
X100191667Y-69594467D01*
X100206962Y-69575830D01*
X100218327Y-69554566D01*
X100225327Y-69531491D01*
X100227690Y-69507500D01*
X100225327Y-69483509D01*
X100218327Y-69460434D01*
X100206962Y-69439170D01*
X100191667Y-69420533D01*
X100174904Y-69406776D01*
X100174200Y-69404904D01*
X100175469Y-69403358D01*
X100176938Y-69403382D01*
G37*
G36*
X101916938Y-68588382D02*
G01*
X101978692Y-68613962D01*
X102045795Y-68627310D01*
X102114205Y-68627310D01*
X102181308Y-68613962D01*
X102243062Y-68588382D01*
X102245045Y-68588643D01*
X102245810Y-68590491D01*
X102245096Y-68591776D01*
X102228333Y-68605533D01*
X102213038Y-68624170D01*
X102201673Y-68645434D01*
X102194673Y-68668509D01*
X102192310Y-68692500D01*
X102194673Y-68716491D01*
X102201673Y-68739566D01*
X102213038Y-68760830D01*
X102228333Y-68779467D01*
X102245096Y-68793224D01*
X102245800Y-68795096D01*
X102244531Y-68796642D01*
X102243062Y-68796618D01*
X102181308Y-68771038D01*
X102114205Y-68757690D01*
X102045795Y-68757690D01*
X101978692Y-68771038D01*
X101916938Y-68796618D01*
X101914955Y-68796357D01*
X101914190Y-68794509D01*
X101914904Y-68793224D01*
X101931667Y-68779467D01*
X101946962Y-68760830D01*
X101958327Y-68739566D01*
X101965327Y-68716491D01*
X101967690Y-68692500D01*
X101965327Y-68668509D01*
X101958327Y-68645434D01*
X101946962Y-68624170D01*
X101931667Y-68605533D01*
X101914904Y-68591776D01*
X101914200Y-68589904D01*
X101915469Y-68588358D01*
X101916938Y-68588382D01*
G37*
G36*
X100176938Y-68578382D02*
G01*
X100238692Y-68603962D01*
X100305795Y-68617310D01*
X100374205Y-68617310D01*
X100441308Y-68603962D01*
X100503062Y-68578382D01*
X100505045Y-68578643D01*
X100505810Y-68580491D01*
X100505096Y-68581776D01*
X100488333Y-68595533D01*
X100473038Y-68614170D01*
X100461673Y-68635434D01*
X100454673Y-68658509D01*
X100452310Y-68682500D01*
X100454673Y-68706491D01*
X100461673Y-68729566D01*
X100473038Y-68750830D01*
X100488333Y-68769467D01*
X100505096Y-68783224D01*
X100505800Y-68785096D01*
X100504531Y-68786642D01*
X100503062Y-68786618D01*
X100441308Y-68761038D01*
X100374205Y-68747690D01*
X100305795Y-68747690D01*
X100238692Y-68761038D01*
X100176938Y-68786618D01*
X100174955Y-68786357D01*
X100174190Y-68784509D01*
X100174904Y-68783224D01*
X100191667Y-68769467D01*
X100206962Y-68750830D01*
X100218327Y-68729566D01*
X100225327Y-68706491D01*
X100227690Y-68682500D01*
X100225327Y-68658509D01*
X100218327Y-68635434D01*
X100206962Y-68614170D01*
X100191667Y-68595533D01*
X100174904Y-68581776D01*
X100174200Y-68579904D01*
X100175469Y-68578358D01*
X100176938Y-68578382D01*
G37*
G36*
X101916938Y-67763382D02*
G01*
X101978692Y-67788962D01*
X102045795Y-67802310D01*
X102114205Y-67802310D01*
X102181308Y-67788962D01*
X102243062Y-67763382D01*
X102245045Y-67763643D01*
X102245810Y-67765491D01*
X102245096Y-67766776D01*
X102228333Y-67780533D01*
X102213038Y-67799170D01*
X102201673Y-67820434D01*
X102194673Y-67843509D01*
X102192310Y-67867500D01*
X102194673Y-67891491D01*
X102201673Y-67914566D01*
X102213038Y-67935830D01*
X102228333Y-67954467D01*
X102245096Y-67968224D01*
X102245800Y-67970096D01*
X102244531Y-67971642D01*
X102243062Y-67971618D01*
X102181308Y-67946038D01*
X102114205Y-67932690D01*
X102045795Y-67932690D01*
X101978692Y-67946038D01*
X101916938Y-67971618D01*
X101914955Y-67971357D01*
X101914190Y-67969509D01*
X101914904Y-67968224D01*
X101931667Y-67954467D01*
X101946962Y-67935830D01*
X101958327Y-67914566D01*
X101965327Y-67891491D01*
X101967690Y-67867500D01*
X101965327Y-67843509D01*
X101958327Y-67820434D01*
X101946962Y-67799170D01*
X101931667Y-67780533D01*
X101914904Y-67766776D01*
X101914200Y-67764904D01*
X101915469Y-67763358D01*
X101916938Y-67763382D01*
G37*
G36*
X100176938Y-67753382D02*
G01*
X100238692Y-67778962D01*
X100305795Y-67792310D01*
X100374205Y-67792310D01*
X100441308Y-67778962D01*
X100503062Y-67753382D01*
X100505045Y-67753643D01*
X100505810Y-67755491D01*
X100505096Y-67756776D01*
X100488333Y-67770533D01*
X100473038Y-67789170D01*
X100461673Y-67810434D01*
X100454673Y-67833509D01*
X100452310Y-67857500D01*
X100454673Y-67881491D01*
X100461673Y-67904566D01*
X100473038Y-67925830D01*
X100488333Y-67944467D01*
X100505096Y-67958224D01*
X100505800Y-67960096D01*
X100504531Y-67961642D01*
X100503062Y-67961618D01*
X100441308Y-67936038D01*
X100374205Y-67922690D01*
X100305795Y-67922690D01*
X100238692Y-67936038D01*
X100176938Y-67961618D01*
X100174955Y-67961357D01*
X100174190Y-67959509D01*
X100174904Y-67958224D01*
X100191667Y-67944467D01*
X100206962Y-67925830D01*
X100218327Y-67904566D01*
X100225327Y-67881491D01*
X100227690Y-67857500D01*
X100225327Y-67833509D01*
X100218327Y-67810434D01*
X100206962Y-67789170D01*
X100191667Y-67770533D01*
X100174904Y-67756776D01*
X100174200Y-67754904D01*
X100175469Y-67753358D01*
X100176938Y-67753382D01*
G37*
G36*
X101916938Y-66938382D02*
G01*
X101978692Y-66963962D01*
X102045795Y-66977310D01*
X102114205Y-66977310D01*
X102181308Y-66963962D01*
X102243062Y-66938382D01*
X102245045Y-66938643D01*
X102245810Y-66940491D01*
X102245096Y-66941776D01*
X102228333Y-66955533D01*
X102213038Y-66974170D01*
X102201673Y-66995434D01*
X102194673Y-67018509D01*
X102192310Y-67042500D01*
X102194673Y-67066491D01*
X102201673Y-67089566D01*
X102213038Y-67110830D01*
X102228333Y-67129467D01*
X102245096Y-67143224D01*
X102245800Y-67145096D01*
X102244531Y-67146642D01*
X102243062Y-67146618D01*
X102181308Y-67121038D01*
X102114205Y-67107690D01*
X102045795Y-67107690D01*
X101978692Y-67121038D01*
X101916938Y-67146618D01*
X101914955Y-67146357D01*
X101914190Y-67144509D01*
X101914904Y-67143224D01*
X101931667Y-67129467D01*
X101946962Y-67110830D01*
X101958327Y-67089566D01*
X101965327Y-67066491D01*
X101967690Y-67042500D01*
X101965327Y-67018509D01*
X101958327Y-66995434D01*
X101946962Y-66974170D01*
X101931667Y-66955533D01*
X101914904Y-66941776D01*
X101914200Y-66939904D01*
X101915469Y-66938358D01*
X101916938Y-66938382D01*
G37*
G36*
X100185000Y-66927456D02*
G01*
X100185487Y-66927781D01*
X100248692Y-66953962D01*
X100315795Y-66967310D01*
X100384205Y-66967310D01*
X100451308Y-66953962D01*
X100511846Y-66928886D01*
X100513829Y-66929147D01*
X100514594Y-66930995D01*
X100513722Y-66932397D01*
X100512048Y-66933516D01*
X100493333Y-66948874D01*
X100478038Y-66967511D01*
X100466673Y-66988775D01*
X100459673Y-67011850D01*
X100457310Y-67035841D01*
X100459673Y-67059832D01*
X100466673Y-67082907D01*
X100478038Y-67104171D01*
X100493333Y-67122808D01*
X100507380Y-67134335D01*
X100508084Y-67136207D01*
X100506816Y-67137753D01*
X100505000Y-67137544D01*
X100504513Y-67137219D01*
X100441308Y-67111038D01*
X100374205Y-67097690D01*
X100305795Y-67097690D01*
X100238692Y-67111038D01*
X100178154Y-67136114D01*
X100176171Y-67135853D01*
X100175406Y-67134005D01*
X100176278Y-67132603D01*
X100177952Y-67131484D01*
X100196667Y-67116126D01*
X100211962Y-67097489D01*
X100223327Y-67076225D01*
X100230327Y-67053150D01*
X100232690Y-67029159D01*
X100230327Y-67005168D01*
X100223327Y-66982093D01*
X100211962Y-66960829D01*
X100196667Y-66942192D01*
X100182620Y-66930665D01*
X100181916Y-66928793D01*
X100183184Y-66927247D01*
X100185000Y-66927456D01*
G37*
G36*
X101925000Y-34592456D02*
G01*
X101925487Y-34592781D01*
X101988692Y-34618962D01*
X102055795Y-34632310D01*
X102124205Y-34632310D01*
X102191308Y-34618962D01*
X102251846Y-34593886D01*
X102253829Y-34594147D01*
X102254594Y-34595995D01*
X102253722Y-34597397D01*
X102252048Y-34598516D01*
X102233333Y-34613874D01*
X102218038Y-34632511D01*
X102206673Y-34653775D01*
X102199673Y-34676850D01*
X102197310Y-34700841D01*
X102199673Y-34724832D01*
X102206673Y-34747907D01*
X102218038Y-34769171D01*
X102233333Y-34787808D01*
X102247380Y-34799335D01*
X102248084Y-34801207D01*
X102246816Y-34802753D01*
X102245000Y-34802544D01*
X102244513Y-34802219D01*
X102181308Y-34776038D01*
X102114205Y-34762690D01*
X102045795Y-34762690D01*
X101978692Y-34776038D01*
X101918154Y-34801114D01*
X101916171Y-34800853D01*
X101915406Y-34799005D01*
X101916278Y-34797603D01*
X101917952Y-34796484D01*
X101936667Y-34781126D01*
X101951962Y-34762489D01*
X101963327Y-34741225D01*
X101970327Y-34718150D01*
X101972690Y-34694159D01*
X101970327Y-34670168D01*
X101963327Y-34647093D01*
X101951962Y-34625829D01*
X101936667Y-34607192D01*
X101922620Y-34595665D01*
X101921916Y-34593793D01*
X101923184Y-34592247D01*
X101925000Y-34592456D01*
G37*
G36*
X100166938Y-34583382D02*
G01*
X100228692Y-34608962D01*
X100295795Y-34622310D01*
X100364205Y-34622310D01*
X100431308Y-34608962D01*
X100493062Y-34583382D01*
X100495045Y-34583643D01*
X100495810Y-34585491D01*
X100495096Y-34586776D01*
X100478333Y-34600533D01*
X100463038Y-34619170D01*
X100451673Y-34640434D01*
X100444673Y-34663509D01*
X100442310Y-34687500D01*
X100444673Y-34711491D01*
X100451673Y-34734566D01*
X100463038Y-34755830D01*
X100478333Y-34774467D01*
X100495096Y-34788224D01*
X100495800Y-34790096D01*
X100494531Y-34791642D01*
X100493062Y-34791618D01*
X100431308Y-34766038D01*
X100364205Y-34752690D01*
X100295795Y-34752690D01*
X100228692Y-34766038D01*
X100166938Y-34791618D01*
X100164955Y-34791357D01*
X100164190Y-34789509D01*
X100164904Y-34788224D01*
X100181667Y-34774467D01*
X100196962Y-34755830D01*
X100208327Y-34734566D01*
X100215327Y-34711491D01*
X100217690Y-34687500D01*
X100215327Y-34663509D01*
X100208327Y-34640434D01*
X100196962Y-34619170D01*
X100181667Y-34600533D01*
X100164904Y-34586776D01*
X100164200Y-34584904D01*
X100165469Y-34583358D01*
X100166938Y-34583382D01*
G37*
G36*
X101926938Y-33768382D02*
G01*
X101988692Y-33793962D01*
X102055795Y-33807310D01*
X102124205Y-33807310D01*
X102191308Y-33793962D01*
X102253062Y-33768382D01*
X102255045Y-33768643D01*
X102255810Y-33770491D01*
X102255096Y-33771776D01*
X102238333Y-33785533D01*
X102223038Y-33804170D01*
X102211673Y-33825434D01*
X102204673Y-33848509D01*
X102202310Y-33872500D01*
X102204673Y-33896491D01*
X102211673Y-33919566D01*
X102223038Y-33940830D01*
X102238333Y-33959467D01*
X102255096Y-33973224D01*
X102255800Y-33975096D01*
X102254531Y-33976642D01*
X102253062Y-33976618D01*
X102191308Y-33951038D01*
X102124205Y-33937690D01*
X102055795Y-33937690D01*
X101988692Y-33951038D01*
X101926938Y-33976618D01*
X101924955Y-33976357D01*
X101924190Y-33974509D01*
X101924904Y-33973224D01*
X101941667Y-33959467D01*
X101956962Y-33940830D01*
X101968327Y-33919566D01*
X101975327Y-33896491D01*
X101977690Y-33872500D01*
X101975327Y-33848509D01*
X101968327Y-33825434D01*
X101956962Y-33804170D01*
X101941667Y-33785533D01*
X101924904Y-33771776D01*
X101924200Y-33769904D01*
X101925469Y-33768358D01*
X101926938Y-33768382D01*
G37*
G36*
X100166938Y-33758382D02*
G01*
X100228692Y-33783962D01*
X100295795Y-33797310D01*
X100364205Y-33797310D01*
X100431308Y-33783962D01*
X100493062Y-33758382D01*
X100495045Y-33758643D01*
X100495810Y-33760491D01*
X100495096Y-33761776D01*
X100478333Y-33775533D01*
X100463038Y-33794170D01*
X100451673Y-33815434D01*
X100444673Y-33838509D01*
X100442310Y-33862500D01*
X100444673Y-33886491D01*
X100451673Y-33909566D01*
X100463038Y-33930830D01*
X100478333Y-33949467D01*
X100495096Y-33963224D01*
X100495800Y-33965096D01*
X100494531Y-33966642D01*
X100493062Y-33966618D01*
X100431308Y-33941038D01*
X100364205Y-33927690D01*
X100295795Y-33927690D01*
X100228692Y-33941038D01*
X100166938Y-33966618D01*
X100164955Y-33966357D01*
X100164190Y-33964509D01*
X100164904Y-33963224D01*
X100181667Y-33949467D01*
X100196962Y-33930830D01*
X100208327Y-33909566D01*
X100215327Y-33886491D01*
X100217690Y-33862500D01*
X100215327Y-33838509D01*
X100208327Y-33815434D01*
X100196962Y-33794170D01*
X100181667Y-33775533D01*
X100164904Y-33761776D01*
X100164200Y-33759904D01*
X100165469Y-33758358D01*
X100166938Y-33758382D01*
G37*
G36*
X101926938Y-32943382D02*
G01*
X101988692Y-32968962D01*
X102055795Y-32982310D01*
X102124205Y-32982310D01*
X102191308Y-32968962D01*
X102253062Y-32943382D01*
X102255045Y-32943643D01*
X102255810Y-32945491D01*
X102255096Y-32946776D01*
X102238333Y-32960533D01*
X102223038Y-32979170D01*
X102211673Y-33000434D01*
X102204673Y-33023509D01*
X102202310Y-33047500D01*
X102204673Y-33071491D01*
X102211673Y-33094566D01*
X102223038Y-33115830D01*
X102238333Y-33134467D01*
X102255096Y-33148224D01*
X102255800Y-33150096D01*
X102254531Y-33151642D01*
X102253062Y-33151618D01*
X102191308Y-33126038D01*
X102124205Y-33112690D01*
X102055795Y-33112690D01*
X101988692Y-33126038D01*
X101926938Y-33151618D01*
X101924955Y-33151357D01*
X101924190Y-33149509D01*
X101924904Y-33148224D01*
X101941667Y-33134467D01*
X101956962Y-33115830D01*
X101968327Y-33094566D01*
X101975327Y-33071491D01*
X101977690Y-33047500D01*
X101975327Y-33023509D01*
X101968327Y-33000434D01*
X101956962Y-32979170D01*
X101941667Y-32960533D01*
X101924904Y-32946776D01*
X101924200Y-32944904D01*
X101925469Y-32943358D01*
X101926938Y-32943382D01*
G37*
G36*
X100166938Y-32933382D02*
G01*
X100228692Y-32958962D01*
X100295795Y-32972310D01*
X100364205Y-32972310D01*
X100431308Y-32958962D01*
X100493062Y-32933382D01*
X100495045Y-32933643D01*
X100495810Y-32935491D01*
X100495096Y-32936776D01*
X100478333Y-32950533D01*
X100463038Y-32969170D01*
X100451673Y-32990434D01*
X100444673Y-33013509D01*
X100442310Y-33037500D01*
X100444673Y-33061491D01*
X100451673Y-33084566D01*
X100463038Y-33105830D01*
X100478333Y-33124467D01*
X100495096Y-33138224D01*
X100495800Y-33140096D01*
X100494531Y-33141642D01*
X100493062Y-33141618D01*
X100431308Y-33116038D01*
X100364205Y-33102690D01*
X100295795Y-33102690D01*
X100228692Y-33116038D01*
X100166938Y-33141618D01*
X100164955Y-33141357D01*
X100164190Y-33139509D01*
X100164904Y-33138224D01*
X100181667Y-33124467D01*
X100196962Y-33105830D01*
X100208327Y-33084566D01*
X100215327Y-33061491D01*
X100217690Y-33037500D01*
X100215327Y-33013509D01*
X100208327Y-32990434D01*
X100196962Y-32969170D01*
X100181667Y-32950533D01*
X100164904Y-32936776D01*
X100164200Y-32934904D01*
X100165469Y-32933358D01*
X100166938Y-32933382D01*
G37*
G36*
X101926938Y-32118382D02*
G01*
X101988692Y-32143962D01*
X102055795Y-32157310D01*
X102124205Y-32157310D01*
X102191308Y-32143962D01*
X102253062Y-32118382D01*
X102255045Y-32118643D01*
X102255810Y-32120491D01*
X102255096Y-32121776D01*
X102238333Y-32135533D01*
X102223038Y-32154170D01*
X102211673Y-32175434D01*
X102204673Y-32198509D01*
X102202310Y-32222500D01*
X102204673Y-32246491D01*
X102211673Y-32269566D01*
X102223038Y-32290830D01*
X102238333Y-32309467D01*
X102255096Y-32323224D01*
X102255800Y-32325096D01*
X102254531Y-32326642D01*
X102253062Y-32326618D01*
X102191308Y-32301038D01*
X102124205Y-32287690D01*
X102055795Y-32287690D01*
X101988692Y-32301038D01*
X101926938Y-32326618D01*
X101924955Y-32326357D01*
X101924190Y-32324509D01*
X101924904Y-32323224D01*
X101941667Y-32309467D01*
X101956962Y-32290830D01*
X101968327Y-32269566D01*
X101975327Y-32246491D01*
X101977690Y-32222500D01*
X101975327Y-32198509D01*
X101968327Y-32175434D01*
X101956962Y-32154170D01*
X101941667Y-32135533D01*
X101924904Y-32121776D01*
X101924200Y-32119904D01*
X101925469Y-32118358D01*
X101926938Y-32118382D01*
G37*
G36*
X100166938Y-32108382D02*
G01*
X100228692Y-32133962D01*
X100295795Y-32147310D01*
X100364205Y-32147310D01*
X100431308Y-32133962D01*
X100493062Y-32108382D01*
X100495045Y-32108643D01*
X100495810Y-32110491D01*
X100495096Y-32111776D01*
X100478333Y-32125533D01*
X100463038Y-32144170D01*
X100451673Y-32165434D01*
X100444673Y-32188509D01*
X100442310Y-32212500D01*
X100444673Y-32236491D01*
X100451673Y-32259566D01*
X100463038Y-32280830D01*
X100478333Y-32299467D01*
X100495096Y-32313224D01*
X100495800Y-32315096D01*
X100494531Y-32316642D01*
X100493062Y-32316618D01*
X100431308Y-32291038D01*
X100364205Y-32277690D01*
X100295795Y-32277690D01*
X100228692Y-32291038D01*
X100166938Y-32316618D01*
X100164955Y-32316357D01*
X100164190Y-32314509D01*
X100164904Y-32313224D01*
X100181667Y-32299467D01*
X100196962Y-32280830D01*
X100208327Y-32259566D01*
X100215327Y-32236491D01*
X100217690Y-32212500D01*
X100215327Y-32188509D01*
X100208327Y-32165434D01*
X100196962Y-32144170D01*
X100181667Y-32125533D01*
X100164904Y-32111776D01*
X100164200Y-32109904D01*
X100165469Y-32108358D01*
X100166938Y-32108382D01*
G37*
G36*
X101926938Y-31293382D02*
G01*
X101988692Y-31318962D01*
X102055795Y-31332310D01*
X102124205Y-31332310D01*
X102191308Y-31318962D01*
X102253062Y-31293382D01*
X102255045Y-31293643D01*
X102255810Y-31295491D01*
X102255096Y-31296776D01*
X102238333Y-31310533D01*
X102223038Y-31329170D01*
X102211673Y-31350434D01*
X102204673Y-31373509D01*
X102202310Y-31397500D01*
X102204673Y-31421491D01*
X102211673Y-31444566D01*
X102223038Y-31465830D01*
X102238333Y-31484467D01*
X102255096Y-31498224D01*
X102255800Y-31500096D01*
X102254531Y-31501642D01*
X102253062Y-31501618D01*
X102191308Y-31476038D01*
X102124205Y-31462690D01*
X102055795Y-31462690D01*
X101988692Y-31476038D01*
X101926938Y-31501618D01*
X101924955Y-31501357D01*
X101924190Y-31499509D01*
X101924904Y-31498224D01*
X101941667Y-31484467D01*
X101956962Y-31465830D01*
X101968327Y-31444566D01*
X101975327Y-31421491D01*
X101977690Y-31397500D01*
X101975327Y-31373509D01*
X101968327Y-31350434D01*
X101956962Y-31329170D01*
X101941667Y-31310533D01*
X101924904Y-31296776D01*
X101924200Y-31294904D01*
X101925469Y-31293358D01*
X101926938Y-31293382D01*
G37*
G36*
X100166938Y-31283382D02*
G01*
X100228692Y-31308962D01*
X100295795Y-31322310D01*
X100364205Y-31322310D01*
X100431308Y-31308962D01*
X100493062Y-31283382D01*
X100495045Y-31283643D01*
X100495810Y-31285491D01*
X100495096Y-31286776D01*
X100478333Y-31300533D01*
X100463038Y-31319170D01*
X100451673Y-31340434D01*
X100444673Y-31363509D01*
X100442310Y-31387500D01*
X100444673Y-31411491D01*
X100451673Y-31434566D01*
X100463038Y-31455830D01*
X100478333Y-31474467D01*
X100495096Y-31488224D01*
X100495800Y-31490096D01*
X100494531Y-31491642D01*
X100493062Y-31491618D01*
X100431308Y-31466038D01*
X100364205Y-31452690D01*
X100295795Y-31452690D01*
X100228692Y-31466038D01*
X100166938Y-31491618D01*
X100164955Y-31491357D01*
X100164190Y-31489509D01*
X100164904Y-31488224D01*
X100181667Y-31474467D01*
X100196962Y-31455830D01*
X100208327Y-31434566D01*
X100215327Y-31411491D01*
X100217690Y-31387500D01*
X100215327Y-31363509D01*
X100208327Y-31340434D01*
X100196962Y-31319170D01*
X100181667Y-31300533D01*
X100164904Y-31286776D01*
X100164200Y-31284904D01*
X100165469Y-31283358D01*
X100166938Y-31283382D01*
G37*
G36*
X101926938Y-30468382D02*
G01*
X101988692Y-30493962D01*
X102055795Y-30507310D01*
X102124205Y-30507310D01*
X102191308Y-30493962D01*
X102253062Y-30468382D01*
X102255045Y-30468643D01*
X102255810Y-30470491D01*
X102255096Y-30471776D01*
X102238333Y-30485533D01*
X102223038Y-30504170D01*
X102211673Y-30525434D01*
X102204673Y-30548509D01*
X102202310Y-30572500D01*
X102204673Y-30596491D01*
X102211673Y-30619566D01*
X102223038Y-30640830D01*
X102238333Y-30659467D01*
X102255096Y-30673224D01*
X102255800Y-30675096D01*
X102254531Y-30676642D01*
X102253062Y-30676618D01*
X102191308Y-30651038D01*
X102124205Y-30637690D01*
X102055795Y-30637690D01*
X101988692Y-30651038D01*
X101926938Y-30676618D01*
X101924955Y-30676357D01*
X101924190Y-30674509D01*
X101924904Y-30673224D01*
X101941667Y-30659467D01*
X101956962Y-30640830D01*
X101968327Y-30619566D01*
X101975327Y-30596491D01*
X101977690Y-30572500D01*
X101975327Y-30548509D01*
X101968327Y-30525434D01*
X101956962Y-30504170D01*
X101941667Y-30485533D01*
X101924904Y-30471776D01*
X101924200Y-30469904D01*
X101925469Y-30468358D01*
X101926938Y-30468382D01*
G37*
G36*
X100166938Y-30458382D02*
G01*
X100228692Y-30483962D01*
X100295795Y-30497310D01*
X100364205Y-30497310D01*
X100431308Y-30483962D01*
X100493062Y-30458382D01*
X100495045Y-30458643D01*
X100495810Y-30460491D01*
X100495096Y-30461776D01*
X100478333Y-30475533D01*
X100463038Y-30494170D01*
X100451673Y-30515434D01*
X100444673Y-30538509D01*
X100442310Y-30562500D01*
X100444673Y-30586491D01*
X100451673Y-30609566D01*
X100463038Y-30630830D01*
X100478333Y-30649467D01*
X100495096Y-30663224D01*
X100495800Y-30665096D01*
X100494531Y-30666642D01*
X100493062Y-30666618D01*
X100431308Y-30641038D01*
X100364205Y-30627690D01*
X100295795Y-30627690D01*
X100228692Y-30641038D01*
X100166938Y-30666618D01*
X100164955Y-30666357D01*
X100164190Y-30664509D01*
X100164904Y-30663224D01*
X100181667Y-30649467D01*
X100196962Y-30630830D01*
X100208327Y-30609566D01*
X100215327Y-30586491D01*
X100217690Y-30562500D01*
X100215327Y-30538509D01*
X100208327Y-30515434D01*
X100196962Y-30494170D01*
X100181667Y-30475533D01*
X100164904Y-30461776D01*
X100164200Y-30459904D01*
X100165469Y-30458358D01*
X100166938Y-30458382D01*
G37*
G36*
X101926938Y-29643382D02*
G01*
X101988692Y-29668962D01*
X102055795Y-29682310D01*
X102124205Y-29682310D01*
X102191308Y-29668962D01*
X102253062Y-29643382D01*
X102255045Y-29643643D01*
X102255810Y-29645491D01*
X102255096Y-29646776D01*
X102238333Y-29660533D01*
X102223038Y-29679170D01*
X102211673Y-29700434D01*
X102204673Y-29723509D01*
X102202310Y-29747500D01*
X102204673Y-29771491D01*
X102211673Y-29794566D01*
X102223038Y-29815830D01*
X102238333Y-29834467D01*
X102255096Y-29848224D01*
X102255800Y-29850096D01*
X102254531Y-29851642D01*
X102253062Y-29851618D01*
X102191308Y-29826038D01*
X102124205Y-29812690D01*
X102055795Y-29812690D01*
X101988692Y-29826038D01*
X101926938Y-29851618D01*
X101924955Y-29851357D01*
X101924190Y-29849509D01*
X101924904Y-29848224D01*
X101941667Y-29834467D01*
X101956962Y-29815830D01*
X101968327Y-29794566D01*
X101975327Y-29771491D01*
X101977690Y-29747500D01*
X101975327Y-29723509D01*
X101968327Y-29700434D01*
X101956962Y-29679170D01*
X101941667Y-29660533D01*
X101924904Y-29646776D01*
X101924200Y-29644904D01*
X101925469Y-29643358D01*
X101926938Y-29643382D01*
G37*
G36*
X100166938Y-29633382D02*
G01*
X100228692Y-29658962D01*
X100295795Y-29672310D01*
X100364205Y-29672310D01*
X100431308Y-29658962D01*
X100493062Y-29633382D01*
X100495045Y-29633643D01*
X100495810Y-29635491D01*
X100495096Y-29636776D01*
X100478333Y-29650533D01*
X100463038Y-29669170D01*
X100451673Y-29690434D01*
X100444673Y-29713509D01*
X100442310Y-29737500D01*
X100444673Y-29761491D01*
X100451673Y-29784566D01*
X100463038Y-29805830D01*
X100478333Y-29824467D01*
X100495096Y-29838224D01*
X100495800Y-29840096D01*
X100494531Y-29841642D01*
X100493062Y-29841618D01*
X100431308Y-29816038D01*
X100364205Y-29802690D01*
X100295795Y-29802690D01*
X100228692Y-29816038D01*
X100166938Y-29841618D01*
X100164955Y-29841357D01*
X100164190Y-29839509D01*
X100164904Y-29838224D01*
X100181667Y-29824467D01*
X100196962Y-29805830D01*
X100208327Y-29784566D01*
X100215327Y-29761491D01*
X100217690Y-29737500D01*
X100215327Y-29713509D01*
X100208327Y-29690434D01*
X100196962Y-29669170D01*
X100181667Y-29650533D01*
X100164904Y-29636776D01*
X100164200Y-29634904D01*
X100165469Y-29633358D01*
X100166938Y-29633382D01*
G37*
G36*
X101926938Y-28818382D02*
G01*
X101988692Y-28843962D01*
X102055795Y-28857310D01*
X102124205Y-28857310D01*
X102191308Y-28843962D01*
X102253062Y-28818382D01*
X102255045Y-28818643D01*
X102255810Y-28820491D01*
X102255096Y-28821776D01*
X102238333Y-28835533D01*
X102223038Y-28854170D01*
X102211673Y-28875434D01*
X102204673Y-28898509D01*
X102202310Y-28922500D01*
X102204673Y-28946491D01*
X102211673Y-28969566D01*
X102223038Y-28990830D01*
X102238333Y-29009467D01*
X102255096Y-29023224D01*
X102255800Y-29025096D01*
X102254531Y-29026642D01*
X102253062Y-29026618D01*
X102191308Y-29001038D01*
X102124205Y-28987690D01*
X102055795Y-28987690D01*
X101988692Y-29001038D01*
X101926938Y-29026618D01*
X101924955Y-29026357D01*
X101924190Y-29024509D01*
X101924904Y-29023224D01*
X101941667Y-29009467D01*
X101956962Y-28990830D01*
X101968327Y-28969566D01*
X101975327Y-28946491D01*
X101977690Y-28922500D01*
X101975327Y-28898509D01*
X101968327Y-28875434D01*
X101956962Y-28854170D01*
X101941667Y-28835533D01*
X101924904Y-28821776D01*
X101924200Y-28819904D01*
X101925469Y-28818358D01*
X101926938Y-28818382D01*
G37*
G36*
X100175000Y-28807456D02*
G01*
X100175487Y-28807781D01*
X100238692Y-28833962D01*
X100305795Y-28847310D01*
X100374205Y-28847310D01*
X100441308Y-28833962D01*
X100501846Y-28808886D01*
X100503829Y-28809147D01*
X100504594Y-28810995D01*
X100503722Y-28812397D01*
X100502048Y-28813516D01*
X100483333Y-28828874D01*
X100468038Y-28847511D01*
X100456673Y-28868775D01*
X100449673Y-28891850D01*
X100447310Y-28915841D01*
X100449673Y-28939832D01*
X100456673Y-28962907D01*
X100468038Y-28984171D01*
X100483333Y-29002808D01*
X100497380Y-29014335D01*
X100498084Y-29016207D01*
X100496816Y-29017753D01*
X100495000Y-29017544D01*
X100494513Y-29017219D01*
X100431308Y-28991038D01*
X100364205Y-28977690D01*
X100295795Y-28977690D01*
X100228692Y-28991038D01*
X100168154Y-29016114D01*
X100166171Y-29015853D01*
X100165406Y-29014005D01*
X100166278Y-29012603D01*
X100167952Y-29011484D01*
X100186667Y-28996126D01*
X100201962Y-28977489D01*
X100213327Y-28956225D01*
X100220327Y-28933150D01*
X100222690Y-28909159D01*
X100220327Y-28885168D01*
X100213327Y-28862093D01*
X100201962Y-28840829D01*
X100186667Y-28822192D01*
X100172620Y-28810665D01*
X100171916Y-28808793D01*
X100173184Y-28807247D01*
X100175000Y-28807456D01*
G37*
G36*
X94001776Y-20334904D02*
G01*
X94015533Y-20351667D01*
X94034170Y-20366962D01*
X94055434Y-20378327D01*
X94078509Y-20385327D01*
X94102500Y-20387690D01*
X94126491Y-20385327D01*
X94149566Y-20378327D01*
X94170830Y-20366962D01*
X94189467Y-20351667D01*
X94203224Y-20334904D01*
X94205096Y-20334200D01*
X94206642Y-20335469D01*
X94206618Y-20336938D01*
X94181038Y-20398692D01*
X94167690Y-20465795D01*
X94167690Y-20534205D01*
X94181038Y-20601308D01*
X94206618Y-20663062D01*
X94206357Y-20665045D01*
X94204509Y-20665810D01*
X94203224Y-20665096D01*
X94189467Y-20648333D01*
X94170830Y-20633038D01*
X94149566Y-20621673D01*
X94126491Y-20614673D01*
X94102500Y-20612310D01*
X94078509Y-20614673D01*
X94055434Y-20621673D01*
X94034170Y-20633038D01*
X94015533Y-20648333D01*
X94001776Y-20665096D01*
X93999904Y-20665800D01*
X93998358Y-20664531D01*
X93998382Y-20663062D01*
X94023962Y-20601308D01*
X94037310Y-20534205D01*
X94037310Y-20465795D01*
X94023962Y-20398692D01*
X93998382Y-20336938D01*
X93998643Y-20334955D01*
X94000491Y-20334190D01*
X94001776Y-20334904D01*
G37*
G36*
X91501776Y-20334904D02*
G01*
X91515533Y-20351667D01*
X91534170Y-20366962D01*
X91555434Y-20378327D01*
X91578509Y-20385327D01*
X91602500Y-20387690D01*
X91626491Y-20385327D01*
X91649566Y-20378327D01*
X91670830Y-20366962D01*
X91689467Y-20351667D01*
X91703224Y-20334904D01*
X91705096Y-20334200D01*
X91706642Y-20335469D01*
X91706618Y-20336938D01*
X91681038Y-20398692D01*
X91667690Y-20465795D01*
X91667690Y-20534205D01*
X91681038Y-20601308D01*
X91706618Y-20663062D01*
X91706357Y-20665045D01*
X91704509Y-20665810D01*
X91703224Y-20665096D01*
X91689467Y-20648333D01*
X91670830Y-20633038D01*
X91649566Y-20621673D01*
X91626491Y-20614673D01*
X91602500Y-20612310D01*
X91578509Y-20614673D01*
X91555434Y-20621673D01*
X91534170Y-20633038D01*
X91515533Y-20648333D01*
X91501776Y-20665096D01*
X91499904Y-20665800D01*
X91498358Y-20664531D01*
X91498382Y-20663062D01*
X91523962Y-20601308D01*
X91537310Y-20534205D01*
X91537310Y-20465795D01*
X91523962Y-20398692D01*
X91498382Y-20336938D01*
X91498643Y-20334955D01*
X91500491Y-20334190D01*
X91501776Y-20334904D01*
G37*
G36*
X93176776Y-20334904D02*
G01*
X93190533Y-20351667D01*
X93209170Y-20366962D01*
X93230434Y-20378327D01*
X93253509Y-20385327D01*
X93277500Y-20387690D01*
X93301491Y-20385327D01*
X93324566Y-20378327D01*
X93345830Y-20366962D01*
X93364467Y-20351667D01*
X93378224Y-20334904D01*
X93380096Y-20334200D01*
X93381642Y-20335469D01*
X93381618Y-20336938D01*
X93356038Y-20398692D01*
X93342690Y-20465795D01*
X93342690Y-20534205D01*
X93356038Y-20601308D01*
X93381618Y-20663062D01*
X93381357Y-20665045D01*
X93379509Y-20665810D01*
X93378224Y-20665096D01*
X93364467Y-20648333D01*
X93345830Y-20633038D01*
X93324566Y-20621673D01*
X93301491Y-20614673D01*
X93277500Y-20612310D01*
X93253509Y-20614673D01*
X93230434Y-20621673D01*
X93209170Y-20633038D01*
X93190533Y-20648333D01*
X93176776Y-20665096D01*
X93174904Y-20665800D01*
X93173358Y-20664531D01*
X93173382Y-20663062D01*
X93198962Y-20601308D01*
X93212310Y-20534205D01*
X93212310Y-20465795D01*
X93198962Y-20398692D01*
X93173382Y-20336938D01*
X93173643Y-20334955D01*
X93175491Y-20334190D01*
X93176776Y-20334904D01*
G37*
G36*
X90676776Y-20334904D02*
G01*
X90690533Y-20351667D01*
X90709170Y-20366962D01*
X90730434Y-20378327D01*
X90753509Y-20385327D01*
X90777500Y-20387690D01*
X90801491Y-20385327D01*
X90824566Y-20378327D01*
X90845830Y-20366962D01*
X90864467Y-20351667D01*
X90878224Y-20334904D01*
X90880096Y-20334200D01*
X90881642Y-20335469D01*
X90881618Y-20336938D01*
X90856038Y-20398692D01*
X90842690Y-20465795D01*
X90842690Y-20534205D01*
X90856038Y-20601308D01*
X90881618Y-20663062D01*
X90881357Y-20665045D01*
X90879509Y-20665810D01*
X90878224Y-20665096D01*
X90864467Y-20648333D01*
X90845830Y-20633038D01*
X90824566Y-20621673D01*
X90801491Y-20614673D01*
X90777500Y-20612310D01*
X90753509Y-20614673D01*
X90730434Y-20621673D01*
X90709170Y-20633038D01*
X90690533Y-20648333D01*
X90676776Y-20665096D01*
X90674904Y-20665800D01*
X90673358Y-20664531D01*
X90673382Y-20663062D01*
X90698962Y-20601308D01*
X90712310Y-20534205D01*
X90712310Y-20465795D01*
X90698962Y-20398692D01*
X90673382Y-20336938D01*
X90673643Y-20334955D01*
X90675491Y-20334190D01*
X90676776Y-20334904D01*
G37*
G36*
X111551776Y-20334904D02*
G01*
X111565533Y-20351667D01*
X111584170Y-20366962D01*
X111605434Y-20378327D01*
X111628509Y-20385327D01*
X111652500Y-20387690D01*
X111676491Y-20385327D01*
X111699566Y-20378327D01*
X111720830Y-20366962D01*
X111739467Y-20351667D01*
X111753224Y-20334904D01*
X111755096Y-20334200D01*
X111756642Y-20335469D01*
X111756618Y-20336938D01*
X111731038Y-20398692D01*
X111717690Y-20465795D01*
X111717690Y-20534205D01*
X111731038Y-20601308D01*
X111756618Y-20663062D01*
X111756357Y-20665045D01*
X111754509Y-20665810D01*
X111753224Y-20665096D01*
X111739467Y-20648333D01*
X111720830Y-20633038D01*
X111699566Y-20621673D01*
X111676491Y-20614673D01*
X111652500Y-20612310D01*
X111628509Y-20614673D01*
X111605434Y-20621673D01*
X111584170Y-20633038D01*
X111565533Y-20648333D01*
X111551776Y-20665096D01*
X111549904Y-20665800D01*
X111548358Y-20664531D01*
X111548382Y-20663062D01*
X111573962Y-20601308D01*
X111587310Y-20534205D01*
X111587310Y-20465795D01*
X111573962Y-20398692D01*
X111548382Y-20336938D01*
X111548643Y-20334955D01*
X111550491Y-20334190D01*
X111551776Y-20334904D01*
G37*
G36*
X109051776Y-20334904D02*
G01*
X109065533Y-20351667D01*
X109084170Y-20366962D01*
X109105434Y-20378327D01*
X109128509Y-20385327D01*
X109152500Y-20387690D01*
X109176491Y-20385327D01*
X109199566Y-20378327D01*
X109220830Y-20366962D01*
X109239467Y-20351667D01*
X109253224Y-20334904D01*
X109255096Y-20334200D01*
X109256642Y-20335469D01*
X109256618Y-20336938D01*
X109231038Y-20398692D01*
X109217690Y-20465795D01*
X109217690Y-20534205D01*
X109231038Y-20601308D01*
X109256618Y-20663062D01*
X109256357Y-20665045D01*
X109254509Y-20665810D01*
X109253224Y-20665096D01*
X109239467Y-20648333D01*
X109220830Y-20633038D01*
X109199566Y-20621673D01*
X109176491Y-20614673D01*
X109152500Y-20612310D01*
X109128509Y-20614673D01*
X109105434Y-20621673D01*
X109084170Y-20633038D01*
X109065533Y-20648333D01*
X109051776Y-20665096D01*
X109049904Y-20665800D01*
X109048358Y-20664531D01*
X109048382Y-20663062D01*
X109073962Y-20601308D01*
X109087310Y-20534205D01*
X109087310Y-20465795D01*
X109073962Y-20398692D01*
X109048382Y-20336938D01*
X109048643Y-20334955D01*
X109050491Y-20334190D01*
X109051776Y-20334904D01*
G37*
G36*
X110726776Y-20334904D02*
G01*
X110740533Y-20351667D01*
X110759170Y-20366962D01*
X110780434Y-20378327D01*
X110803509Y-20385327D01*
X110827500Y-20387690D01*
X110851491Y-20385327D01*
X110874566Y-20378327D01*
X110895830Y-20366962D01*
X110914467Y-20351667D01*
X110928224Y-20334904D01*
X110930096Y-20334200D01*
X110931642Y-20335469D01*
X110931618Y-20336938D01*
X110906038Y-20398692D01*
X110892690Y-20465795D01*
X110892690Y-20534205D01*
X110906038Y-20601308D01*
X110931618Y-20663062D01*
X110931357Y-20665045D01*
X110929509Y-20665810D01*
X110928224Y-20665096D01*
X110914467Y-20648333D01*
X110895830Y-20633038D01*
X110874566Y-20621673D01*
X110851491Y-20614673D01*
X110827500Y-20612310D01*
X110803509Y-20614673D01*
X110780434Y-20621673D01*
X110759170Y-20633038D01*
X110740533Y-20648333D01*
X110726776Y-20665096D01*
X110724904Y-20665800D01*
X110723358Y-20664531D01*
X110723382Y-20663062D01*
X110748962Y-20601308D01*
X110762310Y-20534205D01*
X110762310Y-20465795D01*
X110748962Y-20398692D01*
X110723382Y-20336938D01*
X110723643Y-20334955D01*
X110725491Y-20334190D01*
X110726776Y-20334904D01*
G37*
G36*
X108226776Y-20334904D02*
G01*
X108240533Y-20351667D01*
X108259170Y-20366962D01*
X108280434Y-20378327D01*
X108303509Y-20385327D01*
X108327500Y-20387690D01*
X108351491Y-20385327D01*
X108374566Y-20378327D01*
X108395830Y-20366962D01*
X108414467Y-20351667D01*
X108428224Y-20334904D01*
X108430096Y-20334200D01*
X108431642Y-20335469D01*
X108431618Y-20336938D01*
X108406038Y-20398692D01*
X108392690Y-20465795D01*
X108392690Y-20534205D01*
X108406038Y-20601308D01*
X108431618Y-20663062D01*
X108431357Y-20665045D01*
X108429509Y-20665810D01*
X108428224Y-20665096D01*
X108414467Y-20648333D01*
X108395830Y-20633038D01*
X108374566Y-20621673D01*
X108351491Y-20614673D01*
X108327500Y-20612310D01*
X108303509Y-20614673D01*
X108280434Y-20621673D01*
X108259170Y-20633038D01*
X108240533Y-20648333D01*
X108226776Y-20665096D01*
X108224904Y-20665800D01*
X108223358Y-20664531D01*
X108223382Y-20663062D01*
X108248962Y-20601308D01*
X108262310Y-20534205D01*
X108262310Y-20465795D01*
X108248962Y-20398692D01*
X108223382Y-20336938D01*
X108223643Y-20334955D01*
X108225491Y-20334190D01*
X108226776Y-20334904D01*
G37*
G36*
X92554291Y-20340371D02*
G01*
X92554441Y-20342192D01*
X92531038Y-20398692D01*
X92517690Y-20465795D01*
X92517690Y-20534205D01*
X92531038Y-20601308D01*
X92554441Y-20657808D01*
X92554180Y-20659791D01*
X92552332Y-20660556D01*
X92550829Y-20659516D01*
X92542261Y-20643485D01*
X92526966Y-20624848D01*
X92508329Y-20609553D01*
X92487064Y-20598187D01*
X92463991Y-20591190D01*
X92439999Y-20588826D01*
X92416008Y-20591189D01*
X92392933Y-20598190D01*
X92371669Y-20609555D01*
X92353032Y-20624850D01*
X92337738Y-20643487D01*
X92329171Y-20659516D01*
X92327473Y-20660572D01*
X92325709Y-20659629D01*
X92325559Y-20657808D01*
X92348962Y-20601308D01*
X92362310Y-20534205D01*
X92362310Y-20465795D01*
X92348962Y-20398692D01*
X92325559Y-20342192D01*
X92325820Y-20340209D01*
X92327668Y-20339444D01*
X92329171Y-20340484D01*
X92337739Y-20356515D01*
X92353034Y-20375152D01*
X92371671Y-20390447D01*
X92392936Y-20401813D01*
X92416009Y-20408810D01*
X92440001Y-20411174D01*
X92463992Y-20408811D01*
X92487067Y-20401810D01*
X92508331Y-20390445D01*
X92526968Y-20375150D01*
X92542262Y-20356513D01*
X92550829Y-20340484D01*
X92552527Y-20339428D01*
X92554291Y-20340371D01*
G37*
G36*
X110104291Y-20340371D02*
G01*
X110104441Y-20342192D01*
X110081038Y-20398692D01*
X110067690Y-20465795D01*
X110067690Y-20534205D01*
X110081038Y-20601308D01*
X110104441Y-20657808D01*
X110104180Y-20659791D01*
X110102332Y-20660556D01*
X110100829Y-20659516D01*
X110092261Y-20643485D01*
X110076966Y-20624848D01*
X110058329Y-20609553D01*
X110037064Y-20598187D01*
X110013991Y-20591190D01*
X109989999Y-20588826D01*
X109966008Y-20591189D01*
X109942933Y-20598190D01*
X109921669Y-20609555D01*
X109903032Y-20624850D01*
X109887738Y-20643487D01*
X109879171Y-20659516D01*
X109877473Y-20660572D01*
X109875709Y-20659629D01*
X109875559Y-20657808D01*
X109898962Y-20601308D01*
X109912310Y-20534205D01*
X109912310Y-20465795D01*
X109898962Y-20398692D01*
X109875559Y-20342192D01*
X109875820Y-20340209D01*
X109877668Y-20339444D01*
X109879171Y-20340484D01*
X109887739Y-20356515D01*
X109903034Y-20375152D01*
X109921671Y-20390447D01*
X109942936Y-20401813D01*
X109966009Y-20408810D01*
X109990001Y-20411174D01*
X110013992Y-20408811D01*
X110037067Y-20401810D01*
X110058331Y-20390445D01*
X110076968Y-20375150D01*
X110092262Y-20356513D01*
X110100829Y-20340484D01*
X110102527Y-20339428D01*
X110104291Y-20340371D01*
G37*
G36*
X90686776Y-18094904D02*
G01*
X90700533Y-18111667D01*
X90719170Y-18126962D01*
X90740434Y-18138327D01*
X90763509Y-18145327D01*
X90787500Y-18147690D01*
X90811491Y-18145327D01*
X90834566Y-18138327D01*
X90855830Y-18126962D01*
X90874467Y-18111667D01*
X90888224Y-18094904D01*
X90890096Y-18094200D01*
X90891642Y-18095469D01*
X90891618Y-18096938D01*
X90866038Y-18158692D01*
X90852690Y-18225795D01*
X90852690Y-18294205D01*
X90866038Y-18361308D01*
X90891618Y-18423062D01*
X90891357Y-18425045D01*
X90889509Y-18425810D01*
X90888224Y-18425096D01*
X90874467Y-18408333D01*
X90855830Y-18393038D01*
X90834566Y-18381673D01*
X90811491Y-18374673D01*
X90787500Y-18372310D01*
X90763509Y-18374673D01*
X90740434Y-18381673D01*
X90719170Y-18393038D01*
X90700533Y-18408333D01*
X90686776Y-18425096D01*
X90684904Y-18425800D01*
X90683358Y-18424531D01*
X90683382Y-18423062D01*
X90708962Y-18361308D01*
X90722310Y-18294205D01*
X90722310Y-18225795D01*
X90708962Y-18158692D01*
X90683382Y-18096938D01*
X90683643Y-18094955D01*
X90685491Y-18094190D01*
X90686776Y-18094904D01*
G37*
G36*
X111541776Y-18094904D02*
G01*
X111555533Y-18111667D01*
X111574170Y-18126962D01*
X111595434Y-18138327D01*
X111618509Y-18145327D01*
X111642500Y-18147690D01*
X111666491Y-18145327D01*
X111689566Y-18138327D01*
X111710830Y-18126962D01*
X111729467Y-18111667D01*
X111743224Y-18094904D01*
X111745096Y-18094200D01*
X111746642Y-18095469D01*
X111746618Y-18096938D01*
X111721038Y-18158692D01*
X111707690Y-18225795D01*
X111707690Y-18294205D01*
X111721038Y-18361308D01*
X111746618Y-18423062D01*
X111746357Y-18425045D01*
X111744509Y-18425810D01*
X111743224Y-18425096D01*
X111729467Y-18408333D01*
X111710830Y-18393038D01*
X111689566Y-18381673D01*
X111666491Y-18374673D01*
X111642500Y-18372310D01*
X111618509Y-18374673D01*
X111595434Y-18381673D01*
X111574170Y-18393038D01*
X111555533Y-18408333D01*
X111541776Y-18425096D01*
X111539904Y-18425800D01*
X111538358Y-18424531D01*
X111538382Y-18423062D01*
X111563962Y-18361308D01*
X111577310Y-18294205D01*
X111577310Y-18225795D01*
X111563962Y-18158692D01*
X111538382Y-18096938D01*
X111538643Y-18094955D01*
X111540491Y-18094190D01*
X111541776Y-18094904D01*
G37*
G36*
X91511776Y-18094904D02*
G01*
X91525533Y-18111667D01*
X91544170Y-18126962D01*
X91565434Y-18138327D01*
X91588509Y-18145327D01*
X91612500Y-18147690D01*
X91636491Y-18145327D01*
X91659566Y-18138327D01*
X91680830Y-18126962D01*
X91699467Y-18111667D01*
X91713224Y-18094904D01*
X91715096Y-18094200D01*
X91716642Y-18095469D01*
X91716618Y-18096938D01*
X91691038Y-18158692D01*
X91677690Y-18225795D01*
X91677690Y-18294205D01*
X91691038Y-18361308D01*
X91716618Y-18423062D01*
X91716357Y-18425045D01*
X91714509Y-18425810D01*
X91713224Y-18425096D01*
X91699467Y-18408333D01*
X91680830Y-18393038D01*
X91659566Y-18381673D01*
X91636491Y-18374673D01*
X91612500Y-18372310D01*
X91588509Y-18374673D01*
X91565434Y-18381673D01*
X91544170Y-18393038D01*
X91525533Y-18408333D01*
X91511776Y-18425096D01*
X91509904Y-18425800D01*
X91508358Y-18424531D01*
X91508382Y-18423062D01*
X91533962Y-18361308D01*
X91547310Y-18294205D01*
X91547310Y-18225795D01*
X91533962Y-18158692D01*
X91508382Y-18096938D01*
X91508643Y-18094955D01*
X91510491Y-18094190D01*
X91511776Y-18094904D01*
G37*
G36*
X110716776Y-18094904D02*
G01*
X110730533Y-18111667D01*
X110749170Y-18126962D01*
X110770434Y-18138327D01*
X110793509Y-18145327D01*
X110817500Y-18147690D01*
X110841491Y-18145327D01*
X110864566Y-18138327D01*
X110885830Y-18126962D01*
X110904467Y-18111667D01*
X110918224Y-18094904D01*
X110920096Y-18094200D01*
X110921642Y-18095469D01*
X110921618Y-18096938D01*
X110896038Y-18158692D01*
X110882690Y-18225795D01*
X110882690Y-18294205D01*
X110896038Y-18361308D01*
X110921618Y-18423062D01*
X110921357Y-18425045D01*
X110919509Y-18425810D01*
X110918224Y-18425096D01*
X110904467Y-18408333D01*
X110885830Y-18393038D01*
X110864566Y-18381673D01*
X110841491Y-18374673D01*
X110817500Y-18372310D01*
X110793509Y-18374673D01*
X110770434Y-18381673D01*
X110749170Y-18393038D01*
X110730533Y-18408333D01*
X110716776Y-18425096D01*
X110714904Y-18425800D01*
X110713358Y-18424531D01*
X110713382Y-18423062D01*
X110738962Y-18361308D01*
X110752310Y-18294205D01*
X110752310Y-18225795D01*
X110738962Y-18158692D01*
X110713382Y-18096938D01*
X110713643Y-18094955D01*
X110715491Y-18094190D01*
X110716776Y-18094904D01*
G37*
G36*
X109041776Y-18094904D02*
G01*
X109055533Y-18111667D01*
X109074170Y-18126962D01*
X109095434Y-18138327D01*
X109118509Y-18145327D01*
X109142500Y-18147690D01*
X109166491Y-18145327D01*
X109189566Y-18138327D01*
X109210830Y-18126962D01*
X109229467Y-18111667D01*
X109243224Y-18094904D01*
X109245096Y-18094200D01*
X109246642Y-18095469D01*
X109246618Y-18096938D01*
X109221038Y-18158692D01*
X109207690Y-18225795D01*
X109207690Y-18294205D01*
X109221038Y-18361308D01*
X109246618Y-18423062D01*
X109246357Y-18425045D01*
X109244509Y-18425810D01*
X109243224Y-18425096D01*
X109229467Y-18408333D01*
X109210830Y-18393038D01*
X109189566Y-18381673D01*
X109166491Y-18374673D01*
X109142500Y-18372310D01*
X109118509Y-18374673D01*
X109095434Y-18381673D01*
X109074170Y-18393038D01*
X109055533Y-18408333D01*
X109041776Y-18425096D01*
X109039904Y-18425800D01*
X109038358Y-18424531D01*
X109038382Y-18423062D01*
X109063962Y-18361308D01*
X109077310Y-18294205D01*
X109077310Y-18225795D01*
X109063962Y-18158692D01*
X109038382Y-18096938D01*
X109038643Y-18094955D01*
X109040491Y-18094190D01*
X109041776Y-18094904D01*
G37*
G36*
X108216776Y-18094904D02*
G01*
X108230533Y-18111667D01*
X108249170Y-18126962D01*
X108270434Y-18138327D01*
X108293509Y-18145327D01*
X108317500Y-18147690D01*
X108341491Y-18145327D01*
X108364566Y-18138327D01*
X108385830Y-18126962D01*
X108404467Y-18111667D01*
X108418224Y-18094904D01*
X108420096Y-18094200D01*
X108421642Y-18095469D01*
X108421618Y-18096938D01*
X108396038Y-18158692D01*
X108382690Y-18225795D01*
X108382690Y-18294205D01*
X108396038Y-18361308D01*
X108421618Y-18423062D01*
X108421357Y-18425045D01*
X108419509Y-18425810D01*
X108418224Y-18425096D01*
X108404467Y-18408333D01*
X108385830Y-18393038D01*
X108364566Y-18381673D01*
X108341491Y-18374673D01*
X108317500Y-18372310D01*
X108293509Y-18374673D01*
X108270434Y-18381673D01*
X108249170Y-18393038D01*
X108230533Y-18408333D01*
X108216776Y-18425096D01*
X108214904Y-18425800D01*
X108213358Y-18424531D01*
X108213382Y-18423062D01*
X108238962Y-18361308D01*
X108252310Y-18294205D01*
X108252310Y-18225795D01*
X108238962Y-18158692D01*
X108213382Y-18096938D01*
X108213643Y-18094955D01*
X108215491Y-18094190D01*
X108216776Y-18094904D01*
G37*
G36*
X93186776Y-18094904D02*
G01*
X93200533Y-18111667D01*
X93219170Y-18126962D01*
X93240434Y-18138327D01*
X93263509Y-18145327D01*
X93287500Y-18147690D01*
X93311491Y-18145327D01*
X93334566Y-18138327D01*
X93355830Y-18126962D01*
X93374467Y-18111667D01*
X93388224Y-18094904D01*
X93390096Y-18094200D01*
X93391642Y-18095469D01*
X93391618Y-18096938D01*
X93366038Y-18158692D01*
X93352690Y-18225795D01*
X93352690Y-18294205D01*
X93366038Y-18361308D01*
X93391618Y-18423062D01*
X93391357Y-18425045D01*
X93389509Y-18425810D01*
X93388224Y-18425096D01*
X93374467Y-18408333D01*
X93355830Y-18393038D01*
X93334566Y-18381673D01*
X93311491Y-18374673D01*
X93287500Y-18372310D01*
X93263509Y-18374673D01*
X93240434Y-18381673D01*
X93219170Y-18393038D01*
X93200533Y-18408333D01*
X93186776Y-18425096D01*
X93184904Y-18425800D01*
X93183358Y-18424531D01*
X93183382Y-18423062D01*
X93208962Y-18361308D01*
X93222310Y-18294205D01*
X93222310Y-18225795D01*
X93208962Y-18158692D01*
X93183382Y-18096938D01*
X93183643Y-18094955D01*
X93185491Y-18094190D01*
X93186776Y-18094904D01*
G37*
G36*
X94011776Y-18094904D02*
G01*
X94025533Y-18111667D01*
X94044170Y-18126962D01*
X94065434Y-18138327D01*
X94088509Y-18145327D01*
X94112500Y-18147690D01*
X94136491Y-18145327D01*
X94159566Y-18138327D01*
X94180830Y-18126962D01*
X94199467Y-18111667D01*
X94213224Y-18094904D01*
X94215096Y-18094200D01*
X94216642Y-18095469D01*
X94216618Y-18096938D01*
X94191038Y-18158692D01*
X94177690Y-18225795D01*
X94177690Y-18294205D01*
X94191038Y-18361308D01*
X94216618Y-18423062D01*
X94216357Y-18425045D01*
X94214509Y-18425810D01*
X94213224Y-18425096D01*
X94199467Y-18408333D01*
X94180830Y-18393038D01*
X94159566Y-18381673D01*
X94136491Y-18374673D01*
X94112500Y-18372310D01*
X94088509Y-18374673D01*
X94065434Y-18381673D01*
X94044170Y-18393038D01*
X94025533Y-18408333D01*
X94011776Y-18425096D01*
X94009904Y-18425800D01*
X94008358Y-18424531D01*
X94008382Y-18423062D01*
X94033962Y-18361308D01*
X94047310Y-18294205D01*
X94047310Y-18225795D01*
X94033962Y-18158692D01*
X94008382Y-18096938D01*
X94008643Y-18094955D01*
X94010491Y-18094190D01*
X94011776Y-18094904D01*
G37*
G36*
X110094291Y-18100371D02*
G01*
X110094441Y-18102192D01*
X110071038Y-18158692D01*
X110057690Y-18225795D01*
X110057690Y-18294205D01*
X110071038Y-18361308D01*
X110094441Y-18417808D01*
X110094180Y-18419791D01*
X110092332Y-18420556D01*
X110090829Y-18419516D01*
X110082261Y-18403485D01*
X110066966Y-18384848D01*
X110048329Y-18369553D01*
X110027064Y-18358187D01*
X110003991Y-18351190D01*
X109979999Y-18348826D01*
X109956008Y-18351189D01*
X109932933Y-18358190D01*
X109911669Y-18369555D01*
X109893032Y-18384850D01*
X109877738Y-18403487D01*
X109869171Y-18419516D01*
X109867473Y-18420572D01*
X109865709Y-18419629D01*
X109865559Y-18417808D01*
X109888962Y-18361308D01*
X109902310Y-18294205D01*
X109902310Y-18225795D01*
X109888962Y-18158692D01*
X109865559Y-18102192D01*
X109865820Y-18100209D01*
X109867668Y-18099444D01*
X109869171Y-18100484D01*
X109877739Y-18116515D01*
X109893034Y-18135152D01*
X109911671Y-18150447D01*
X109932936Y-18161813D01*
X109956009Y-18168810D01*
X109980001Y-18171174D01*
X110003992Y-18168811D01*
X110027067Y-18161810D01*
X110048331Y-18150445D01*
X110066968Y-18135150D01*
X110082262Y-18116513D01*
X110090829Y-18100484D01*
X110092527Y-18099428D01*
X110094291Y-18100371D01*
G37*
G36*
X92564291Y-18100371D02*
G01*
X92564441Y-18102192D01*
X92541038Y-18158692D01*
X92527690Y-18225795D01*
X92527690Y-18294205D01*
X92541038Y-18361308D01*
X92564441Y-18417808D01*
X92564180Y-18419791D01*
X92562332Y-18420556D01*
X92560829Y-18419516D01*
X92552261Y-18403485D01*
X92536966Y-18384848D01*
X92518329Y-18369553D01*
X92497064Y-18358187D01*
X92473991Y-18351190D01*
X92449999Y-18348826D01*
X92426008Y-18351189D01*
X92402933Y-18358190D01*
X92381669Y-18369555D01*
X92363032Y-18384850D01*
X92347738Y-18403487D01*
X92339171Y-18419516D01*
X92337473Y-18420572D01*
X92335709Y-18419629D01*
X92335559Y-18417808D01*
X92358962Y-18361308D01*
X92372310Y-18294205D01*
X92372310Y-18225795D01*
X92358962Y-18158692D01*
X92335559Y-18102192D01*
X92335820Y-18100209D01*
X92337668Y-18099444D01*
X92339171Y-18100484D01*
X92347739Y-18116515D01*
X92363034Y-18135152D01*
X92381671Y-18150447D01*
X92402936Y-18161813D01*
X92426009Y-18168810D01*
X92450001Y-18171174D01*
X92473992Y-18168811D01*
X92497067Y-18161810D01*
X92518331Y-18150445D01*
X92536968Y-18135150D01*
X92552262Y-18116513D01*
X92560829Y-18100484D01*
X92562527Y-18099428D01*
X92564291Y-18100371D01*
G37*
M02*
