G04 #@! TF.GenerationSoftware,KiCad,Pcbnew,(5.1.9)-1*
G04 #@! TF.CreationDate,2021-01-26T21:27:31-05:00*
G04 #@! TF.ProjectId,reviung34-split-L,72657669-756e-4673-9334-2d73706c6974,2.0*
G04 #@! TF.SameCoordinates,Original*
G04 #@! TF.FileFunction,Soldermask,Bot*
G04 #@! TF.FilePolarity,Negative*
%FSLAX46Y46*%
G04 Gerber Fmt 4.6, Leading zero omitted, Abs format (unit mm)*
G04 Created by KiCad (PCBNEW (5.1.9)-1) date 2021-01-26 21:27:31*
%MOMM*%
%LPD*%
G01*
G04 APERTURE LIST*
%ADD10C,3.102000*%
%ADD11C,2.002000*%
%ADD12C,4.202000*%
%ADD13C,5.102000*%
%ADD14C,0.702000*%
%ADD15C,2.302000*%
%ADD16C,1.702000*%
%ADD17C,3.352000*%
%ADD18C,6.702000*%
%ADD19C,2.102000*%
%ADD20C,1.626000*%
%ADD21C,1.499000*%
%ADD22C,0.100000*%
G04 APERTURE END LIST*
D10*
X125935000Y-144030000D03*
X132285000Y-141490000D03*
G36*
G01*
X121307000Y-145280000D02*
X121307000Y-142780000D01*
G75*
G02*
X121358000Y-142729000I51000J0D01*
G01*
X123908000Y-142729000D01*
G75*
G02*
X123959000Y-142780000I0J-51000D01*
G01*
X123959000Y-145280000D01*
G75*
G02*
X123908000Y-145331000I-51000J0D01*
G01*
X121358000Y-145331000D01*
G75*
G02*
X121307000Y-145280000I0J51000D01*
G01*
G37*
D11*
X133555000Y-138950000D03*
X123395000Y-138950000D03*
D12*
X128475000Y-138950000D03*
G36*
G01*
X134234000Y-142740000D02*
X134234000Y-140240000D01*
G75*
G02*
X134285000Y-140189000I51000J0D01*
G01*
X136835000Y-140189000D01*
G75*
G02*
X136886000Y-140240000I0J-51000D01*
G01*
X136886000Y-142740000D01*
G75*
G02*
X136835000Y-142791000I-51000J0D01*
G01*
X134285000Y-142791000D01*
G75*
G02*
X134234000Y-142740000I0J51000D01*
G01*
G37*
D10*
X171395000Y-144030000D03*
X177745000Y-141490000D03*
G36*
G01*
X166767000Y-145280000D02*
X166767000Y-142780000D01*
G75*
G02*
X166818000Y-142729000I51000J0D01*
G01*
X169368000Y-142729000D01*
G75*
G02*
X169419000Y-142780000I0J-51000D01*
G01*
X169419000Y-145280000D01*
G75*
G02*
X169368000Y-145331000I-51000J0D01*
G01*
X166818000Y-145331000D01*
G75*
G02*
X166767000Y-145280000I0J51000D01*
G01*
G37*
D11*
X179015000Y-138950000D03*
X168855000Y-138950000D03*
D12*
X173935000Y-138950000D03*
G36*
G01*
X179694000Y-142740000D02*
X179694000Y-140240000D01*
G75*
G02*
X179745000Y-140189000I51000J0D01*
G01*
X182295000Y-140189000D01*
G75*
G02*
X182346000Y-140240000I0J-51000D01*
G01*
X182346000Y-142740000D01*
G75*
G02*
X182295000Y-142791000I-51000J0D01*
G01*
X179745000Y-142791000D01*
G75*
G02*
X179694000Y-142740000I0J51000D01*
G01*
G37*
D10*
X243150000Y-114820000D03*
X236800000Y-117360000D03*
G36*
G01*
X247778000Y-113570000D02*
X247778000Y-116070000D01*
G75*
G02*
X247727000Y-116121000I-51000J0D01*
G01*
X245177000Y-116121000D01*
G75*
G02*
X245126000Y-116070000I0J51000D01*
G01*
X245126000Y-113570000D01*
G75*
G02*
X245177000Y-113519000I51000J0D01*
G01*
X247727000Y-113519000D01*
G75*
G02*
X247778000Y-113570000I0J-51000D01*
G01*
G37*
D11*
X235530000Y-119900000D03*
X245690000Y-119900000D03*
D12*
X240610000Y-119900000D03*
G36*
G01*
X234851000Y-116110000D02*
X234851000Y-118610000D01*
G75*
G02*
X234800000Y-118661000I-51000J0D01*
G01*
X232250000Y-118661000D01*
G75*
G02*
X232199000Y-118610000I0J51000D01*
G01*
X232199000Y-116110000D01*
G75*
G02*
X232250000Y-116059000I51000J0D01*
G01*
X234800000Y-116059000D01*
G75*
G02*
X234851000Y-116110000I0J-51000D01*
G01*
G37*
D10*
X243150000Y-95770000D03*
X236800000Y-98310000D03*
G36*
G01*
X247778000Y-94520000D02*
X247778000Y-97020000D01*
G75*
G02*
X247727000Y-97071000I-51000J0D01*
G01*
X245177000Y-97071000D01*
G75*
G02*
X245126000Y-97020000I0J51000D01*
G01*
X245126000Y-94520000D01*
G75*
G02*
X245177000Y-94469000I51000J0D01*
G01*
X247727000Y-94469000D01*
G75*
G02*
X247778000Y-94520000I0J-51000D01*
G01*
G37*
D11*
X235530000Y-100850000D03*
X245690000Y-100850000D03*
D12*
X240610000Y-100850000D03*
G36*
G01*
X234851000Y-97060000D02*
X234851000Y-99560000D01*
G75*
G02*
X234800000Y-99611000I-51000J0D01*
G01*
X232250000Y-99611000D01*
G75*
G02*
X232199000Y-99560000I0J51000D01*
G01*
X232199000Y-97060000D01*
G75*
G02*
X232250000Y-97009000I51000J0D01*
G01*
X234800000Y-97009000D01*
G75*
G02*
X234851000Y-97060000I0J-51000D01*
G01*
G37*
D10*
X243150000Y-76720000D03*
X236800000Y-79260000D03*
G36*
G01*
X247778000Y-75470000D02*
X247778000Y-77970000D01*
G75*
G02*
X247727000Y-78021000I-51000J0D01*
G01*
X245177000Y-78021000D01*
G75*
G02*
X245126000Y-77970000I0J51000D01*
G01*
X245126000Y-75470000D01*
G75*
G02*
X245177000Y-75419000I51000J0D01*
G01*
X247727000Y-75419000D01*
G75*
G02*
X247778000Y-75470000I0J-51000D01*
G01*
G37*
D11*
X235530000Y-81800000D03*
X245690000Y-81800000D03*
D12*
X240610000Y-81800000D03*
G36*
G01*
X234851000Y-78010000D02*
X234851000Y-80510000D01*
G75*
G02*
X234800000Y-80561000I-51000J0D01*
G01*
X232250000Y-80561000D01*
G75*
G02*
X232199000Y-80510000I0J51000D01*
G01*
X232199000Y-78010000D01*
G75*
G02*
X232250000Y-77959000I51000J0D01*
G01*
X234800000Y-77959000D01*
G75*
G02*
X234851000Y-78010000I0J-51000D01*
G01*
G37*
D10*
X224100000Y-114820000D03*
X217750000Y-117360000D03*
G36*
G01*
X228728000Y-113570000D02*
X228728000Y-116070000D01*
G75*
G02*
X228677000Y-116121000I-51000J0D01*
G01*
X226127000Y-116121000D01*
G75*
G02*
X226076000Y-116070000I0J51000D01*
G01*
X226076000Y-113570000D01*
G75*
G02*
X226127000Y-113519000I51000J0D01*
G01*
X228677000Y-113519000D01*
G75*
G02*
X228728000Y-113570000I0J-51000D01*
G01*
G37*
D11*
X216480000Y-119900000D03*
X226640000Y-119900000D03*
D12*
X221560000Y-119900000D03*
G36*
G01*
X215801000Y-116110000D02*
X215801000Y-118610000D01*
G75*
G02*
X215750000Y-118661000I-51000J0D01*
G01*
X213200000Y-118661000D01*
G75*
G02*
X213149000Y-118610000I0J51000D01*
G01*
X213149000Y-116110000D01*
G75*
G02*
X213200000Y-116059000I51000J0D01*
G01*
X215750000Y-116059000D01*
G75*
G02*
X215801000Y-116110000I0J-51000D01*
G01*
G37*
D10*
X205050000Y-114820000D03*
X198700000Y-117360000D03*
G36*
G01*
X209678000Y-113570000D02*
X209678000Y-116070000D01*
G75*
G02*
X209627000Y-116121000I-51000J0D01*
G01*
X207077000Y-116121000D01*
G75*
G02*
X207026000Y-116070000I0J51000D01*
G01*
X207026000Y-113570000D01*
G75*
G02*
X207077000Y-113519000I51000J0D01*
G01*
X209627000Y-113519000D01*
G75*
G02*
X209678000Y-113570000I0J-51000D01*
G01*
G37*
D11*
X197430000Y-119900000D03*
X207590000Y-119900000D03*
D12*
X202510000Y-119900000D03*
G36*
G01*
X196751000Y-116110000D02*
X196751000Y-118610000D01*
G75*
G02*
X196700000Y-118661000I-51000J0D01*
G01*
X194150000Y-118661000D01*
G75*
G02*
X194099000Y-118610000I0J51000D01*
G01*
X194099000Y-116110000D01*
G75*
G02*
X194150000Y-116059000I51000J0D01*
G01*
X196700000Y-116059000D01*
G75*
G02*
X196751000Y-116110000I0J-51000D01*
G01*
G37*
D10*
X186000000Y-114820000D03*
X179650000Y-117360000D03*
G36*
G01*
X190628000Y-113570000D02*
X190628000Y-116070000D01*
G75*
G02*
X190577000Y-116121000I-51000J0D01*
G01*
X188027000Y-116121000D01*
G75*
G02*
X187976000Y-116070000I0J51000D01*
G01*
X187976000Y-113570000D01*
G75*
G02*
X188027000Y-113519000I51000J0D01*
G01*
X190577000Y-113519000D01*
G75*
G02*
X190628000Y-113570000I0J-51000D01*
G01*
G37*
D11*
X178380000Y-119900000D03*
X188540000Y-119900000D03*
D12*
X183460000Y-119900000D03*
G36*
G01*
X177701000Y-116110000D02*
X177701000Y-118610000D01*
G75*
G02*
X177650000Y-118661000I-51000J0D01*
G01*
X175100000Y-118661000D01*
G75*
G02*
X175049000Y-118610000I0J51000D01*
G01*
X175049000Y-116110000D01*
G75*
G02*
X175100000Y-116059000I51000J0D01*
G01*
X177650000Y-116059000D01*
G75*
G02*
X177701000Y-116110000I0J-51000D01*
G01*
G37*
D10*
X166950000Y-114820000D03*
X160600000Y-117360000D03*
G36*
G01*
X171578000Y-113570000D02*
X171578000Y-116070000D01*
G75*
G02*
X171527000Y-116121000I-51000J0D01*
G01*
X168977000Y-116121000D01*
G75*
G02*
X168926000Y-116070000I0J51000D01*
G01*
X168926000Y-113570000D01*
G75*
G02*
X168977000Y-113519000I51000J0D01*
G01*
X171527000Y-113519000D01*
G75*
G02*
X171578000Y-113570000I0J-51000D01*
G01*
G37*
D11*
X159330000Y-119900000D03*
X169490000Y-119900000D03*
D12*
X164410000Y-119900000D03*
G36*
G01*
X158651000Y-116110000D02*
X158651000Y-118610000D01*
G75*
G02*
X158600000Y-118661000I-51000J0D01*
G01*
X156050000Y-118661000D01*
G75*
G02*
X155999000Y-118610000I0J51000D01*
G01*
X155999000Y-116110000D01*
G75*
G02*
X156050000Y-116059000I51000J0D01*
G01*
X158600000Y-116059000D01*
G75*
G02*
X158651000Y-116110000I0J-51000D01*
G01*
G37*
D10*
X224100000Y-95770000D03*
X217750000Y-98310000D03*
G36*
G01*
X228728000Y-94520000D02*
X228728000Y-97020000D01*
G75*
G02*
X228677000Y-97071000I-51000J0D01*
G01*
X226127000Y-97071000D01*
G75*
G02*
X226076000Y-97020000I0J51000D01*
G01*
X226076000Y-94520000D01*
G75*
G02*
X226127000Y-94469000I51000J0D01*
G01*
X228677000Y-94469000D01*
G75*
G02*
X228728000Y-94520000I0J-51000D01*
G01*
G37*
D11*
X216480000Y-100850000D03*
X226640000Y-100850000D03*
D12*
X221560000Y-100850000D03*
G36*
G01*
X215801000Y-97060000D02*
X215801000Y-99560000D01*
G75*
G02*
X215750000Y-99611000I-51000J0D01*
G01*
X213200000Y-99611000D01*
G75*
G02*
X213149000Y-99560000I0J51000D01*
G01*
X213149000Y-97060000D01*
G75*
G02*
X213200000Y-97009000I51000J0D01*
G01*
X215750000Y-97009000D01*
G75*
G02*
X215801000Y-97060000I0J-51000D01*
G01*
G37*
D10*
X205050000Y-95770000D03*
X198700000Y-98310000D03*
G36*
G01*
X209678000Y-94520000D02*
X209678000Y-97020000D01*
G75*
G02*
X209627000Y-97071000I-51000J0D01*
G01*
X207077000Y-97071000D01*
G75*
G02*
X207026000Y-97020000I0J51000D01*
G01*
X207026000Y-94520000D01*
G75*
G02*
X207077000Y-94469000I51000J0D01*
G01*
X209627000Y-94469000D01*
G75*
G02*
X209678000Y-94520000I0J-51000D01*
G01*
G37*
D11*
X197430000Y-100850000D03*
X207590000Y-100850000D03*
D12*
X202510000Y-100850000D03*
G36*
G01*
X196751000Y-97060000D02*
X196751000Y-99560000D01*
G75*
G02*
X196700000Y-99611000I-51000J0D01*
G01*
X194150000Y-99611000D01*
G75*
G02*
X194099000Y-99560000I0J51000D01*
G01*
X194099000Y-97060000D01*
G75*
G02*
X194150000Y-97009000I51000J0D01*
G01*
X196700000Y-97009000D01*
G75*
G02*
X196751000Y-97060000I0J-51000D01*
G01*
G37*
D10*
X186000000Y-95770000D03*
X179650000Y-98310000D03*
G36*
G01*
X190628000Y-94520000D02*
X190628000Y-97020000D01*
G75*
G02*
X190577000Y-97071000I-51000J0D01*
G01*
X188027000Y-97071000D01*
G75*
G02*
X187976000Y-97020000I0J51000D01*
G01*
X187976000Y-94520000D01*
G75*
G02*
X188027000Y-94469000I51000J0D01*
G01*
X190577000Y-94469000D01*
G75*
G02*
X190628000Y-94520000I0J-51000D01*
G01*
G37*
D11*
X178380000Y-100850000D03*
X188540000Y-100850000D03*
D12*
X183460000Y-100850000D03*
G36*
G01*
X177701000Y-97060000D02*
X177701000Y-99560000D01*
G75*
G02*
X177650000Y-99611000I-51000J0D01*
G01*
X175100000Y-99611000D01*
G75*
G02*
X175049000Y-99560000I0J51000D01*
G01*
X175049000Y-97060000D01*
G75*
G02*
X175100000Y-97009000I51000J0D01*
G01*
X177650000Y-97009000D01*
G75*
G02*
X177701000Y-97060000I0J-51000D01*
G01*
G37*
D10*
X166950000Y-95770000D03*
X160600000Y-98310000D03*
G36*
G01*
X171578000Y-94520000D02*
X171578000Y-97020000D01*
G75*
G02*
X171527000Y-97071000I-51000J0D01*
G01*
X168977000Y-97071000D01*
G75*
G02*
X168926000Y-97020000I0J51000D01*
G01*
X168926000Y-94520000D01*
G75*
G02*
X168977000Y-94469000I51000J0D01*
G01*
X171527000Y-94469000D01*
G75*
G02*
X171578000Y-94520000I0J-51000D01*
G01*
G37*
D11*
X159330000Y-100850000D03*
X169490000Y-100850000D03*
D12*
X164410000Y-100850000D03*
G36*
G01*
X158651000Y-97060000D02*
X158651000Y-99560000D01*
G75*
G02*
X158600000Y-99611000I-51000J0D01*
G01*
X156050000Y-99611000D01*
G75*
G02*
X155999000Y-99560000I0J51000D01*
G01*
X155999000Y-97060000D01*
G75*
G02*
X156050000Y-97009000I51000J0D01*
G01*
X158600000Y-97009000D01*
G75*
G02*
X158651000Y-97060000I0J-51000D01*
G01*
G37*
D10*
X224100000Y-76720000D03*
X217750000Y-79260000D03*
G36*
G01*
X228728000Y-75470000D02*
X228728000Y-77970000D01*
G75*
G02*
X228677000Y-78021000I-51000J0D01*
G01*
X226127000Y-78021000D01*
G75*
G02*
X226076000Y-77970000I0J51000D01*
G01*
X226076000Y-75470000D01*
G75*
G02*
X226127000Y-75419000I51000J0D01*
G01*
X228677000Y-75419000D01*
G75*
G02*
X228728000Y-75470000I0J-51000D01*
G01*
G37*
D11*
X216480000Y-81800000D03*
X226640000Y-81800000D03*
D12*
X221560000Y-81800000D03*
G36*
G01*
X215801000Y-78010000D02*
X215801000Y-80510000D01*
G75*
G02*
X215750000Y-80561000I-51000J0D01*
G01*
X213200000Y-80561000D01*
G75*
G02*
X213149000Y-80510000I0J51000D01*
G01*
X213149000Y-78010000D01*
G75*
G02*
X213200000Y-77959000I51000J0D01*
G01*
X215750000Y-77959000D01*
G75*
G02*
X215801000Y-78010000I0J-51000D01*
G01*
G37*
D10*
X205050000Y-76720000D03*
X198700000Y-79260000D03*
G36*
G01*
X209678000Y-75470000D02*
X209678000Y-77970000D01*
G75*
G02*
X209627000Y-78021000I-51000J0D01*
G01*
X207077000Y-78021000D01*
G75*
G02*
X207026000Y-77970000I0J51000D01*
G01*
X207026000Y-75470000D01*
G75*
G02*
X207077000Y-75419000I51000J0D01*
G01*
X209627000Y-75419000D01*
G75*
G02*
X209678000Y-75470000I0J-51000D01*
G01*
G37*
D11*
X197430000Y-81800000D03*
X207590000Y-81800000D03*
D12*
X202510000Y-81800000D03*
G36*
G01*
X196751000Y-78010000D02*
X196751000Y-80510000D01*
G75*
G02*
X196700000Y-80561000I-51000J0D01*
G01*
X194150000Y-80561000D01*
G75*
G02*
X194099000Y-80510000I0J51000D01*
G01*
X194099000Y-78010000D01*
G75*
G02*
X194150000Y-77959000I51000J0D01*
G01*
X196700000Y-77959000D01*
G75*
G02*
X196751000Y-78010000I0J-51000D01*
G01*
G37*
D10*
X186000000Y-76720000D03*
X179650000Y-79260000D03*
G36*
G01*
X190628000Y-75470000D02*
X190628000Y-77970000D01*
G75*
G02*
X190577000Y-78021000I-51000J0D01*
G01*
X188027000Y-78021000D01*
G75*
G02*
X187976000Y-77970000I0J51000D01*
G01*
X187976000Y-75470000D01*
G75*
G02*
X188027000Y-75419000I51000J0D01*
G01*
X190577000Y-75419000D01*
G75*
G02*
X190628000Y-75470000I0J-51000D01*
G01*
G37*
D11*
X178380000Y-81800000D03*
X188540000Y-81800000D03*
D12*
X183460000Y-81800000D03*
G36*
G01*
X177701000Y-78010000D02*
X177701000Y-80510000D01*
G75*
G02*
X177650000Y-80561000I-51000J0D01*
G01*
X175100000Y-80561000D01*
G75*
G02*
X175049000Y-80510000I0J51000D01*
G01*
X175049000Y-78010000D01*
G75*
G02*
X175100000Y-77959000I51000J0D01*
G01*
X177650000Y-77959000D01*
G75*
G02*
X177701000Y-78010000I0J-51000D01*
G01*
G37*
D10*
X166950000Y-76720000D03*
X160600000Y-79260000D03*
G36*
G01*
X171578000Y-75470000D02*
X171578000Y-77970000D01*
G75*
G02*
X171527000Y-78021000I-51000J0D01*
G01*
X168977000Y-78021000D01*
G75*
G02*
X168926000Y-77970000I0J51000D01*
G01*
X168926000Y-75470000D01*
G75*
G02*
X168977000Y-75419000I51000J0D01*
G01*
X171527000Y-75419000D01*
G75*
G02*
X171578000Y-75470000I0J-51000D01*
G01*
G37*
D11*
X159330000Y-81800000D03*
X169490000Y-81800000D03*
D12*
X164410000Y-81800000D03*
G36*
G01*
X158651000Y-78010000D02*
X158651000Y-80510000D01*
G75*
G02*
X158600000Y-80561000I-51000J0D01*
G01*
X156050000Y-80561000D01*
G75*
G02*
X155999000Y-80510000I0J51000D01*
G01*
X155999000Y-78010000D01*
G75*
G02*
X156050000Y-77959000I51000J0D01*
G01*
X158600000Y-77959000D01*
G75*
G02*
X158651000Y-78010000I0J-51000D01*
G01*
G37*
D10*
X140540000Y-133870000D03*
X134190000Y-136410000D03*
G36*
G01*
X145168000Y-132620000D02*
X145168000Y-135120000D01*
G75*
G02*
X145117000Y-135171000I-51000J0D01*
G01*
X142567000Y-135171000D01*
G75*
G02*
X142516000Y-135120000I0J51000D01*
G01*
X142516000Y-132620000D01*
G75*
G02*
X142567000Y-132569000I51000J0D01*
G01*
X145117000Y-132569000D01*
G75*
G02*
X145168000Y-132620000I0J-51000D01*
G01*
G37*
D11*
X132920000Y-138950000D03*
X143080000Y-138950000D03*
D12*
X138000000Y-138950000D03*
G36*
G01*
X132241000Y-135160000D02*
X132241000Y-137660000D01*
G75*
G02*
X132190000Y-137711000I-51000J0D01*
G01*
X129640000Y-137711000D01*
G75*
G02*
X129589000Y-137660000I0J51000D01*
G01*
X129589000Y-135160000D01*
G75*
G02*
X129640000Y-135109000I51000J0D01*
G01*
X132190000Y-135109000D01*
G75*
G02*
X132241000Y-135160000I0J-51000D01*
G01*
G37*
D10*
X121490000Y-133870000D03*
X115140000Y-136410000D03*
G36*
G01*
X126118000Y-132620000D02*
X126118000Y-135120000D01*
G75*
G02*
X126067000Y-135171000I-51000J0D01*
G01*
X123517000Y-135171000D01*
G75*
G02*
X123466000Y-135120000I0J51000D01*
G01*
X123466000Y-132620000D01*
G75*
G02*
X123517000Y-132569000I51000J0D01*
G01*
X126067000Y-132569000D01*
G75*
G02*
X126118000Y-132620000I0J-51000D01*
G01*
G37*
D11*
X113870000Y-138950000D03*
X124030000Y-138950000D03*
D12*
X118950000Y-138950000D03*
G36*
G01*
X113191000Y-135160000D02*
X113191000Y-137660000D01*
G75*
G02*
X113140000Y-137711000I-51000J0D01*
G01*
X110590000Y-137711000D01*
G75*
G02*
X110539000Y-137660000I0J51000D01*
G01*
X110539000Y-135160000D01*
G75*
G02*
X110590000Y-135109000I51000J0D01*
G01*
X113140000Y-135109000D01*
G75*
G02*
X113191000Y-135160000I0J-51000D01*
G01*
G37*
D10*
X102440000Y-133870000D03*
X96090000Y-136410000D03*
G36*
G01*
X107068000Y-132620000D02*
X107068000Y-135120000D01*
G75*
G02*
X107017000Y-135171000I-51000J0D01*
G01*
X104467000Y-135171000D01*
G75*
G02*
X104416000Y-135120000I0J51000D01*
G01*
X104416000Y-132620000D01*
G75*
G02*
X104467000Y-132569000I51000J0D01*
G01*
X107017000Y-132569000D01*
G75*
G02*
X107068000Y-132620000I0J-51000D01*
G01*
G37*
D11*
X94820000Y-138950000D03*
X104980000Y-138950000D03*
D12*
X99900000Y-138950000D03*
G36*
G01*
X94141000Y-135160000D02*
X94141000Y-137660000D01*
G75*
G02*
X94090000Y-137711000I-51000J0D01*
G01*
X91540000Y-137711000D01*
G75*
G02*
X91489000Y-137660000I0J51000D01*
G01*
X91489000Y-135160000D01*
G75*
G02*
X91540000Y-135109000I51000J0D01*
G01*
X94090000Y-135109000D01*
G75*
G02*
X94141000Y-135160000I0J-51000D01*
G01*
G37*
D10*
X140540000Y-114820000D03*
X134190000Y-117360000D03*
G36*
G01*
X145168000Y-113570000D02*
X145168000Y-116070000D01*
G75*
G02*
X145117000Y-116121000I-51000J0D01*
G01*
X142567000Y-116121000D01*
G75*
G02*
X142516000Y-116070000I0J51000D01*
G01*
X142516000Y-113570000D01*
G75*
G02*
X142567000Y-113519000I51000J0D01*
G01*
X145117000Y-113519000D01*
G75*
G02*
X145168000Y-113570000I0J-51000D01*
G01*
G37*
D11*
X132920000Y-119900000D03*
X143080000Y-119900000D03*
D12*
X138000000Y-119900000D03*
G36*
G01*
X132241000Y-116110000D02*
X132241000Y-118610000D01*
G75*
G02*
X132190000Y-118661000I-51000J0D01*
G01*
X129640000Y-118661000D01*
G75*
G02*
X129589000Y-118610000I0J51000D01*
G01*
X129589000Y-116110000D01*
G75*
G02*
X129640000Y-116059000I51000J0D01*
G01*
X132190000Y-116059000D01*
G75*
G02*
X132241000Y-116110000I0J-51000D01*
G01*
G37*
D10*
X121490000Y-114820000D03*
X115140000Y-117360000D03*
G36*
G01*
X126118000Y-113570000D02*
X126118000Y-116070000D01*
G75*
G02*
X126067000Y-116121000I-51000J0D01*
G01*
X123517000Y-116121000D01*
G75*
G02*
X123466000Y-116070000I0J51000D01*
G01*
X123466000Y-113570000D01*
G75*
G02*
X123517000Y-113519000I51000J0D01*
G01*
X126067000Y-113519000D01*
G75*
G02*
X126118000Y-113570000I0J-51000D01*
G01*
G37*
D11*
X113870000Y-119900000D03*
X124030000Y-119900000D03*
D12*
X118950000Y-119900000D03*
G36*
G01*
X113191000Y-116110000D02*
X113191000Y-118610000D01*
G75*
G02*
X113140000Y-118661000I-51000J0D01*
G01*
X110590000Y-118661000D01*
G75*
G02*
X110539000Y-118610000I0J51000D01*
G01*
X110539000Y-116110000D01*
G75*
G02*
X110590000Y-116059000I51000J0D01*
G01*
X113140000Y-116059000D01*
G75*
G02*
X113191000Y-116110000I0J-51000D01*
G01*
G37*
D10*
X102440000Y-114820000D03*
X96090000Y-117360000D03*
G36*
G01*
X107068000Y-113570000D02*
X107068000Y-116070000D01*
G75*
G02*
X107017000Y-116121000I-51000J0D01*
G01*
X104467000Y-116121000D01*
G75*
G02*
X104416000Y-116070000I0J51000D01*
G01*
X104416000Y-113570000D01*
G75*
G02*
X104467000Y-113519000I51000J0D01*
G01*
X107017000Y-113519000D01*
G75*
G02*
X107068000Y-113570000I0J-51000D01*
G01*
G37*
D11*
X94820000Y-119900000D03*
X104980000Y-119900000D03*
D12*
X99900000Y-119900000D03*
G36*
G01*
X94141000Y-116110000D02*
X94141000Y-118610000D01*
G75*
G02*
X94090000Y-118661000I-51000J0D01*
G01*
X91540000Y-118661000D01*
G75*
G02*
X91489000Y-118610000I0J51000D01*
G01*
X91489000Y-116110000D01*
G75*
G02*
X91540000Y-116059000I51000J0D01*
G01*
X94090000Y-116059000D01*
G75*
G02*
X94141000Y-116110000I0J-51000D01*
G01*
G37*
D10*
X83390000Y-114820000D03*
X77040000Y-117360000D03*
G36*
G01*
X88018000Y-113570000D02*
X88018000Y-116070000D01*
G75*
G02*
X87967000Y-116121000I-51000J0D01*
G01*
X85417000Y-116121000D01*
G75*
G02*
X85366000Y-116070000I0J51000D01*
G01*
X85366000Y-113570000D01*
G75*
G02*
X85417000Y-113519000I51000J0D01*
G01*
X87967000Y-113519000D01*
G75*
G02*
X88018000Y-113570000I0J-51000D01*
G01*
G37*
D11*
X75770000Y-119900000D03*
X85930000Y-119900000D03*
D12*
X80850000Y-119900000D03*
G36*
G01*
X75091000Y-116110000D02*
X75091000Y-118610000D01*
G75*
G02*
X75040000Y-118661000I-51000J0D01*
G01*
X72490000Y-118661000D01*
G75*
G02*
X72439000Y-118610000I0J51000D01*
G01*
X72439000Y-116110000D01*
G75*
G02*
X72490000Y-116059000I51000J0D01*
G01*
X75040000Y-116059000D01*
G75*
G02*
X75091000Y-116110000I0J-51000D01*
G01*
G37*
D10*
X64340000Y-114820000D03*
X57990000Y-117360000D03*
G36*
G01*
X68968000Y-113570000D02*
X68968000Y-116070000D01*
G75*
G02*
X68917000Y-116121000I-51000J0D01*
G01*
X66367000Y-116121000D01*
G75*
G02*
X66316000Y-116070000I0J51000D01*
G01*
X66316000Y-113570000D01*
G75*
G02*
X66367000Y-113519000I51000J0D01*
G01*
X68917000Y-113519000D01*
G75*
G02*
X68968000Y-113570000I0J-51000D01*
G01*
G37*
D11*
X56720000Y-119900000D03*
X66880000Y-119900000D03*
D12*
X61800000Y-119900000D03*
G36*
G01*
X56041000Y-116110000D02*
X56041000Y-118610000D01*
G75*
G02*
X55990000Y-118661000I-51000J0D01*
G01*
X53440000Y-118661000D01*
G75*
G02*
X53389000Y-118610000I0J51000D01*
G01*
X53389000Y-116110000D01*
G75*
G02*
X53440000Y-116059000I51000J0D01*
G01*
X55990000Y-116059000D01*
G75*
G02*
X56041000Y-116110000I0J-51000D01*
G01*
G37*
D10*
X140540000Y-95770000D03*
X134190000Y-98310000D03*
G36*
G01*
X145168000Y-94520000D02*
X145168000Y-97020000D01*
G75*
G02*
X145117000Y-97071000I-51000J0D01*
G01*
X142567000Y-97071000D01*
G75*
G02*
X142516000Y-97020000I0J51000D01*
G01*
X142516000Y-94520000D01*
G75*
G02*
X142567000Y-94469000I51000J0D01*
G01*
X145117000Y-94469000D01*
G75*
G02*
X145168000Y-94520000I0J-51000D01*
G01*
G37*
D11*
X132920000Y-100850000D03*
X143080000Y-100850000D03*
D12*
X138000000Y-100850000D03*
G36*
G01*
X132241000Y-97060000D02*
X132241000Y-99560000D01*
G75*
G02*
X132190000Y-99611000I-51000J0D01*
G01*
X129640000Y-99611000D01*
G75*
G02*
X129589000Y-99560000I0J51000D01*
G01*
X129589000Y-97060000D01*
G75*
G02*
X129640000Y-97009000I51000J0D01*
G01*
X132190000Y-97009000D01*
G75*
G02*
X132241000Y-97060000I0J-51000D01*
G01*
G37*
D10*
X121490000Y-95770000D03*
X115140000Y-98310000D03*
G36*
G01*
X126118000Y-94520000D02*
X126118000Y-97020000D01*
G75*
G02*
X126067000Y-97071000I-51000J0D01*
G01*
X123517000Y-97071000D01*
G75*
G02*
X123466000Y-97020000I0J51000D01*
G01*
X123466000Y-94520000D01*
G75*
G02*
X123517000Y-94469000I51000J0D01*
G01*
X126067000Y-94469000D01*
G75*
G02*
X126118000Y-94520000I0J-51000D01*
G01*
G37*
D11*
X113870000Y-100850000D03*
X124030000Y-100850000D03*
D12*
X118950000Y-100850000D03*
G36*
G01*
X113191000Y-97060000D02*
X113191000Y-99560000D01*
G75*
G02*
X113140000Y-99611000I-51000J0D01*
G01*
X110590000Y-99611000D01*
G75*
G02*
X110539000Y-99560000I0J51000D01*
G01*
X110539000Y-97060000D01*
G75*
G02*
X110590000Y-97009000I51000J0D01*
G01*
X113140000Y-97009000D01*
G75*
G02*
X113191000Y-97060000I0J-51000D01*
G01*
G37*
D10*
X102440000Y-95770000D03*
X96090000Y-98310000D03*
G36*
G01*
X107068000Y-94520000D02*
X107068000Y-97020000D01*
G75*
G02*
X107017000Y-97071000I-51000J0D01*
G01*
X104467000Y-97071000D01*
G75*
G02*
X104416000Y-97020000I0J51000D01*
G01*
X104416000Y-94520000D01*
G75*
G02*
X104467000Y-94469000I51000J0D01*
G01*
X107017000Y-94469000D01*
G75*
G02*
X107068000Y-94520000I0J-51000D01*
G01*
G37*
D11*
X94820000Y-100850000D03*
X104980000Y-100850000D03*
D12*
X99900000Y-100850000D03*
G36*
G01*
X94141000Y-97060000D02*
X94141000Y-99560000D01*
G75*
G02*
X94090000Y-99611000I-51000J0D01*
G01*
X91540000Y-99611000D01*
G75*
G02*
X91489000Y-99560000I0J51000D01*
G01*
X91489000Y-97060000D01*
G75*
G02*
X91540000Y-97009000I51000J0D01*
G01*
X94090000Y-97009000D01*
G75*
G02*
X94141000Y-97060000I0J-51000D01*
G01*
G37*
D10*
X83390000Y-95770000D03*
X77040000Y-98310000D03*
G36*
G01*
X88018000Y-94520000D02*
X88018000Y-97020000D01*
G75*
G02*
X87967000Y-97071000I-51000J0D01*
G01*
X85417000Y-97071000D01*
G75*
G02*
X85366000Y-97020000I0J51000D01*
G01*
X85366000Y-94520000D01*
G75*
G02*
X85417000Y-94469000I51000J0D01*
G01*
X87967000Y-94469000D01*
G75*
G02*
X88018000Y-94520000I0J-51000D01*
G01*
G37*
D11*
X75770000Y-100850000D03*
X85930000Y-100850000D03*
D12*
X80850000Y-100850000D03*
G36*
G01*
X75091000Y-97060000D02*
X75091000Y-99560000D01*
G75*
G02*
X75040000Y-99611000I-51000J0D01*
G01*
X72490000Y-99611000D01*
G75*
G02*
X72439000Y-99560000I0J51000D01*
G01*
X72439000Y-97060000D01*
G75*
G02*
X72490000Y-97009000I51000J0D01*
G01*
X75040000Y-97009000D01*
G75*
G02*
X75091000Y-97060000I0J-51000D01*
G01*
G37*
D10*
X64340000Y-95770000D03*
X57990000Y-98310000D03*
G36*
G01*
X68968000Y-94520000D02*
X68968000Y-97020000D01*
G75*
G02*
X68917000Y-97071000I-51000J0D01*
G01*
X66367000Y-97071000D01*
G75*
G02*
X66316000Y-97020000I0J51000D01*
G01*
X66316000Y-94520000D01*
G75*
G02*
X66367000Y-94469000I51000J0D01*
G01*
X68917000Y-94469000D01*
G75*
G02*
X68968000Y-94520000I0J-51000D01*
G01*
G37*
D11*
X56720000Y-100850000D03*
X66880000Y-100850000D03*
D12*
X61800000Y-100850000D03*
G36*
G01*
X56041000Y-97060000D02*
X56041000Y-99560000D01*
G75*
G02*
X55990000Y-99611000I-51000J0D01*
G01*
X53440000Y-99611000D01*
G75*
G02*
X53389000Y-99560000I0J51000D01*
G01*
X53389000Y-97060000D01*
G75*
G02*
X53440000Y-97009000I51000J0D01*
G01*
X55990000Y-97009000D01*
G75*
G02*
X56041000Y-97060000I0J-51000D01*
G01*
G37*
D10*
X140540000Y-76720000D03*
X134190000Y-79260000D03*
G36*
G01*
X145168000Y-75470000D02*
X145168000Y-77970000D01*
G75*
G02*
X145117000Y-78021000I-51000J0D01*
G01*
X142567000Y-78021000D01*
G75*
G02*
X142516000Y-77970000I0J51000D01*
G01*
X142516000Y-75470000D01*
G75*
G02*
X142567000Y-75419000I51000J0D01*
G01*
X145117000Y-75419000D01*
G75*
G02*
X145168000Y-75470000I0J-51000D01*
G01*
G37*
D11*
X132920000Y-81800000D03*
X143080000Y-81800000D03*
D12*
X138000000Y-81800000D03*
G36*
G01*
X132241000Y-78010000D02*
X132241000Y-80510000D01*
G75*
G02*
X132190000Y-80561000I-51000J0D01*
G01*
X129640000Y-80561000D01*
G75*
G02*
X129589000Y-80510000I0J51000D01*
G01*
X129589000Y-78010000D01*
G75*
G02*
X129640000Y-77959000I51000J0D01*
G01*
X132190000Y-77959000D01*
G75*
G02*
X132241000Y-78010000I0J-51000D01*
G01*
G37*
D10*
X121490000Y-76720000D03*
X115140000Y-79260000D03*
G36*
G01*
X126118000Y-75470000D02*
X126118000Y-77970000D01*
G75*
G02*
X126067000Y-78021000I-51000J0D01*
G01*
X123517000Y-78021000D01*
G75*
G02*
X123466000Y-77970000I0J51000D01*
G01*
X123466000Y-75470000D01*
G75*
G02*
X123517000Y-75419000I51000J0D01*
G01*
X126067000Y-75419000D01*
G75*
G02*
X126118000Y-75470000I0J-51000D01*
G01*
G37*
D11*
X113870000Y-81800000D03*
X124030000Y-81800000D03*
D12*
X118950000Y-81800000D03*
G36*
G01*
X113191000Y-78010000D02*
X113191000Y-80510000D01*
G75*
G02*
X113140000Y-80561000I-51000J0D01*
G01*
X110590000Y-80561000D01*
G75*
G02*
X110539000Y-80510000I0J51000D01*
G01*
X110539000Y-78010000D01*
G75*
G02*
X110590000Y-77959000I51000J0D01*
G01*
X113140000Y-77959000D01*
G75*
G02*
X113191000Y-78010000I0J-51000D01*
G01*
G37*
D10*
X102440000Y-76720000D03*
X96090000Y-79260000D03*
G36*
G01*
X107068000Y-75470000D02*
X107068000Y-77970000D01*
G75*
G02*
X107017000Y-78021000I-51000J0D01*
G01*
X104467000Y-78021000D01*
G75*
G02*
X104416000Y-77970000I0J51000D01*
G01*
X104416000Y-75470000D01*
G75*
G02*
X104467000Y-75419000I51000J0D01*
G01*
X107017000Y-75419000D01*
G75*
G02*
X107068000Y-75470000I0J-51000D01*
G01*
G37*
D11*
X94820000Y-81800000D03*
X104980000Y-81800000D03*
D12*
X99900000Y-81800000D03*
G36*
G01*
X94141000Y-78010000D02*
X94141000Y-80510000D01*
G75*
G02*
X94090000Y-80561000I-51000J0D01*
G01*
X91540000Y-80561000D01*
G75*
G02*
X91489000Y-80510000I0J51000D01*
G01*
X91489000Y-78010000D01*
G75*
G02*
X91540000Y-77959000I51000J0D01*
G01*
X94090000Y-77959000D01*
G75*
G02*
X94141000Y-78010000I0J-51000D01*
G01*
G37*
D10*
X83390000Y-76720000D03*
X77040000Y-79260000D03*
G36*
G01*
X88018000Y-75470000D02*
X88018000Y-77970000D01*
G75*
G02*
X87967000Y-78021000I-51000J0D01*
G01*
X85417000Y-78021000D01*
G75*
G02*
X85366000Y-77970000I0J51000D01*
G01*
X85366000Y-75470000D01*
G75*
G02*
X85417000Y-75419000I51000J0D01*
G01*
X87967000Y-75419000D01*
G75*
G02*
X88018000Y-75470000I0J-51000D01*
G01*
G37*
D11*
X75770000Y-81800000D03*
X85930000Y-81800000D03*
D12*
X80850000Y-81800000D03*
G36*
G01*
X75091000Y-78010000D02*
X75091000Y-80510000D01*
G75*
G02*
X75040000Y-80561000I-51000J0D01*
G01*
X72490000Y-80561000D01*
G75*
G02*
X72439000Y-80510000I0J51000D01*
G01*
X72439000Y-78010000D01*
G75*
G02*
X72490000Y-77959000I51000J0D01*
G01*
X75040000Y-77959000D01*
G75*
G02*
X75091000Y-78010000I0J-51000D01*
G01*
G37*
D10*
X64340000Y-76720000D03*
X57990000Y-79260000D03*
G36*
G01*
X68968000Y-75470000D02*
X68968000Y-77970000D01*
G75*
G02*
X68917000Y-78021000I-51000J0D01*
G01*
X66367000Y-78021000D01*
G75*
G02*
X66316000Y-77970000I0J51000D01*
G01*
X66316000Y-75470000D01*
G75*
G02*
X66367000Y-75419000I51000J0D01*
G01*
X68917000Y-75419000D01*
G75*
G02*
X68968000Y-75470000I0J-51000D01*
G01*
G37*
D11*
X56720000Y-81800000D03*
X66880000Y-81800000D03*
D12*
X61800000Y-81800000D03*
G36*
G01*
X56041000Y-78010000D02*
X56041000Y-80510000D01*
G75*
G02*
X55990000Y-80561000I-51000J0D01*
G01*
X53440000Y-80561000D01*
G75*
G02*
X53389000Y-80510000I0J51000D01*
G01*
X53389000Y-78010000D01*
G75*
G02*
X53440000Y-77959000I51000J0D01*
G01*
X55990000Y-77959000D01*
G75*
G02*
X56041000Y-78010000I0J-51000D01*
G01*
G37*
D13*
X211800000Y-54070000D03*
X231080000Y-127440000D03*
X173930000Y-91340000D03*
X173930000Y-127440000D03*
X128440000Y-91340000D03*
X128570000Y-127440000D03*
X71320000Y-127440000D03*
X71320000Y-91340000D03*
D14*
X152150000Y-78520000D03*
X152140000Y-85120000D03*
X152140000Y-79345000D03*
X152140000Y-81820000D03*
X152140000Y-82645000D03*
X152140000Y-83470000D03*
X152140000Y-84295000D03*
X152140000Y-80995000D03*
X152140000Y-80170000D03*
X150240000Y-78520000D03*
X150230000Y-85120000D03*
X150230000Y-79345000D03*
X150230000Y-81820000D03*
X150230000Y-82645000D03*
X150230000Y-83470000D03*
X150230000Y-84295000D03*
X150230000Y-80995000D03*
X150230000Y-80170000D03*
X150240000Y-116600000D03*
X150230000Y-123200000D03*
X150230000Y-117425000D03*
X150230000Y-119900000D03*
X150230000Y-120725000D03*
X150230000Y-121550000D03*
X150230000Y-122375000D03*
X150230000Y-119075000D03*
X150230000Y-118250000D03*
X152150000Y-116600000D03*
X152140000Y-123200000D03*
X152140000Y-117425000D03*
X152140000Y-119900000D03*
X152140000Y-120725000D03*
X152140000Y-121550000D03*
X152140000Y-122375000D03*
X152140000Y-119075000D03*
X152140000Y-118250000D03*
D15*
X127850000Y-66970000D03*
X127850000Y-52420000D03*
X87760000Y-68190000D03*
D16*
X144380000Y-66660000D03*
X143110000Y-69200000D03*
X141840000Y-66660000D03*
X140570000Y-69200000D03*
X139300000Y-66660000D03*
X138030000Y-69200000D03*
X136760000Y-66660000D03*
X135490000Y-69200000D03*
D17*
X145650000Y-60310000D03*
X134220000Y-60310000D03*
D18*
X231080000Y-91340000D03*
D16*
X166920000Y-66660000D03*
X165650000Y-69200000D03*
X164380000Y-66660000D03*
X163110000Y-69200000D03*
X161840000Y-66660000D03*
X160570000Y-69200000D03*
X159300000Y-66660000D03*
X158030000Y-69200000D03*
D17*
X168190000Y-60310000D03*
X156760000Y-60310000D03*
D19*
X127860000Y-56440000D03*
X127860000Y-62940000D03*
D20*
X94162000Y-66548600D03*
X96702000Y-66548600D03*
X99242000Y-66548600D03*
X101782000Y-66548600D03*
X104322000Y-66548600D03*
X106862000Y-66548600D03*
X109402000Y-66548600D03*
X111942000Y-66548600D03*
X114482000Y-66548600D03*
X117022000Y-66548600D03*
X119562000Y-66548600D03*
X122102000Y-66548600D03*
X122102000Y-51328600D03*
X119562000Y-51328600D03*
X117022000Y-51328600D03*
X114482000Y-51328600D03*
X111942000Y-51328600D03*
X109402000Y-51328600D03*
X106862000Y-51328600D03*
X104322000Y-51328600D03*
X101782000Y-51328600D03*
X99242000Y-51328600D03*
X96702000Y-51328600D03*
X94162000Y-51328600D03*
G36*
G01*
X69545000Y-81244000D02*
X70495000Y-81244000D01*
G75*
G02*
X70546000Y-81295000I0J-51000D01*
G01*
X70546000Y-82595000D01*
G75*
G02*
X70495000Y-82646000I-51000J0D01*
G01*
X69545000Y-82646000D01*
G75*
G02*
X69494000Y-82595000I0J51000D01*
G01*
X69494000Y-81295000D01*
G75*
G02*
X69545000Y-81244000I51000J0D01*
G01*
G37*
G36*
G01*
X69321499Y-79160500D02*
X70718501Y-79160500D01*
G75*
G02*
X70769500Y-79211499I0J-50999D01*
G01*
X70769500Y-80608501D01*
G75*
G02*
X70718501Y-80659500I-50999J0D01*
G01*
X69321499Y-80659500D01*
G75*
G02*
X69270500Y-80608501I0J50999D01*
G01*
X69270500Y-79211499D01*
G75*
G02*
X69321499Y-79160500I50999J0D01*
G01*
G37*
D21*
X70020000Y-87530000D03*
G36*
G01*
X69545000Y-84794000D02*
X70495000Y-84794000D01*
G75*
G02*
X70546000Y-84845000I0J-51000D01*
G01*
X70546000Y-86145000D01*
G75*
G02*
X70495000Y-86196000I-51000J0D01*
G01*
X69545000Y-86196000D01*
G75*
G02*
X69494000Y-86145000I0J51000D01*
G01*
X69494000Y-84845000D01*
G75*
G02*
X69545000Y-84794000I51000J0D01*
G01*
G37*
G36*
G01*
X88595000Y-84794000D02*
X89545000Y-84794000D01*
G75*
G02*
X89596000Y-84845000I0J-51000D01*
G01*
X89596000Y-86145000D01*
G75*
G02*
X89545000Y-86196000I-51000J0D01*
G01*
X88595000Y-86196000D01*
G75*
G02*
X88544000Y-86145000I0J51000D01*
G01*
X88544000Y-84845000D01*
G75*
G02*
X88595000Y-84794000I51000J0D01*
G01*
G37*
X89070000Y-87530000D03*
G36*
G01*
X88371499Y-79160500D02*
X89768501Y-79160500D01*
G75*
G02*
X89819500Y-79211499I0J-50999D01*
G01*
X89819500Y-80608501D01*
G75*
G02*
X89768501Y-80659500I-50999J0D01*
G01*
X88371499Y-80659500D01*
G75*
G02*
X88320500Y-80608501I0J50999D01*
G01*
X88320500Y-79211499D01*
G75*
G02*
X88371499Y-79160500I50999J0D01*
G01*
G37*
G36*
G01*
X88595000Y-81244000D02*
X89545000Y-81244000D01*
G75*
G02*
X89596000Y-81295000I0J-51000D01*
G01*
X89596000Y-82595000D01*
G75*
G02*
X89545000Y-82646000I-51000J0D01*
G01*
X88595000Y-82646000D01*
G75*
G02*
X88544000Y-82595000I0J51000D01*
G01*
X88544000Y-81295000D01*
G75*
G02*
X88595000Y-81244000I51000J0D01*
G01*
G37*
G36*
G01*
X107645000Y-81244000D02*
X108595000Y-81244000D01*
G75*
G02*
X108646000Y-81295000I0J-51000D01*
G01*
X108646000Y-82595000D01*
G75*
G02*
X108595000Y-82646000I-51000J0D01*
G01*
X107645000Y-82646000D01*
G75*
G02*
X107594000Y-82595000I0J51000D01*
G01*
X107594000Y-81295000D01*
G75*
G02*
X107645000Y-81244000I51000J0D01*
G01*
G37*
G36*
G01*
X107421499Y-79160500D02*
X108818501Y-79160500D01*
G75*
G02*
X108869500Y-79211499I0J-50999D01*
G01*
X108869500Y-80608501D01*
G75*
G02*
X108818501Y-80659500I-50999J0D01*
G01*
X107421499Y-80659500D01*
G75*
G02*
X107370500Y-80608501I0J50999D01*
G01*
X107370500Y-79211499D01*
G75*
G02*
X107421499Y-79160500I50999J0D01*
G01*
G37*
X108120000Y-87530000D03*
G36*
G01*
X107645000Y-84794000D02*
X108595000Y-84794000D01*
G75*
G02*
X108646000Y-84845000I0J-51000D01*
G01*
X108646000Y-86145000D01*
G75*
G02*
X108595000Y-86196000I-51000J0D01*
G01*
X107645000Y-86196000D01*
G75*
G02*
X107594000Y-86145000I0J51000D01*
G01*
X107594000Y-84845000D01*
G75*
G02*
X107645000Y-84794000I51000J0D01*
G01*
G37*
G36*
G01*
X126695000Y-84794000D02*
X127645000Y-84794000D01*
G75*
G02*
X127696000Y-84845000I0J-51000D01*
G01*
X127696000Y-86145000D01*
G75*
G02*
X127645000Y-86196000I-51000J0D01*
G01*
X126695000Y-86196000D01*
G75*
G02*
X126644000Y-86145000I0J51000D01*
G01*
X126644000Y-84845000D01*
G75*
G02*
X126695000Y-84794000I51000J0D01*
G01*
G37*
X127170000Y-87530000D03*
G36*
G01*
X126471499Y-79160500D02*
X127868501Y-79160500D01*
G75*
G02*
X127919500Y-79211499I0J-50999D01*
G01*
X127919500Y-80608501D01*
G75*
G02*
X127868501Y-80659500I-50999J0D01*
G01*
X126471499Y-80659500D01*
G75*
G02*
X126420500Y-80608501I0J50999D01*
G01*
X126420500Y-79211499D01*
G75*
G02*
X126471499Y-79160500I50999J0D01*
G01*
G37*
G36*
G01*
X126695000Y-81244000D02*
X127645000Y-81244000D01*
G75*
G02*
X127696000Y-81295000I0J-51000D01*
G01*
X127696000Y-82595000D01*
G75*
G02*
X127645000Y-82646000I-51000J0D01*
G01*
X126695000Y-82646000D01*
G75*
G02*
X126644000Y-82595000I0J51000D01*
G01*
X126644000Y-81295000D01*
G75*
G02*
X126695000Y-81244000I51000J0D01*
G01*
G37*
G36*
G01*
X145745000Y-84794000D02*
X146695000Y-84794000D01*
G75*
G02*
X146746000Y-84845000I0J-51000D01*
G01*
X146746000Y-86145000D01*
G75*
G02*
X146695000Y-86196000I-51000J0D01*
G01*
X145745000Y-86196000D01*
G75*
G02*
X145694000Y-86145000I0J51000D01*
G01*
X145694000Y-84845000D01*
G75*
G02*
X145745000Y-84794000I51000J0D01*
G01*
G37*
X146220000Y-87530000D03*
G36*
G01*
X145521499Y-79160500D02*
X146918501Y-79160500D01*
G75*
G02*
X146969500Y-79211499I0J-50999D01*
G01*
X146969500Y-80608501D01*
G75*
G02*
X146918501Y-80659500I-50999J0D01*
G01*
X145521499Y-80659500D01*
G75*
G02*
X145470500Y-80608501I0J50999D01*
G01*
X145470500Y-79211499D01*
G75*
G02*
X145521499Y-79160500I50999J0D01*
G01*
G37*
G36*
G01*
X145745000Y-81244000D02*
X146695000Y-81244000D01*
G75*
G02*
X146746000Y-81295000I0J-51000D01*
G01*
X146746000Y-82595000D01*
G75*
G02*
X146695000Y-82646000I-51000J0D01*
G01*
X145745000Y-82646000D01*
G75*
G02*
X145694000Y-82595000I0J51000D01*
G01*
X145694000Y-81295000D01*
G75*
G02*
X145745000Y-81244000I51000J0D01*
G01*
G37*
G36*
G01*
X69375000Y-103944000D02*
X70325000Y-103944000D01*
G75*
G02*
X70376000Y-103995000I0J-51000D01*
G01*
X70376000Y-105295000D01*
G75*
G02*
X70325000Y-105346000I-51000J0D01*
G01*
X69375000Y-105346000D01*
G75*
G02*
X69324000Y-105295000I0J51000D01*
G01*
X69324000Y-103995000D01*
G75*
G02*
X69375000Y-103944000I51000J0D01*
G01*
G37*
X69850000Y-106680000D03*
G36*
G01*
X69151499Y-98310500D02*
X70548501Y-98310500D01*
G75*
G02*
X70599500Y-98361499I0J-50999D01*
G01*
X70599500Y-99758501D01*
G75*
G02*
X70548501Y-99809500I-50999J0D01*
G01*
X69151499Y-99809500D01*
G75*
G02*
X69100500Y-99758501I0J50999D01*
G01*
X69100500Y-98361499D01*
G75*
G02*
X69151499Y-98310500I50999J0D01*
G01*
G37*
G36*
G01*
X69375000Y-100394000D02*
X70325000Y-100394000D01*
G75*
G02*
X70376000Y-100445000I0J-51000D01*
G01*
X70376000Y-101745000D01*
G75*
G02*
X70325000Y-101796000I-51000J0D01*
G01*
X69375000Y-101796000D01*
G75*
G02*
X69324000Y-101745000I0J51000D01*
G01*
X69324000Y-100445000D01*
G75*
G02*
X69375000Y-100394000I51000J0D01*
G01*
G37*
G36*
G01*
X88595000Y-103844000D02*
X89545000Y-103844000D01*
G75*
G02*
X89596000Y-103895000I0J-51000D01*
G01*
X89596000Y-105195000D01*
G75*
G02*
X89545000Y-105246000I-51000J0D01*
G01*
X88595000Y-105246000D01*
G75*
G02*
X88544000Y-105195000I0J51000D01*
G01*
X88544000Y-103895000D01*
G75*
G02*
X88595000Y-103844000I51000J0D01*
G01*
G37*
X89070000Y-106580000D03*
G36*
G01*
X88371499Y-98210500D02*
X89768501Y-98210500D01*
G75*
G02*
X89819500Y-98261499I0J-50999D01*
G01*
X89819500Y-99658501D01*
G75*
G02*
X89768501Y-99709500I-50999J0D01*
G01*
X88371499Y-99709500D01*
G75*
G02*
X88320500Y-99658501I0J50999D01*
G01*
X88320500Y-98261499D01*
G75*
G02*
X88371499Y-98210500I50999J0D01*
G01*
G37*
G36*
G01*
X88595000Y-100294000D02*
X89545000Y-100294000D01*
G75*
G02*
X89596000Y-100345000I0J-51000D01*
G01*
X89596000Y-101645000D01*
G75*
G02*
X89545000Y-101696000I-51000J0D01*
G01*
X88595000Y-101696000D01*
G75*
G02*
X88544000Y-101645000I0J51000D01*
G01*
X88544000Y-100345000D01*
G75*
G02*
X88595000Y-100294000I51000J0D01*
G01*
G37*
G36*
G01*
X107645000Y-103844000D02*
X108595000Y-103844000D01*
G75*
G02*
X108646000Y-103895000I0J-51000D01*
G01*
X108646000Y-105195000D01*
G75*
G02*
X108595000Y-105246000I-51000J0D01*
G01*
X107645000Y-105246000D01*
G75*
G02*
X107594000Y-105195000I0J51000D01*
G01*
X107594000Y-103895000D01*
G75*
G02*
X107645000Y-103844000I51000J0D01*
G01*
G37*
X108120000Y-106580000D03*
G36*
G01*
X107421499Y-98210500D02*
X108818501Y-98210500D01*
G75*
G02*
X108869500Y-98261499I0J-50999D01*
G01*
X108869500Y-99658501D01*
G75*
G02*
X108818501Y-99709500I-50999J0D01*
G01*
X107421499Y-99709500D01*
G75*
G02*
X107370500Y-99658501I0J50999D01*
G01*
X107370500Y-98261499D01*
G75*
G02*
X107421499Y-98210500I50999J0D01*
G01*
G37*
G36*
G01*
X107645000Y-100294000D02*
X108595000Y-100294000D01*
G75*
G02*
X108646000Y-100345000I0J-51000D01*
G01*
X108646000Y-101645000D01*
G75*
G02*
X108595000Y-101696000I-51000J0D01*
G01*
X107645000Y-101696000D01*
G75*
G02*
X107594000Y-101645000I0J51000D01*
G01*
X107594000Y-100345000D01*
G75*
G02*
X107645000Y-100294000I51000J0D01*
G01*
G37*
G36*
G01*
X126525000Y-103944000D02*
X127475000Y-103944000D01*
G75*
G02*
X127526000Y-103995000I0J-51000D01*
G01*
X127526000Y-105295000D01*
G75*
G02*
X127475000Y-105346000I-51000J0D01*
G01*
X126525000Y-105346000D01*
G75*
G02*
X126474000Y-105295000I0J51000D01*
G01*
X126474000Y-103995000D01*
G75*
G02*
X126525000Y-103944000I51000J0D01*
G01*
G37*
X127000000Y-106680000D03*
G36*
G01*
X126301499Y-98310500D02*
X127698501Y-98310500D01*
G75*
G02*
X127749500Y-98361499I0J-50999D01*
G01*
X127749500Y-99758501D01*
G75*
G02*
X127698501Y-99809500I-50999J0D01*
G01*
X126301499Y-99809500D01*
G75*
G02*
X126250500Y-99758501I0J50999D01*
G01*
X126250500Y-98361499D01*
G75*
G02*
X126301499Y-98310500I50999J0D01*
G01*
G37*
G36*
G01*
X126525000Y-100394000D02*
X127475000Y-100394000D01*
G75*
G02*
X127526000Y-100445000I0J-51000D01*
G01*
X127526000Y-101745000D01*
G75*
G02*
X127475000Y-101796000I-51000J0D01*
G01*
X126525000Y-101796000D01*
G75*
G02*
X126474000Y-101745000I0J51000D01*
G01*
X126474000Y-100445000D01*
G75*
G02*
X126525000Y-100394000I51000J0D01*
G01*
G37*
G36*
G01*
X145725000Y-103439000D02*
X146675000Y-103439000D01*
G75*
G02*
X146726000Y-103490000I0J-51000D01*
G01*
X146726000Y-104790000D01*
G75*
G02*
X146675000Y-104841000I-51000J0D01*
G01*
X145725000Y-104841000D01*
G75*
G02*
X145674000Y-104790000I0J51000D01*
G01*
X145674000Y-103490000D01*
G75*
G02*
X145725000Y-103439000I51000J0D01*
G01*
G37*
X146200000Y-106175000D03*
G36*
G01*
X145501499Y-97805500D02*
X146898501Y-97805500D01*
G75*
G02*
X146949500Y-97856499I0J-50999D01*
G01*
X146949500Y-99253501D01*
G75*
G02*
X146898501Y-99304500I-50999J0D01*
G01*
X145501499Y-99304500D01*
G75*
G02*
X145450500Y-99253501I0J50999D01*
G01*
X145450500Y-97856499D01*
G75*
G02*
X145501499Y-97805500I50999J0D01*
G01*
G37*
G36*
G01*
X145725000Y-99889000D02*
X146675000Y-99889000D01*
G75*
G02*
X146726000Y-99940000I0J-51000D01*
G01*
X146726000Y-101240000D01*
G75*
G02*
X146675000Y-101291000I-51000J0D01*
G01*
X145725000Y-101291000D01*
G75*
G02*
X145674000Y-101240000I0J51000D01*
G01*
X145674000Y-99940000D01*
G75*
G02*
X145725000Y-99889000I51000J0D01*
G01*
G37*
G36*
G01*
X63436000Y-123985000D02*
X63436000Y-124935000D01*
G75*
G02*
X63385000Y-124986000I-51000J0D01*
G01*
X62085000Y-124986000D01*
G75*
G02*
X62034000Y-124935000I0J51000D01*
G01*
X62034000Y-123985000D01*
G75*
G02*
X62085000Y-123934000I51000J0D01*
G01*
X63385000Y-123934000D01*
G75*
G02*
X63436000Y-123985000I0J-51000D01*
G01*
G37*
G36*
G01*
X65519500Y-123761499D02*
X65519500Y-125158501D01*
G75*
G02*
X65468501Y-125209500I-50999J0D01*
G01*
X64071499Y-125209500D01*
G75*
G02*
X64020500Y-125158501I0J50999D01*
G01*
X64020500Y-123761499D01*
G75*
G02*
X64071499Y-123710500I50999J0D01*
G01*
X65468501Y-123710500D01*
G75*
G02*
X65519500Y-123761499I0J-50999D01*
G01*
G37*
X57150000Y-124460000D03*
G36*
G01*
X59886000Y-123985000D02*
X59886000Y-124935000D01*
G75*
G02*
X59835000Y-124986000I-51000J0D01*
G01*
X58535000Y-124986000D01*
G75*
G02*
X58484000Y-124935000I0J51000D01*
G01*
X58484000Y-123985000D01*
G75*
G02*
X58535000Y-123934000I51000J0D01*
G01*
X59835000Y-123934000D01*
G75*
G02*
X59886000Y-123985000I0J-51000D01*
G01*
G37*
G36*
G01*
X88595000Y-119344000D02*
X89545000Y-119344000D01*
G75*
G02*
X89596000Y-119395000I0J-51000D01*
G01*
X89596000Y-120695000D01*
G75*
G02*
X89545000Y-120746000I-51000J0D01*
G01*
X88595000Y-120746000D01*
G75*
G02*
X88544000Y-120695000I0J51000D01*
G01*
X88544000Y-119395000D01*
G75*
G02*
X88595000Y-119344000I51000J0D01*
G01*
G37*
G36*
G01*
X88371499Y-117260500D02*
X89768501Y-117260500D01*
G75*
G02*
X89819500Y-117311499I0J-50999D01*
G01*
X89819500Y-118708501D01*
G75*
G02*
X89768501Y-118759500I-50999J0D01*
G01*
X88371499Y-118759500D01*
G75*
G02*
X88320500Y-118708501I0J50999D01*
G01*
X88320500Y-117311499D01*
G75*
G02*
X88371499Y-117260500I50999J0D01*
G01*
G37*
X89070000Y-125630000D03*
G36*
G01*
X88595000Y-122894000D02*
X89545000Y-122894000D01*
G75*
G02*
X89596000Y-122945000I0J-51000D01*
G01*
X89596000Y-124245000D01*
G75*
G02*
X89545000Y-124296000I-51000J0D01*
G01*
X88595000Y-124296000D01*
G75*
G02*
X88544000Y-124245000I0J51000D01*
G01*
X88544000Y-122945000D01*
G75*
G02*
X88595000Y-122894000I51000J0D01*
G01*
G37*
G36*
G01*
X107645000Y-119344000D02*
X108595000Y-119344000D01*
G75*
G02*
X108646000Y-119395000I0J-51000D01*
G01*
X108646000Y-120695000D01*
G75*
G02*
X108595000Y-120746000I-51000J0D01*
G01*
X107645000Y-120746000D01*
G75*
G02*
X107594000Y-120695000I0J51000D01*
G01*
X107594000Y-119395000D01*
G75*
G02*
X107645000Y-119344000I51000J0D01*
G01*
G37*
G36*
G01*
X107421499Y-117260500D02*
X108818501Y-117260500D01*
G75*
G02*
X108869500Y-117311499I0J-50999D01*
G01*
X108869500Y-118708501D01*
G75*
G02*
X108818501Y-118759500I-50999J0D01*
G01*
X107421499Y-118759500D01*
G75*
G02*
X107370500Y-118708501I0J50999D01*
G01*
X107370500Y-117311499D01*
G75*
G02*
X107421499Y-117260500I50999J0D01*
G01*
G37*
X108120000Y-125630000D03*
G36*
G01*
X107645000Y-122894000D02*
X108595000Y-122894000D01*
G75*
G02*
X108646000Y-122945000I0J-51000D01*
G01*
X108646000Y-124245000D01*
G75*
G02*
X108595000Y-124296000I-51000J0D01*
G01*
X107645000Y-124296000D01*
G75*
G02*
X107594000Y-124245000I0J51000D01*
G01*
X107594000Y-122945000D01*
G75*
G02*
X107645000Y-122894000I51000J0D01*
G01*
G37*
G36*
G01*
X121856000Y-123985000D02*
X121856000Y-124935000D01*
G75*
G02*
X121805000Y-124986000I-51000J0D01*
G01*
X120505000Y-124986000D01*
G75*
G02*
X120454000Y-124935000I0J51000D01*
G01*
X120454000Y-123985000D01*
G75*
G02*
X120505000Y-123934000I51000J0D01*
G01*
X121805000Y-123934000D01*
G75*
G02*
X121856000Y-123985000I0J-51000D01*
G01*
G37*
G36*
G01*
X123939500Y-123761499D02*
X123939500Y-125158501D01*
G75*
G02*
X123888501Y-125209500I-50999J0D01*
G01*
X122491499Y-125209500D01*
G75*
G02*
X122440500Y-125158501I0J50999D01*
G01*
X122440500Y-123761499D01*
G75*
G02*
X122491499Y-123710500I50999J0D01*
G01*
X123888501Y-123710500D01*
G75*
G02*
X123939500Y-123761499I0J-50999D01*
G01*
G37*
X115570000Y-124460000D03*
G36*
G01*
X118306000Y-123985000D02*
X118306000Y-124935000D01*
G75*
G02*
X118255000Y-124986000I-51000J0D01*
G01*
X116955000Y-124986000D01*
G75*
G02*
X116904000Y-124935000I0J51000D01*
G01*
X116904000Y-123985000D01*
G75*
G02*
X116955000Y-123934000I51000J0D01*
G01*
X118255000Y-123934000D01*
G75*
G02*
X118306000Y-123985000I0J-51000D01*
G01*
G37*
G36*
G01*
X145575000Y-119444000D02*
X146525000Y-119444000D01*
G75*
G02*
X146576000Y-119495000I0J-51000D01*
G01*
X146576000Y-120795000D01*
G75*
G02*
X146525000Y-120846000I-51000J0D01*
G01*
X145575000Y-120846000D01*
G75*
G02*
X145524000Y-120795000I0J51000D01*
G01*
X145524000Y-119495000D01*
G75*
G02*
X145575000Y-119444000I51000J0D01*
G01*
G37*
G36*
G01*
X145351499Y-117360500D02*
X146748501Y-117360500D01*
G75*
G02*
X146799500Y-117411499I0J-50999D01*
G01*
X146799500Y-118808501D01*
G75*
G02*
X146748501Y-118859500I-50999J0D01*
G01*
X145351499Y-118859500D01*
G75*
G02*
X145300500Y-118808501I0J50999D01*
G01*
X145300500Y-117411499D01*
G75*
G02*
X145351499Y-117360500I50999J0D01*
G01*
G37*
X146050000Y-125730000D03*
G36*
G01*
X145575000Y-122994000D02*
X146525000Y-122994000D01*
G75*
G02*
X146576000Y-123045000I0J-51000D01*
G01*
X146576000Y-124345000D01*
G75*
G02*
X146525000Y-124396000I-51000J0D01*
G01*
X145575000Y-124396000D01*
G75*
G02*
X145524000Y-124345000I0J51000D01*
G01*
X145524000Y-123045000D01*
G75*
G02*
X145575000Y-122994000I51000J0D01*
G01*
G37*
G36*
G01*
X88425000Y-138494000D02*
X89375000Y-138494000D01*
G75*
G02*
X89426000Y-138545000I0J-51000D01*
G01*
X89426000Y-139845000D01*
G75*
G02*
X89375000Y-139896000I-51000J0D01*
G01*
X88425000Y-139896000D01*
G75*
G02*
X88374000Y-139845000I0J51000D01*
G01*
X88374000Y-138545000D01*
G75*
G02*
X88425000Y-138494000I51000J0D01*
G01*
G37*
G36*
G01*
X88201499Y-136410500D02*
X89598501Y-136410500D01*
G75*
G02*
X89649500Y-136461499I0J-50999D01*
G01*
X89649500Y-137858501D01*
G75*
G02*
X89598501Y-137909500I-50999J0D01*
G01*
X88201499Y-137909500D01*
G75*
G02*
X88150500Y-137858501I0J50999D01*
G01*
X88150500Y-136461499D01*
G75*
G02*
X88201499Y-136410500I50999J0D01*
G01*
G37*
X88900000Y-144780000D03*
G36*
G01*
X88425000Y-142044000D02*
X89375000Y-142044000D01*
G75*
G02*
X89426000Y-142095000I0J-51000D01*
G01*
X89426000Y-143395000D01*
G75*
G02*
X89375000Y-143446000I-51000J0D01*
G01*
X88425000Y-143446000D01*
G75*
G02*
X88374000Y-143395000I0J51000D01*
G01*
X88374000Y-142095000D01*
G75*
G02*
X88425000Y-142044000I51000J0D01*
G01*
G37*
G36*
G01*
X107475000Y-138494000D02*
X108425000Y-138494000D01*
G75*
G02*
X108476000Y-138545000I0J-51000D01*
G01*
X108476000Y-139845000D01*
G75*
G02*
X108425000Y-139896000I-51000J0D01*
G01*
X107475000Y-139896000D01*
G75*
G02*
X107424000Y-139845000I0J51000D01*
G01*
X107424000Y-138545000D01*
G75*
G02*
X107475000Y-138494000I51000J0D01*
G01*
G37*
G36*
G01*
X107251499Y-136410500D02*
X108648501Y-136410500D01*
G75*
G02*
X108699500Y-136461499I0J-50999D01*
G01*
X108699500Y-137858501D01*
G75*
G02*
X108648501Y-137909500I-50999J0D01*
G01*
X107251499Y-137909500D01*
G75*
G02*
X107200500Y-137858501I0J50999D01*
G01*
X107200500Y-136461499D01*
G75*
G02*
X107251499Y-136410500I50999J0D01*
G01*
G37*
X107950000Y-144780000D03*
G36*
G01*
X107475000Y-142044000D02*
X108425000Y-142044000D01*
G75*
G02*
X108476000Y-142095000I0J-51000D01*
G01*
X108476000Y-143395000D01*
G75*
G02*
X108425000Y-143446000I-51000J0D01*
G01*
X107475000Y-143446000D01*
G75*
G02*
X107424000Y-143395000I0J51000D01*
G01*
X107424000Y-142095000D01*
G75*
G02*
X107475000Y-142044000I51000J0D01*
G01*
G37*
G36*
G01*
X147015000Y-141539000D02*
X147965000Y-141539000D01*
G75*
G02*
X148016000Y-141590000I0J-51000D01*
G01*
X148016000Y-142890000D01*
G75*
G02*
X147965000Y-142941000I-51000J0D01*
G01*
X147015000Y-142941000D01*
G75*
G02*
X146964000Y-142890000I0J51000D01*
G01*
X146964000Y-141590000D01*
G75*
G02*
X147015000Y-141539000I51000J0D01*
G01*
G37*
X147490000Y-144275000D03*
G36*
G01*
X146791499Y-135905500D02*
X148188501Y-135905500D01*
G75*
G02*
X148239500Y-135956499I0J-50999D01*
G01*
X148239500Y-137353501D01*
G75*
G02*
X148188501Y-137404500I-50999J0D01*
G01*
X146791499Y-137404500D01*
G75*
G02*
X146740500Y-137353501I0J50999D01*
G01*
X146740500Y-135956499D01*
G75*
G02*
X146791499Y-135905500I50999J0D01*
G01*
G37*
G36*
G01*
X147015000Y-137989000D02*
X147965000Y-137989000D01*
G75*
G02*
X148016000Y-138040000I0J-51000D01*
G01*
X148016000Y-139340000D01*
G75*
G02*
X147965000Y-139391000I-51000J0D01*
G01*
X147015000Y-139391000D01*
G75*
G02*
X146964000Y-139340000I0J51000D01*
G01*
X146964000Y-138040000D01*
G75*
G02*
X147015000Y-137989000I51000J0D01*
G01*
G37*
G36*
G01*
X172235000Y-81244000D02*
X173185000Y-81244000D01*
G75*
G02*
X173236000Y-81295000I0J-51000D01*
G01*
X173236000Y-82595000D01*
G75*
G02*
X173185000Y-82646000I-51000J0D01*
G01*
X172235000Y-82646000D01*
G75*
G02*
X172184000Y-82595000I0J51000D01*
G01*
X172184000Y-81295000D01*
G75*
G02*
X172235000Y-81244000I51000J0D01*
G01*
G37*
G36*
G01*
X172011499Y-79160500D02*
X173408501Y-79160500D01*
G75*
G02*
X173459500Y-79211499I0J-50999D01*
G01*
X173459500Y-80608501D01*
G75*
G02*
X173408501Y-80659500I-50999J0D01*
G01*
X172011499Y-80659500D01*
G75*
G02*
X171960500Y-80608501I0J50999D01*
G01*
X171960500Y-79211499D01*
G75*
G02*
X172011499Y-79160500I50999J0D01*
G01*
G37*
X172710000Y-87530000D03*
G36*
G01*
X172235000Y-84794000D02*
X173185000Y-84794000D01*
G75*
G02*
X173236000Y-84845000I0J-51000D01*
G01*
X173236000Y-86145000D01*
G75*
G02*
X173185000Y-86196000I-51000J0D01*
G01*
X172235000Y-86196000D01*
G75*
G02*
X172184000Y-86145000I0J51000D01*
G01*
X172184000Y-84845000D01*
G75*
G02*
X172235000Y-84794000I51000J0D01*
G01*
G37*
G36*
G01*
X191285000Y-84794000D02*
X192235000Y-84794000D01*
G75*
G02*
X192286000Y-84845000I0J-51000D01*
G01*
X192286000Y-86145000D01*
G75*
G02*
X192235000Y-86196000I-51000J0D01*
G01*
X191285000Y-86196000D01*
G75*
G02*
X191234000Y-86145000I0J51000D01*
G01*
X191234000Y-84845000D01*
G75*
G02*
X191285000Y-84794000I51000J0D01*
G01*
G37*
X191760000Y-87530000D03*
G36*
G01*
X191061499Y-79160500D02*
X192458501Y-79160500D01*
G75*
G02*
X192509500Y-79211499I0J-50999D01*
G01*
X192509500Y-80608501D01*
G75*
G02*
X192458501Y-80659500I-50999J0D01*
G01*
X191061499Y-80659500D01*
G75*
G02*
X191010500Y-80608501I0J50999D01*
G01*
X191010500Y-79211499D01*
G75*
G02*
X191061499Y-79160500I50999J0D01*
G01*
G37*
G36*
G01*
X191285000Y-81244000D02*
X192235000Y-81244000D01*
G75*
G02*
X192286000Y-81295000I0J-51000D01*
G01*
X192286000Y-82595000D01*
G75*
G02*
X192235000Y-82646000I-51000J0D01*
G01*
X191285000Y-82646000D01*
G75*
G02*
X191234000Y-82595000I0J51000D01*
G01*
X191234000Y-81295000D01*
G75*
G02*
X191285000Y-81244000I51000J0D01*
G01*
G37*
G36*
G01*
X210335000Y-81244000D02*
X211285000Y-81244000D01*
G75*
G02*
X211336000Y-81295000I0J-51000D01*
G01*
X211336000Y-82595000D01*
G75*
G02*
X211285000Y-82646000I-51000J0D01*
G01*
X210335000Y-82646000D01*
G75*
G02*
X210284000Y-82595000I0J51000D01*
G01*
X210284000Y-81295000D01*
G75*
G02*
X210335000Y-81244000I51000J0D01*
G01*
G37*
G36*
G01*
X210111499Y-79160500D02*
X211508501Y-79160500D01*
G75*
G02*
X211559500Y-79211499I0J-50999D01*
G01*
X211559500Y-80608501D01*
G75*
G02*
X211508501Y-80659500I-50999J0D01*
G01*
X210111499Y-80659500D01*
G75*
G02*
X210060500Y-80608501I0J50999D01*
G01*
X210060500Y-79211499D01*
G75*
G02*
X210111499Y-79160500I50999J0D01*
G01*
G37*
X210810000Y-87530000D03*
G36*
G01*
X210335000Y-84794000D02*
X211285000Y-84794000D01*
G75*
G02*
X211336000Y-84845000I0J-51000D01*
G01*
X211336000Y-86145000D01*
G75*
G02*
X211285000Y-86196000I-51000J0D01*
G01*
X210335000Y-86196000D01*
G75*
G02*
X210284000Y-86145000I0J51000D01*
G01*
X210284000Y-84845000D01*
G75*
G02*
X210335000Y-84794000I51000J0D01*
G01*
G37*
G36*
G01*
X221176000Y-87155000D02*
X221176000Y-88105000D01*
G75*
G02*
X221125000Y-88156000I-51000J0D01*
G01*
X219825000Y-88156000D01*
G75*
G02*
X219774000Y-88105000I0J51000D01*
G01*
X219774000Y-87155000D01*
G75*
G02*
X219825000Y-87104000I51000J0D01*
G01*
X221125000Y-87104000D01*
G75*
G02*
X221176000Y-87155000I0J-51000D01*
G01*
G37*
X218440000Y-87630000D03*
G36*
G01*
X226809500Y-86931499D02*
X226809500Y-88328501D01*
G75*
G02*
X226758501Y-88379500I-50999J0D01*
G01*
X225361499Y-88379500D01*
G75*
G02*
X225310500Y-88328501I0J50999D01*
G01*
X225310500Y-86931499D01*
G75*
G02*
X225361499Y-86880500I50999J0D01*
G01*
X226758501Y-86880500D01*
G75*
G02*
X226809500Y-86931499I0J-50999D01*
G01*
G37*
G36*
G01*
X224726000Y-87155000D02*
X224726000Y-88105000D01*
G75*
G02*
X224675000Y-88156000I-51000J0D01*
G01*
X223375000Y-88156000D01*
G75*
G02*
X223324000Y-88105000I0J51000D01*
G01*
X223324000Y-87155000D01*
G75*
G02*
X223375000Y-87104000I51000J0D01*
G01*
X224675000Y-87104000D01*
G75*
G02*
X224726000Y-87155000I0J-51000D01*
G01*
G37*
G36*
G01*
X172245000Y-100394000D02*
X173195000Y-100394000D01*
G75*
G02*
X173246000Y-100445000I0J-51000D01*
G01*
X173246000Y-101745000D01*
G75*
G02*
X173195000Y-101796000I-51000J0D01*
G01*
X172245000Y-101796000D01*
G75*
G02*
X172194000Y-101745000I0J51000D01*
G01*
X172194000Y-100445000D01*
G75*
G02*
X172245000Y-100394000I51000J0D01*
G01*
G37*
G36*
G01*
X172021499Y-98310500D02*
X173418501Y-98310500D01*
G75*
G02*
X173469500Y-98361499I0J-50999D01*
G01*
X173469500Y-99758501D01*
G75*
G02*
X173418501Y-99809500I-50999J0D01*
G01*
X172021499Y-99809500D01*
G75*
G02*
X171970500Y-99758501I0J50999D01*
G01*
X171970500Y-98361499D01*
G75*
G02*
X172021499Y-98310500I50999J0D01*
G01*
G37*
X172720000Y-106680000D03*
G36*
G01*
X172245000Y-103944000D02*
X173195000Y-103944000D01*
G75*
G02*
X173246000Y-103995000I0J-51000D01*
G01*
X173246000Y-105295000D01*
G75*
G02*
X173195000Y-105346000I-51000J0D01*
G01*
X172245000Y-105346000D01*
G75*
G02*
X172194000Y-105295000I0J51000D01*
G01*
X172194000Y-103995000D01*
G75*
G02*
X172245000Y-103944000I51000J0D01*
G01*
G37*
G36*
G01*
X191285000Y-103844000D02*
X192235000Y-103844000D01*
G75*
G02*
X192286000Y-103895000I0J-51000D01*
G01*
X192286000Y-105195000D01*
G75*
G02*
X192235000Y-105246000I-51000J0D01*
G01*
X191285000Y-105246000D01*
G75*
G02*
X191234000Y-105195000I0J51000D01*
G01*
X191234000Y-103895000D01*
G75*
G02*
X191285000Y-103844000I51000J0D01*
G01*
G37*
X191760000Y-106580000D03*
G36*
G01*
X191061499Y-98210500D02*
X192458501Y-98210500D01*
G75*
G02*
X192509500Y-98261499I0J-50999D01*
G01*
X192509500Y-99658501D01*
G75*
G02*
X192458501Y-99709500I-50999J0D01*
G01*
X191061499Y-99709500D01*
G75*
G02*
X191010500Y-99658501I0J50999D01*
G01*
X191010500Y-98261499D01*
G75*
G02*
X191061499Y-98210500I50999J0D01*
G01*
G37*
G36*
G01*
X191285000Y-100294000D02*
X192235000Y-100294000D01*
G75*
G02*
X192286000Y-100345000I0J-51000D01*
G01*
X192286000Y-101645000D01*
G75*
G02*
X192235000Y-101696000I-51000J0D01*
G01*
X191285000Y-101696000D01*
G75*
G02*
X191234000Y-101645000I0J51000D01*
G01*
X191234000Y-100345000D01*
G75*
G02*
X191285000Y-100294000I51000J0D01*
G01*
G37*
G36*
G01*
X210335000Y-100294000D02*
X211285000Y-100294000D01*
G75*
G02*
X211336000Y-100345000I0J-51000D01*
G01*
X211336000Y-101645000D01*
G75*
G02*
X211285000Y-101696000I-51000J0D01*
G01*
X210335000Y-101696000D01*
G75*
G02*
X210284000Y-101645000I0J51000D01*
G01*
X210284000Y-100345000D01*
G75*
G02*
X210335000Y-100294000I51000J0D01*
G01*
G37*
G36*
G01*
X210111499Y-98210500D02*
X211508501Y-98210500D01*
G75*
G02*
X211559500Y-98261499I0J-50999D01*
G01*
X211559500Y-99658501D01*
G75*
G02*
X211508501Y-99709500I-50999J0D01*
G01*
X210111499Y-99709500D01*
G75*
G02*
X210060500Y-99658501I0J50999D01*
G01*
X210060500Y-98261499D01*
G75*
G02*
X210111499Y-98210500I50999J0D01*
G01*
G37*
X210810000Y-106580000D03*
G36*
G01*
X210335000Y-103844000D02*
X211285000Y-103844000D01*
G75*
G02*
X211336000Y-103895000I0J-51000D01*
G01*
X211336000Y-105195000D01*
G75*
G02*
X211285000Y-105246000I-51000J0D01*
G01*
X210335000Y-105246000D01*
G75*
G02*
X210284000Y-105195000I0J51000D01*
G01*
X210284000Y-103895000D01*
G75*
G02*
X210335000Y-103844000I51000J0D01*
G01*
G37*
G36*
G01*
X229395000Y-103944000D02*
X230345000Y-103944000D01*
G75*
G02*
X230396000Y-103995000I0J-51000D01*
G01*
X230396000Y-105295000D01*
G75*
G02*
X230345000Y-105346000I-51000J0D01*
G01*
X229395000Y-105346000D01*
G75*
G02*
X229344000Y-105295000I0J51000D01*
G01*
X229344000Y-103995000D01*
G75*
G02*
X229395000Y-103944000I51000J0D01*
G01*
G37*
X229870000Y-106680000D03*
G36*
G01*
X229171499Y-98310500D02*
X230568501Y-98310500D01*
G75*
G02*
X230619500Y-98361499I0J-50999D01*
G01*
X230619500Y-99758501D01*
G75*
G02*
X230568501Y-99809500I-50999J0D01*
G01*
X229171499Y-99809500D01*
G75*
G02*
X229120500Y-99758501I0J50999D01*
G01*
X229120500Y-98361499D01*
G75*
G02*
X229171499Y-98310500I50999J0D01*
G01*
G37*
G36*
G01*
X229395000Y-100394000D02*
X230345000Y-100394000D01*
G75*
G02*
X230396000Y-100445000I0J-51000D01*
G01*
X230396000Y-101745000D01*
G75*
G02*
X230345000Y-101796000I-51000J0D01*
G01*
X229395000Y-101796000D01*
G75*
G02*
X229344000Y-101745000I0J51000D01*
G01*
X229344000Y-100445000D01*
G75*
G02*
X229395000Y-100394000I51000J0D01*
G01*
G37*
G36*
G01*
X162756000Y-125255000D02*
X162756000Y-126205000D01*
G75*
G02*
X162705000Y-126256000I-51000J0D01*
G01*
X161405000Y-126256000D01*
G75*
G02*
X161354000Y-126205000I0J51000D01*
G01*
X161354000Y-125255000D01*
G75*
G02*
X161405000Y-125204000I51000J0D01*
G01*
X162705000Y-125204000D01*
G75*
G02*
X162756000Y-125255000I0J-51000D01*
G01*
G37*
X160020000Y-125730000D03*
G36*
G01*
X168389500Y-125031499D02*
X168389500Y-126428501D01*
G75*
G02*
X168338501Y-126479500I-50999J0D01*
G01*
X166941499Y-126479500D01*
G75*
G02*
X166890500Y-126428501I0J50999D01*
G01*
X166890500Y-125031499D01*
G75*
G02*
X166941499Y-124980500I50999J0D01*
G01*
X168338501Y-124980500D01*
G75*
G02*
X168389500Y-125031499I0J-50999D01*
G01*
G37*
G36*
G01*
X166306000Y-125255000D02*
X166306000Y-126205000D01*
G75*
G02*
X166255000Y-126256000I-51000J0D01*
G01*
X164955000Y-126256000D01*
G75*
G02*
X164904000Y-126205000I0J51000D01*
G01*
X164904000Y-125255000D01*
G75*
G02*
X164955000Y-125204000I51000J0D01*
G01*
X166255000Y-125204000D01*
G75*
G02*
X166306000Y-125255000I0J-51000D01*
G01*
G37*
G36*
G01*
X191285000Y-119344000D02*
X192235000Y-119344000D01*
G75*
G02*
X192286000Y-119395000I0J-51000D01*
G01*
X192286000Y-120695000D01*
G75*
G02*
X192235000Y-120746000I-51000J0D01*
G01*
X191285000Y-120746000D01*
G75*
G02*
X191234000Y-120695000I0J51000D01*
G01*
X191234000Y-119395000D01*
G75*
G02*
X191285000Y-119344000I51000J0D01*
G01*
G37*
G36*
G01*
X191061499Y-117260500D02*
X192458501Y-117260500D01*
G75*
G02*
X192509500Y-117311499I0J-50999D01*
G01*
X192509500Y-118708501D01*
G75*
G02*
X192458501Y-118759500I-50999J0D01*
G01*
X191061499Y-118759500D01*
G75*
G02*
X191010500Y-118708501I0J50999D01*
G01*
X191010500Y-117311499D01*
G75*
G02*
X191061499Y-117260500I50999J0D01*
G01*
G37*
X191760000Y-125630000D03*
G36*
G01*
X191285000Y-122894000D02*
X192235000Y-122894000D01*
G75*
G02*
X192286000Y-122945000I0J-51000D01*
G01*
X192286000Y-124245000D01*
G75*
G02*
X192235000Y-124296000I-51000J0D01*
G01*
X191285000Y-124296000D01*
G75*
G02*
X191234000Y-124245000I0J51000D01*
G01*
X191234000Y-122945000D01*
G75*
G02*
X191285000Y-122894000I51000J0D01*
G01*
G37*
G36*
G01*
X210335000Y-122894000D02*
X211285000Y-122894000D01*
G75*
G02*
X211336000Y-122945000I0J-51000D01*
G01*
X211336000Y-124245000D01*
G75*
G02*
X211285000Y-124296000I-51000J0D01*
G01*
X210335000Y-124296000D01*
G75*
G02*
X210284000Y-124245000I0J51000D01*
G01*
X210284000Y-122945000D01*
G75*
G02*
X210335000Y-122894000I51000J0D01*
G01*
G37*
X210810000Y-125630000D03*
G36*
G01*
X210111499Y-117260500D02*
X211508501Y-117260500D01*
G75*
G02*
X211559500Y-117311499I0J-50999D01*
G01*
X211559500Y-118708501D01*
G75*
G02*
X211508501Y-118759500I-50999J0D01*
G01*
X210111499Y-118759500D01*
G75*
G02*
X210060500Y-118708501I0J50999D01*
G01*
X210060500Y-117311499D01*
G75*
G02*
X210111499Y-117260500I50999J0D01*
G01*
G37*
G36*
G01*
X210335000Y-119344000D02*
X211285000Y-119344000D01*
G75*
G02*
X211336000Y-119395000I0J-51000D01*
G01*
X211336000Y-120695000D01*
G75*
G02*
X211285000Y-120746000I-51000J0D01*
G01*
X210335000Y-120746000D01*
G75*
G02*
X210284000Y-120695000I0J51000D01*
G01*
X210284000Y-119395000D01*
G75*
G02*
X210335000Y-119344000I51000J0D01*
G01*
G37*
G36*
G01*
X219774000Y-126205000D02*
X219774000Y-125255000D01*
G75*
G02*
X219825000Y-125204000I51000J0D01*
G01*
X221125000Y-125204000D01*
G75*
G02*
X221176000Y-125255000I0J-51000D01*
G01*
X221176000Y-126205000D01*
G75*
G02*
X221125000Y-126256000I-51000J0D01*
G01*
X219825000Y-126256000D01*
G75*
G02*
X219774000Y-126205000I0J51000D01*
G01*
G37*
G36*
G01*
X217690500Y-126428501D02*
X217690500Y-125031499D01*
G75*
G02*
X217741499Y-124980500I50999J0D01*
G01*
X219138501Y-124980500D01*
G75*
G02*
X219189500Y-125031499I0J-50999D01*
G01*
X219189500Y-126428501D01*
G75*
G02*
X219138501Y-126479500I-50999J0D01*
G01*
X217741499Y-126479500D01*
G75*
G02*
X217690500Y-126428501I0J50999D01*
G01*
G37*
X226060000Y-125730000D03*
G36*
G01*
X223324000Y-126205000D02*
X223324000Y-125255000D01*
G75*
G02*
X223375000Y-125204000I51000J0D01*
G01*
X224675000Y-125204000D01*
G75*
G02*
X224726000Y-125255000I0J-51000D01*
G01*
X224726000Y-126205000D01*
G75*
G02*
X224675000Y-126256000I-51000J0D01*
G01*
X223375000Y-126256000D01*
G75*
G02*
X223324000Y-126205000I0J51000D01*
G01*
G37*
G36*
G01*
X248435000Y-84794000D02*
X249385000Y-84794000D01*
G75*
G02*
X249436000Y-84845000I0J-51000D01*
G01*
X249436000Y-86145000D01*
G75*
G02*
X249385000Y-86196000I-51000J0D01*
G01*
X248435000Y-86196000D01*
G75*
G02*
X248384000Y-86145000I0J51000D01*
G01*
X248384000Y-84845000D01*
G75*
G02*
X248435000Y-84794000I51000J0D01*
G01*
G37*
X248910000Y-87530000D03*
G36*
G01*
X248211499Y-79160500D02*
X249608501Y-79160500D01*
G75*
G02*
X249659500Y-79211499I0J-50999D01*
G01*
X249659500Y-80608501D01*
G75*
G02*
X249608501Y-80659500I-50999J0D01*
G01*
X248211499Y-80659500D01*
G75*
G02*
X248160500Y-80608501I0J50999D01*
G01*
X248160500Y-79211499D01*
G75*
G02*
X248211499Y-79160500I50999J0D01*
G01*
G37*
G36*
G01*
X248435000Y-81244000D02*
X249385000Y-81244000D01*
G75*
G02*
X249436000Y-81295000I0J-51000D01*
G01*
X249436000Y-82595000D01*
G75*
G02*
X249385000Y-82646000I-51000J0D01*
G01*
X248435000Y-82646000D01*
G75*
G02*
X248384000Y-82595000I0J51000D01*
G01*
X248384000Y-81295000D01*
G75*
G02*
X248435000Y-81244000I51000J0D01*
G01*
G37*
G36*
G01*
X248375000Y-100394000D02*
X249325000Y-100394000D01*
G75*
G02*
X249376000Y-100445000I0J-51000D01*
G01*
X249376000Y-101745000D01*
G75*
G02*
X249325000Y-101796000I-51000J0D01*
G01*
X248375000Y-101796000D01*
G75*
G02*
X248324000Y-101745000I0J51000D01*
G01*
X248324000Y-100445000D01*
G75*
G02*
X248375000Y-100394000I51000J0D01*
G01*
G37*
G36*
G01*
X248151499Y-98310500D02*
X249548501Y-98310500D01*
G75*
G02*
X249599500Y-98361499I0J-50999D01*
G01*
X249599500Y-99758501D01*
G75*
G02*
X249548501Y-99809500I-50999J0D01*
G01*
X248151499Y-99809500D01*
G75*
G02*
X248100500Y-99758501I0J50999D01*
G01*
X248100500Y-98361499D01*
G75*
G02*
X248151499Y-98310500I50999J0D01*
G01*
G37*
X248850000Y-106680000D03*
G36*
G01*
X248375000Y-103944000D02*
X249325000Y-103944000D01*
G75*
G02*
X249376000Y-103995000I0J-51000D01*
G01*
X249376000Y-105295000D01*
G75*
G02*
X249325000Y-105346000I-51000J0D01*
G01*
X248375000Y-105346000D01*
G75*
G02*
X248324000Y-105295000I0J51000D01*
G01*
X248324000Y-103995000D01*
G75*
G02*
X248375000Y-103944000I51000J0D01*
G01*
G37*
G36*
G01*
X249645000Y-122894000D02*
X250595000Y-122894000D01*
G75*
G02*
X250646000Y-122945000I0J-51000D01*
G01*
X250646000Y-124245000D01*
G75*
G02*
X250595000Y-124296000I-51000J0D01*
G01*
X249645000Y-124296000D01*
G75*
G02*
X249594000Y-124245000I0J51000D01*
G01*
X249594000Y-122945000D01*
G75*
G02*
X249645000Y-122894000I51000J0D01*
G01*
G37*
X250120000Y-125630000D03*
G36*
G01*
X249421499Y-117260500D02*
X250818501Y-117260500D01*
G75*
G02*
X250869500Y-117311499I0J-50999D01*
G01*
X250869500Y-118708501D01*
G75*
G02*
X250818501Y-118759500I-50999J0D01*
G01*
X249421499Y-118759500D01*
G75*
G02*
X249370500Y-118708501I0J50999D01*
G01*
X249370500Y-117311499D01*
G75*
G02*
X249421499Y-117260500I50999J0D01*
G01*
G37*
G36*
G01*
X249645000Y-119344000D02*
X250595000Y-119344000D01*
G75*
G02*
X250646000Y-119395000I0J-51000D01*
G01*
X250646000Y-120695000D01*
G75*
G02*
X250595000Y-120746000I-51000J0D01*
G01*
X249645000Y-120746000D01*
G75*
G02*
X249594000Y-120695000I0J51000D01*
G01*
X249594000Y-119395000D01*
G75*
G02*
X249645000Y-119344000I51000J0D01*
G01*
G37*
G36*
G01*
X192555000Y-130774000D02*
X193505000Y-130774000D01*
G75*
G02*
X193556000Y-130825000I0J-51000D01*
G01*
X193556000Y-132125000D01*
G75*
G02*
X193505000Y-132176000I-51000J0D01*
G01*
X192555000Y-132176000D01*
G75*
G02*
X192504000Y-132125000I0J51000D01*
G01*
X192504000Y-130825000D01*
G75*
G02*
X192555000Y-130774000I51000J0D01*
G01*
G37*
G36*
G01*
X192331499Y-128690500D02*
X193728501Y-128690500D01*
G75*
G02*
X193779500Y-128741499I0J-50999D01*
G01*
X193779500Y-130138501D01*
G75*
G02*
X193728501Y-130189500I-50999J0D01*
G01*
X192331499Y-130189500D01*
G75*
G02*
X192280500Y-130138501I0J50999D01*
G01*
X192280500Y-128741499D01*
G75*
G02*
X192331499Y-128690500I50999J0D01*
G01*
G37*
X193030000Y-137060000D03*
G36*
G01*
X192555000Y-134324000D02*
X193505000Y-134324000D01*
G75*
G02*
X193556000Y-134375000I0J-51000D01*
G01*
X193556000Y-135675000D01*
G75*
G02*
X193505000Y-135726000I-51000J0D01*
G01*
X192555000Y-135726000D01*
G75*
G02*
X192504000Y-135675000I0J51000D01*
G01*
X192504000Y-134375000D01*
G75*
G02*
X192555000Y-134324000I51000J0D01*
G01*
G37*
D22*
G36*
X136887111Y-140718670D02*
G01*
X137010542Y-140801144D01*
X137053724Y-140819031D01*
X137054942Y-140820618D01*
X137054177Y-140822466D01*
X137052378Y-140822793D01*
X137034990Y-140817518D01*
X137010999Y-140815155D01*
X136987008Y-140817518D01*
X136963933Y-140824518D01*
X136942669Y-140835883D01*
X136924032Y-140851179D01*
X136908737Y-140869816D01*
X136897372Y-140891079D01*
X136890372Y-140914154D01*
X136887990Y-140938341D01*
X136886825Y-140939967D01*
X136884835Y-140939771D01*
X136884000Y-140938145D01*
X136884000Y-140720333D01*
X136885000Y-140718601D01*
X136887111Y-140718670D01*
G37*
G36*
X136188548Y-139998861D02*
G01*
X136314853Y-140187889D01*
X136314984Y-140189885D01*
X136313190Y-140191000D01*
X136080057Y-140191000D01*
X136078325Y-140190000D01*
X136078325Y-140188000D01*
X136079861Y-140187010D01*
X136104048Y-140184628D01*
X136127123Y-140177628D01*
X136148387Y-140166263D01*
X136167024Y-140150968D01*
X136182319Y-140132331D01*
X136193684Y-140111067D01*
X136200684Y-140087992D01*
X136203047Y-140064001D01*
X136200684Y-140040010D01*
X136193684Y-140016935D01*
X136185121Y-140000915D01*
X136185187Y-139998916D01*
X136186950Y-139997973D01*
X136188548Y-139998861D01*
G37*
G36*
X132288651Y-139723836D02*
G01*
X132449079Y-139831030D01*
X132630007Y-139905973D01*
X132822084Y-139944180D01*
X133017916Y-139944180D01*
X133101829Y-139927489D01*
X133103723Y-139928132D01*
X133104113Y-139930094D01*
X133102800Y-139931365D01*
X133085412Y-139936639D01*
X133064148Y-139948004D01*
X133045512Y-139963299D01*
X133030216Y-139981936D01*
X133018851Y-140003200D01*
X133011851Y-140026275D01*
X133009488Y-140050266D01*
X133011851Y-140074257D01*
X133018851Y-140097332D01*
X133030216Y-140118596D01*
X133045511Y-140137232D01*
X133059554Y-140148757D01*
X133060258Y-140150629D01*
X133058989Y-140152175D01*
X133057174Y-140151966D01*
X133015189Y-140123913D01*
X132734650Y-140007710D01*
X132436826Y-139948468D01*
X132214273Y-139948468D01*
X132212541Y-139947468D01*
X132212541Y-139945468D01*
X132214077Y-139944478D01*
X132232152Y-139942698D01*
X132255227Y-139935698D01*
X132276491Y-139924333D01*
X132295128Y-139909038D01*
X132310423Y-139890401D01*
X132321788Y-139869137D01*
X132328788Y-139846062D01*
X132331151Y-139822071D01*
X132328788Y-139798080D01*
X132321788Y-139775005D01*
X132310423Y-139753741D01*
X132295128Y-139735104D01*
X132290679Y-139731453D01*
X132290534Y-139731321D01*
X132286126Y-139726913D01*
X132285608Y-139724981D01*
X132287022Y-139723567D01*
X132288651Y-139723836D01*
G37*
G36*
X133417826Y-137748034D02*
G01*
X133459811Y-137776087D01*
X133740350Y-137892290D01*
X134038174Y-137951532D01*
X134260727Y-137951532D01*
X134262459Y-137952532D01*
X134262459Y-137954532D01*
X134260923Y-137955522D01*
X134242848Y-137957302D01*
X134219773Y-137964302D01*
X134198509Y-137975667D01*
X134179872Y-137990962D01*
X134164577Y-138009599D01*
X134153212Y-138030863D01*
X134146212Y-138053938D01*
X134143849Y-138077929D01*
X134146212Y-138101920D01*
X134153212Y-138124995D01*
X134164577Y-138146259D01*
X134179872Y-138164896D01*
X134184321Y-138168547D01*
X134184466Y-138168679D01*
X134188874Y-138173087D01*
X134189392Y-138175019D01*
X134187978Y-138176433D01*
X134186349Y-138176164D01*
X134025921Y-138068970D01*
X133844993Y-137994027D01*
X133652916Y-137955820D01*
X133457084Y-137955820D01*
X133373171Y-137972511D01*
X133371277Y-137971868D01*
X133370887Y-137969906D01*
X133372200Y-137968635D01*
X133389588Y-137963361D01*
X133410852Y-137951996D01*
X133429488Y-137936701D01*
X133444784Y-137918064D01*
X133456149Y-137896800D01*
X133463149Y-137873725D01*
X133465512Y-137849734D01*
X133463149Y-137825743D01*
X133456149Y-137802668D01*
X133444784Y-137781404D01*
X133429489Y-137762768D01*
X133415446Y-137751243D01*
X133414742Y-137749371D01*
X133416011Y-137747825D01*
X133417826Y-137748034D01*
G37*
G36*
X130396675Y-137710000D02*
G01*
X130396675Y-137712000D01*
X130395139Y-137712990D01*
X130370952Y-137715372D01*
X130347877Y-137722372D01*
X130326613Y-137733737D01*
X130307976Y-137749032D01*
X130292681Y-137767669D01*
X130281316Y-137788933D01*
X130274316Y-137812008D01*
X130271953Y-137835999D01*
X130274316Y-137859990D01*
X130281316Y-137883065D01*
X130289879Y-137899085D01*
X130289813Y-137901084D01*
X130288050Y-137902027D01*
X130286452Y-137901139D01*
X130160147Y-137712111D01*
X130160016Y-137710115D01*
X130161810Y-137709000D01*
X130394943Y-137709000D01*
X130396675Y-137710000D01*
G37*
G36*
X129590165Y-136960229D02*
G01*
X129591000Y-136961855D01*
X129591000Y-137179667D01*
X129590000Y-137181399D01*
X129587889Y-137181330D01*
X129464458Y-137098856D01*
X129421276Y-137080969D01*
X129420058Y-137079382D01*
X129420823Y-137077534D01*
X129422622Y-137077207D01*
X129440010Y-137082482D01*
X129464001Y-137084845D01*
X129487992Y-137082482D01*
X129511067Y-137075482D01*
X129532331Y-137064117D01*
X129550968Y-137048821D01*
X129566263Y-137030184D01*
X129577628Y-137008921D01*
X129584628Y-136985846D01*
X129587010Y-136961659D01*
X129588175Y-136960033D01*
X129590165Y-136960229D01*
G37*
G36*
X151976938Y-122683382D02*
G01*
X152038692Y-122708962D01*
X152105795Y-122722310D01*
X152174205Y-122722310D01*
X152241308Y-122708962D01*
X152303062Y-122683382D01*
X152305045Y-122683643D01*
X152305810Y-122685491D01*
X152305096Y-122686776D01*
X152288333Y-122700533D01*
X152273038Y-122719170D01*
X152261673Y-122740434D01*
X152254673Y-122763509D01*
X152252310Y-122787500D01*
X152254673Y-122811491D01*
X152261673Y-122834566D01*
X152273038Y-122855830D01*
X152288333Y-122874467D01*
X152305096Y-122888224D01*
X152305800Y-122890096D01*
X152304531Y-122891642D01*
X152303062Y-122891618D01*
X152241308Y-122866038D01*
X152174205Y-122852690D01*
X152105795Y-122852690D01*
X152038692Y-122866038D01*
X151976938Y-122891618D01*
X151974955Y-122891357D01*
X151974190Y-122889509D01*
X151974904Y-122888224D01*
X151991667Y-122874467D01*
X152006962Y-122855830D01*
X152018327Y-122834566D01*
X152025327Y-122811491D01*
X152027690Y-122787500D01*
X152025327Y-122763509D01*
X152018327Y-122740434D01*
X152006962Y-122719170D01*
X151991667Y-122700533D01*
X151974904Y-122686776D01*
X151974200Y-122684904D01*
X151975469Y-122683358D01*
X151976938Y-122683382D01*
G37*
G36*
X150066938Y-122683382D02*
G01*
X150128692Y-122708962D01*
X150195795Y-122722310D01*
X150264205Y-122722310D01*
X150331308Y-122708962D01*
X150393062Y-122683382D01*
X150395045Y-122683643D01*
X150395810Y-122685491D01*
X150395096Y-122686776D01*
X150378333Y-122700533D01*
X150363038Y-122719170D01*
X150351673Y-122740434D01*
X150344673Y-122763509D01*
X150342310Y-122787500D01*
X150344673Y-122811491D01*
X150351673Y-122834566D01*
X150363038Y-122855830D01*
X150378333Y-122874467D01*
X150395096Y-122888224D01*
X150395800Y-122890096D01*
X150394531Y-122891642D01*
X150393062Y-122891618D01*
X150331308Y-122866038D01*
X150264205Y-122852690D01*
X150195795Y-122852690D01*
X150128692Y-122866038D01*
X150066938Y-122891618D01*
X150064955Y-122891357D01*
X150064190Y-122889509D01*
X150064904Y-122888224D01*
X150081667Y-122874467D01*
X150096962Y-122855830D01*
X150108327Y-122834566D01*
X150115327Y-122811491D01*
X150117690Y-122787500D01*
X150115327Y-122763509D01*
X150108327Y-122740434D01*
X150096962Y-122719170D01*
X150081667Y-122700533D01*
X150064904Y-122686776D01*
X150064200Y-122684904D01*
X150065469Y-122683358D01*
X150066938Y-122683382D01*
G37*
G36*
X151976938Y-121858382D02*
G01*
X152038692Y-121883962D01*
X152105795Y-121897310D01*
X152174205Y-121897310D01*
X152241308Y-121883962D01*
X152303062Y-121858382D01*
X152305045Y-121858643D01*
X152305810Y-121860491D01*
X152305096Y-121861776D01*
X152288333Y-121875533D01*
X152273038Y-121894170D01*
X152261673Y-121915434D01*
X152254673Y-121938509D01*
X152252310Y-121962500D01*
X152254673Y-121986491D01*
X152261673Y-122009566D01*
X152273038Y-122030830D01*
X152288333Y-122049467D01*
X152305096Y-122063224D01*
X152305800Y-122065096D01*
X152304531Y-122066642D01*
X152303062Y-122066618D01*
X152241308Y-122041038D01*
X152174205Y-122027690D01*
X152105795Y-122027690D01*
X152038692Y-122041038D01*
X151976938Y-122066618D01*
X151974955Y-122066357D01*
X151974190Y-122064509D01*
X151974904Y-122063224D01*
X151991667Y-122049467D01*
X152006962Y-122030830D01*
X152018327Y-122009566D01*
X152025327Y-121986491D01*
X152027690Y-121962500D01*
X152025327Y-121938509D01*
X152018327Y-121915434D01*
X152006962Y-121894170D01*
X151991667Y-121875533D01*
X151974904Y-121861776D01*
X151974200Y-121859904D01*
X151975469Y-121858358D01*
X151976938Y-121858382D01*
G37*
G36*
X150066938Y-121858382D02*
G01*
X150128692Y-121883962D01*
X150195795Y-121897310D01*
X150264205Y-121897310D01*
X150331308Y-121883962D01*
X150393062Y-121858382D01*
X150395045Y-121858643D01*
X150395810Y-121860491D01*
X150395096Y-121861776D01*
X150378333Y-121875533D01*
X150363038Y-121894170D01*
X150351673Y-121915434D01*
X150344673Y-121938509D01*
X150342310Y-121962500D01*
X150344673Y-121986491D01*
X150351673Y-122009566D01*
X150363038Y-122030830D01*
X150378333Y-122049467D01*
X150395096Y-122063224D01*
X150395800Y-122065096D01*
X150394531Y-122066642D01*
X150393062Y-122066618D01*
X150331308Y-122041038D01*
X150264205Y-122027690D01*
X150195795Y-122027690D01*
X150128692Y-122041038D01*
X150066938Y-122066618D01*
X150064955Y-122066357D01*
X150064190Y-122064509D01*
X150064904Y-122063224D01*
X150081667Y-122049467D01*
X150096962Y-122030830D01*
X150108327Y-122009566D01*
X150115327Y-121986491D01*
X150117690Y-121962500D01*
X150115327Y-121938509D01*
X150108327Y-121915434D01*
X150096962Y-121894170D01*
X150081667Y-121875533D01*
X150064904Y-121861776D01*
X150064200Y-121859904D01*
X150065469Y-121858358D01*
X150066938Y-121858382D01*
G37*
G36*
X151976938Y-121033382D02*
G01*
X152038692Y-121058962D01*
X152105795Y-121072310D01*
X152174205Y-121072310D01*
X152241308Y-121058962D01*
X152303062Y-121033382D01*
X152305045Y-121033643D01*
X152305810Y-121035491D01*
X152305096Y-121036776D01*
X152288333Y-121050533D01*
X152273038Y-121069170D01*
X152261673Y-121090434D01*
X152254673Y-121113509D01*
X152252310Y-121137500D01*
X152254673Y-121161491D01*
X152261673Y-121184566D01*
X152273038Y-121205830D01*
X152288333Y-121224467D01*
X152305096Y-121238224D01*
X152305800Y-121240096D01*
X152304531Y-121241642D01*
X152303062Y-121241618D01*
X152241308Y-121216038D01*
X152174205Y-121202690D01*
X152105795Y-121202690D01*
X152038692Y-121216038D01*
X151976938Y-121241618D01*
X151974955Y-121241357D01*
X151974190Y-121239509D01*
X151974904Y-121238224D01*
X151991667Y-121224467D01*
X152006962Y-121205830D01*
X152018327Y-121184566D01*
X152025327Y-121161491D01*
X152027690Y-121137500D01*
X152025327Y-121113509D01*
X152018327Y-121090434D01*
X152006962Y-121069170D01*
X151991667Y-121050533D01*
X151974904Y-121036776D01*
X151974200Y-121034904D01*
X151975469Y-121033358D01*
X151976938Y-121033382D01*
G37*
G36*
X150066938Y-121033382D02*
G01*
X150128692Y-121058962D01*
X150195795Y-121072310D01*
X150264205Y-121072310D01*
X150331308Y-121058962D01*
X150393062Y-121033382D01*
X150395045Y-121033643D01*
X150395810Y-121035491D01*
X150395096Y-121036776D01*
X150378333Y-121050533D01*
X150363038Y-121069170D01*
X150351673Y-121090434D01*
X150344673Y-121113509D01*
X150342310Y-121137500D01*
X150344673Y-121161491D01*
X150351673Y-121184566D01*
X150363038Y-121205830D01*
X150378333Y-121224467D01*
X150395096Y-121238224D01*
X150395800Y-121240096D01*
X150394531Y-121241642D01*
X150393062Y-121241618D01*
X150331308Y-121216038D01*
X150264205Y-121202690D01*
X150195795Y-121202690D01*
X150128692Y-121216038D01*
X150066938Y-121241618D01*
X150064955Y-121241357D01*
X150064190Y-121239509D01*
X150064904Y-121238224D01*
X150081667Y-121224467D01*
X150096962Y-121205830D01*
X150108327Y-121184566D01*
X150115327Y-121161491D01*
X150117690Y-121137500D01*
X150115327Y-121113509D01*
X150108327Y-121090434D01*
X150096962Y-121069170D01*
X150081667Y-121050533D01*
X150064904Y-121036776D01*
X150064200Y-121034904D01*
X150065469Y-121033358D01*
X150066938Y-121033382D01*
G37*
G36*
X151976938Y-120208382D02*
G01*
X152038692Y-120233962D01*
X152105795Y-120247310D01*
X152174205Y-120247310D01*
X152241308Y-120233962D01*
X152303062Y-120208382D01*
X152305045Y-120208643D01*
X152305810Y-120210491D01*
X152305096Y-120211776D01*
X152288333Y-120225533D01*
X152273038Y-120244170D01*
X152261673Y-120265434D01*
X152254673Y-120288509D01*
X152252310Y-120312500D01*
X152254673Y-120336491D01*
X152261673Y-120359566D01*
X152273038Y-120380830D01*
X152288333Y-120399467D01*
X152305096Y-120413224D01*
X152305800Y-120415096D01*
X152304531Y-120416642D01*
X152303062Y-120416618D01*
X152241308Y-120391038D01*
X152174205Y-120377690D01*
X152105795Y-120377690D01*
X152038692Y-120391038D01*
X151976938Y-120416618D01*
X151974955Y-120416357D01*
X151974190Y-120414509D01*
X151974904Y-120413224D01*
X151991667Y-120399467D01*
X152006962Y-120380830D01*
X152018327Y-120359566D01*
X152025327Y-120336491D01*
X152027690Y-120312500D01*
X152025327Y-120288509D01*
X152018327Y-120265434D01*
X152006962Y-120244170D01*
X151991667Y-120225533D01*
X151974904Y-120211776D01*
X151974200Y-120209904D01*
X151975469Y-120208358D01*
X151976938Y-120208382D01*
G37*
G36*
X150066938Y-120208382D02*
G01*
X150128692Y-120233962D01*
X150195795Y-120247310D01*
X150264205Y-120247310D01*
X150331308Y-120233962D01*
X150393062Y-120208382D01*
X150395045Y-120208643D01*
X150395810Y-120210491D01*
X150395096Y-120211776D01*
X150378333Y-120225533D01*
X150363038Y-120244170D01*
X150351673Y-120265434D01*
X150344673Y-120288509D01*
X150342310Y-120312500D01*
X150344673Y-120336491D01*
X150351673Y-120359566D01*
X150363038Y-120380830D01*
X150378333Y-120399467D01*
X150395096Y-120413224D01*
X150395800Y-120415096D01*
X150394531Y-120416642D01*
X150393062Y-120416618D01*
X150331308Y-120391038D01*
X150264205Y-120377690D01*
X150195795Y-120377690D01*
X150128692Y-120391038D01*
X150066938Y-120416618D01*
X150064955Y-120416357D01*
X150064190Y-120414509D01*
X150064904Y-120413224D01*
X150081667Y-120399467D01*
X150096962Y-120380830D01*
X150108327Y-120359566D01*
X150115327Y-120336491D01*
X150117690Y-120312500D01*
X150115327Y-120288509D01*
X150108327Y-120265434D01*
X150096962Y-120244170D01*
X150081667Y-120225533D01*
X150064904Y-120211776D01*
X150064200Y-120209904D01*
X150065469Y-120208358D01*
X150066938Y-120208382D01*
G37*
G36*
X151976938Y-119383382D02*
G01*
X152038692Y-119408962D01*
X152105795Y-119422310D01*
X152174205Y-119422310D01*
X152241308Y-119408962D01*
X152303062Y-119383382D01*
X152305045Y-119383643D01*
X152305810Y-119385491D01*
X152305096Y-119386776D01*
X152288333Y-119400533D01*
X152273038Y-119419170D01*
X152261673Y-119440434D01*
X152254673Y-119463509D01*
X152252310Y-119487500D01*
X152254673Y-119511491D01*
X152261673Y-119534566D01*
X152273038Y-119555830D01*
X152288333Y-119574467D01*
X152305096Y-119588224D01*
X152305800Y-119590096D01*
X152304531Y-119591642D01*
X152303062Y-119591618D01*
X152241308Y-119566038D01*
X152174205Y-119552690D01*
X152105795Y-119552690D01*
X152038692Y-119566038D01*
X151976938Y-119591618D01*
X151974955Y-119591357D01*
X151974190Y-119589509D01*
X151974904Y-119588224D01*
X151991667Y-119574467D01*
X152006962Y-119555830D01*
X152018327Y-119534566D01*
X152025327Y-119511491D01*
X152027690Y-119487500D01*
X152025327Y-119463509D01*
X152018327Y-119440434D01*
X152006962Y-119419170D01*
X151991667Y-119400533D01*
X151974904Y-119386776D01*
X151974200Y-119384904D01*
X151975469Y-119383358D01*
X151976938Y-119383382D01*
G37*
G36*
X150066938Y-119383382D02*
G01*
X150128692Y-119408962D01*
X150195795Y-119422310D01*
X150264205Y-119422310D01*
X150331308Y-119408962D01*
X150393062Y-119383382D01*
X150395045Y-119383643D01*
X150395810Y-119385491D01*
X150395096Y-119386776D01*
X150378333Y-119400533D01*
X150363038Y-119419170D01*
X150351673Y-119440434D01*
X150344673Y-119463509D01*
X150342310Y-119487500D01*
X150344673Y-119511491D01*
X150351673Y-119534566D01*
X150363038Y-119555830D01*
X150378333Y-119574467D01*
X150395096Y-119588224D01*
X150395800Y-119590096D01*
X150394531Y-119591642D01*
X150393062Y-119591618D01*
X150331308Y-119566038D01*
X150264205Y-119552690D01*
X150195795Y-119552690D01*
X150128692Y-119566038D01*
X150066938Y-119591618D01*
X150064955Y-119591357D01*
X150064190Y-119589509D01*
X150064904Y-119588224D01*
X150081667Y-119574467D01*
X150096962Y-119555830D01*
X150108327Y-119534566D01*
X150115327Y-119511491D01*
X150117690Y-119487500D01*
X150115327Y-119463509D01*
X150108327Y-119440434D01*
X150096962Y-119419170D01*
X150081667Y-119400533D01*
X150064904Y-119386776D01*
X150064200Y-119384904D01*
X150065469Y-119383358D01*
X150066938Y-119383382D01*
G37*
G36*
X151976938Y-118558382D02*
G01*
X152038692Y-118583962D01*
X152105795Y-118597310D01*
X152174205Y-118597310D01*
X152241308Y-118583962D01*
X152303062Y-118558382D01*
X152305045Y-118558643D01*
X152305810Y-118560491D01*
X152305096Y-118561776D01*
X152288333Y-118575533D01*
X152273038Y-118594170D01*
X152261673Y-118615434D01*
X152254673Y-118638509D01*
X152252310Y-118662500D01*
X152254673Y-118686491D01*
X152261673Y-118709566D01*
X152273038Y-118730830D01*
X152288333Y-118749467D01*
X152305096Y-118763224D01*
X152305800Y-118765096D01*
X152304531Y-118766642D01*
X152303062Y-118766618D01*
X152241308Y-118741038D01*
X152174205Y-118727690D01*
X152105795Y-118727690D01*
X152038692Y-118741038D01*
X151976938Y-118766618D01*
X151974955Y-118766357D01*
X151974190Y-118764509D01*
X151974904Y-118763224D01*
X151991667Y-118749467D01*
X152006962Y-118730830D01*
X152018327Y-118709566D01*
X152025327Y-118686491D01*
X152027690Y-118662500D01*
X152025327Y-118638509D01*
X152018327Y-118615434D01*
X152006962Y-118594170D01*
X151991667Y-118575533D01*
X151974904Y-118561776D01*
X151974200Y-118559904D01*
X151975469Y-118558358D01*
X151976938Y-118558382D01*
G37*
G36*
X150066938Y-118558382D02*
G01*
X150128692Y-118583962D01*
X150195795Y-118597310D01*
X150264205Y-118597310D01*
X150331308Y-118583962D01*
X150393062Y-118558382D01*
X150395045Y-118558643D01*
X150395810Y-118560491D01*
X150395096Y-118561776D01*
X150378333Y-118575533D01*
X150363038Y-118594170D01*
X150351673Y-118615434D01*
X150344673Y-118638509D01*
X150342310Y-118662500D01*
X150344673Y-118686491D01*
X150351673Y-118709566D01*
X150363038Y-118730830D01*
X150378333Y-118749467D01*
X150395096Y-118763224D01*
X150395800Y-118765096D01*
X150394531Y-118766642D01*
X150393062Y-118766618D01*
X150331308Y-118741038D01*
X150264205Y-118727690D01*
X150195795Y-118727690D01*
X150128692Y-118741038D01*
X150066938Y-118766618D01*
X150064955Y-118766357D01*
X150064190Y-118764509D01*
X150064904Y-118763224D01*
X150081667Y-118749467D01*
X150096962Y-118730830D01*
X150108327Y-118709566D01*
X150115327Y-118686491D01*
X150117690Y-118662500D01*
X150115327Y-118638509D01*
X150108327Y-118615434D01*
X150096962Y-118594170D01*
X150081667Y-118575533D01*
X150064904Y-118561776D01*
X150064200Y-118559904D01*
X150065469Y-118558358D01*
X150066938Y-118558382D01*
G37*
G36*
X151976938Y-117733382D02*
G01*
X152038692Y-117758962D01*
X152105795Y-117772310D01*
X152174205Y-117772310D01*
X152241308Y-117758962D01*
X152303062Y-117733382D01*
X152305045Y-117733643D01*
X152305810Y-117735491D01*
X152305096Y-117736776D01*
X152288333Y-117750533D01*
X152273038Y-117769170D01*
X152261673Y-117790434D01*
X152254673Y-117813509D01*
X152252310Y-117837500D01*
X152254673Y-117861491D01*
X152261673Y-117884566D01*
X152273038Y-117905830D01*
X152288333Y-117924467D01*
X152305096Y-117938224D01*
X152305800Y-117940096D01*
X152304531Y-117941642D01*
X152303062Y-117941618D01*
X152241308Y-117916038D01*
X152174205Y-117902690D01*
X152105795Y-117902690D01*
X152038692Y-117916038D01*
X151976938Y-117941618D01*
X151974955Y-117941357D01*
X151974190Y-117939509D01*
X151974904Y-117938224D01*
X151991667Y-117924467D01*
X152006962Y-117905830D01*
X152018327Y-117884566D01*
X152025327Y-117861491D01*
X152027690Y-117837500D01*
X152025327Y-117813509D01*
X152018327Y-117790434D01*
X152006962Y-117769170D01*
X151991667Y-117750533D01*
X151974904Y-117736776D01*
X151974200Y-117734904D01*
X151975469Y-117733358D01*
X151976938Y-117733382D01*
G37*
G36*
X150066938Y-117733382D02*
G01*
X150128692Y-117758962D01*
X150195795Y-117772310D01*
X150264205Y-117772310D01*
X150331308Y-117758962D01*
X150393062Y-117733382D01*
X150395045Y-117733643D01*
X150395810Y-117735491D01*
X150395096Y-117736776D01*
X150378333Y-117750533D01*
X150363038Y-117769170D01*
X150351673Y-117790434D01*
X150344673Y-117813509D01*
X150342310Y-117837500D01*
X150344673Y-117861491D01*
X150351673Y-117884566D01*
X150363038Y-117905830D01*
X150378333Y-117924467D01*
X150395096Y-117938224D01*
X150395800Y-117940096D01*
X150394531Y-117941642D01*
X150393062Y-117941618D01*
X150331308Y-117916038D01*
X150264205Y-117902690D01*
X150195795Y-117902690D01*
X150128692Y-117916038D01*
X150066938Y-117941618D01*
X150064955Y-117941357D01*
X150064190Y-117939509D01*
X150064904Y-117938224D01*
X150081667Y-117924467D01*
X150096962Y-117905830D01*
X150108327Y-117884566D01*
X150115327Y-117861491D01*
X150117690Y-117837500D01*
X150115327Y-117813509D01*
X150108327Y-117790434D01*
X150096962Y-117769170D01*
X150081667Y-117750533D01*
X150064904Y-117736776D01*
X150064200Y-117734904D01*
X150065469Y-117733358D01*
X150066938Y-117733382D01*
G37*
G36*
X150075000Y-116907456D02*
G01*
X150075487Y-116907781D01*
X150138692Y-116933962D01*
X150205795Y-116947310D01*
X150274205Y-116947310D01*
X150341308Y-116933962D01*
X150401846Y-116908886D01*
X150403829Y-116909147D01*
X150404594Y-116910995D01*
X150403722Y-116912397D01*
X150402048Y-116913516D01*
X150383333Y-116928874D01*
X150368038Y-116947511D01*
X150356673Y-116968775D01*
X150349673Y-116991850D01*
X150347310Y-117015841D01*
X150349673Y-117039832D01*
X150356673Y-117062907D01*
X150368038Y-117084171D01*
X150383333Y-117102808D01*
X150397380Y-117114335D01*
X150398084Y-117116207D01*
X150396816Y-117117753D01*
X150395000Y-117117544D01*
X150394513Y-117117219D01*
X150331308Y-117091038D01*
X150264205Y-117077690D01*
X150195795Y-117077690D01*
X150128692Y-117091038D01*
X150068154Y-117116114D01*
X150066171Y-117115853D01*
X150065406Y-117114005D01*
X150066278Y-117112603D01*
X150067952Y-117111484D01*
X150086667Y-117096126D01*
X150101962Y-117077489D01*
X150113327Y-117056225D01*
X150120327Y-117033150D01*
X150122690Y-117009159D01*
X150120327Y-116985168D01*
X150113327Y-116962093D01*
X150101962Y-116940829D01*
X150086667Y-116922192D01*
X150072620Y-116910665D01*
X150071916Y-116908793D01*
X150073184Y-116907247D01*
X150075000Y-116907456D01*
G37*
G36*
X151985000Y-116907456D02*
G01*
X151985487Y-116907781D01*
X152048692Y-116933962D01*
X152115795Y-116947310D01*
X152184205Y-116947310D01*
X152251308Y-116933962D01*
X152311846Y-116908886D01*
X152313829Y-116909147D01*
X152314594Y-116910995D01*
X152313722Y-116912397D01*
X152312048Y-116913516D01*
X152293333Y-116928874D01*
X152278038Y-116947511D01*
X152266673Y-116968775D01*
X152259673Y-116991850D01*
X152257310Y-117015841D01*
X152259673Y-117039832D01*
X152266673Y-117062907D01*
X152278038Y-117084171D01*
X152293333Y-117102808D01*
X152307380Y-117114335D01*
X152308084Y-117116207D01*
X152306816Y-117117753D01*
X152305000Y-117117544D01*
X152304513Y-117117219D01*
X152241308Y-117091038D01*
X152174205Y-117077690D01*
X152105795Y-117077690D01*
X152038692Y-117091038D01*
X151978154Y-117116114D01*
X151976171Y-117115853D01*
X151975406Y-117114005D01*
X151976278Y-117112603D01*
X151977952Y-117111484D01*
X151996667Y-117096126D01*
X152011962Y-117077489D01*
X152023327Y-117056225D01*
X152030327Y-117033150D01*
X152032690Y-117009159D01*
X152030327Y-116985168D01*
X152023327Y-116962093D01*
X152011962Y-116940829D01*
X151996667Y-116922192D01*
X151982620Y-116910665D01*
X151981916Y-116908793D01*
X151983184Y-116907247D01*
X151985000Y-116907456D01*
G37*
G36*
X150066938Y-84603382D02*
G01*
X150128692Y-84628962D01*
X150195795Y-84642310D01*
X150264205Y-84642310D01*
X150331308Y-84628962D01*
X150393062Y-84603382D01*
X150395045Y-84603643D01*
X150395810Y-84605491D01*
X150395096Y-84606776D01*
X150378333Y-84620533D01*
X150363038Y-84639170D01*
X150351673Y-84660434D01*
X150344673Y-84683509D01*
X150342310Y-84707500D01*
X150344673Y-84731491D01*
X150351673Y-84754566D01*
X150363038Y-84775830D01*
X150378333Y-84794467D01*
X150395096Y-84808224D01*
X150395800Y-84810096D01*
X150394531Y-84811642D01*
X150393062Y-84811618D01*
X150331308Y-84786038D01*
X150264205Y-84772690D01*
X150195795Y-84772690D01*
X150128692Y-84786038D01*
X150066938Y-84811618D01*
X150064955Y-84811357D01*
X150064190Y-84809509D01*
X150064904Y-84808224D01*
X150081667Y-84794467D01*
X150096962Y-84775830D01*
X150108327Y-84754566D01*
X150115327Y-84731491D01*
X150117690Y-84707500D01*
X150115327Y-84683509D01*
X150108327Y-84660434D01*
X150096962Y-84639170D01*
X150081667Y-84620533D01*
X150064904Y-84606776D01*
X150064200Y-84604904D01*
X150065469Y-84603358D01*
X150066938Y-84603382D01*
G37*
G36*
X151976938Y-84603382D02*
G01*
X152038692Y-84628962D01*
X152105795Y-84642310D01*
X152174205Y-84642310D01*
X152241308Y-84628962D01*
X152303062Y-84603382D01*
X152305045Y-84603643D01*
X152305810Y-84605491D01*
X152305096Y-84606776D01*
X152288333Y-84620533D01*
X152273038Y-84639170D01*
X152261673Y-84660434D01*
X152254673Y-84683509D01*
X152252310Y-84707500D01*
X152254673Y-84731491D01*
X152261673Y-84754566D01*
X152273038Y-84775830D01*
X152288333Y-84794467D01*
X152305096Y-84808224D01*
X152305800Y-84810096D01*
X152304531Y-84811642D01*
X152303062Y-84811618D01*
X152241308Y-84786038D01*
X152174205Y-84772690D01*
X152105795Y-84772690D01*
X152038692Y-84786038D01*
X151976938Y-84811618D01*
X151974955Y-84811357D01*
X151974190Y-84809509D01*
X151974904Y-84808224D01*
X151991667Y-84794467D01*
X152006962Y-84775830D01*
X152018327Y-84754566D01*
X152025327Y-84731491D01*
X152027690Y-84707500D01*
X152025327Y-84683509D01*
X152018327Y-84660434D01*
X152006962Y-84639170D01*
X151991667Y-84620533D01*
X151974904Y-84606776D01*
X151974200Y-84604904D01*
X151975469Y-84603358D01*
X151976938Y-84603382D01*
G37*
G36*
X150066938Y-83778382D02*
G01*
X150128692Y-83803962D01*
X150195795Y-83817310D01*
X150264205Y-83817310D01*
X150331308Y-83803962D01*
X150393062Y-83778382D01*
X150395045Y-83778643D01*
X150395810Y-83780491D01*
X150395096Y-83781776D01*
X150378333Y-83795533D01*
X150363038Y-83814170D01*
X150351673Y-83835434D01*
X150344673Y-83858509D01*
X150342310Y-83882500D01*
X150344673Y-83906491D01*
X150351673Y-83929566D01*
X150363038Y-83950830D01*
X150378333Y-83969467D01*
X150395096Y-83983224D01*
X150395800Y-83985096D01*
X150394531Y-83986642D01*
X150393062Y-83986618D01*
X150331308Y-83961038D01*
X150264205Y-83947690D01*
X150195795Y-83947690D01*
X150128692Y-83961038D01*
X150066938Y-83986618D01*
X150064955Y-83986357D01*
X150064190Y-83984509D01*
X150064904Y-83983224D01*
X150081667Y-83969467D01*
X150096962Y-83950830D01*
X150108327Y-83929566D01*
X150115327Y-83906491D01*
X150117690Y-83882500D01*
X150115327Y-83858509D01*
X150108327Y-83835434D01*
X150096962Y-83814170D01*
X150081667Y-83795533D01*
X150064904Y-83781776D01*
X150064200Y-83779904D01*
X150065469Y-83778358D01*
X150066938Y-83778382D01*
G37*
G36*
X151976938Y-83778382D02*
G01*
X152038692Y-83803962D01*
X152105795Y-83817310D01*
X152174205Y-83817310D01*
X152241308Y-83803962D01*
X152303062Y-83778382D01*
X152305045Y-83778643D01*
X152305810Y-83780491D01*
X152305096Y-83781776D01*
X152288333Y-83795533D01*
X152273038Y-83814170D01*
X152261673Y-83835434D01*
X152254673Y-83858509D01*
X152252310Y-83882500D01*
X152254673Y-83906491D01*
X152261673Y-83929566D01*
X152273038Y-83950830D01*
X152288333Y-83969467D01*
X152305096Y-83983224D01*
X152305800Y-83985096D01*
X152304531Y-83986642D01*
X152303062Y-83986618D01*
X152241308Y-83961038D01*
X152174205Y-83947690D01*
X152105795Y-83947690D01*
X152038692Y-83961038D01*
X151976938Y-83986618D01*
X151974955Y-83986357D01*
X151974190Y-83984509D01*
X151974904Y-83983224D01*
X151991667Y-83969467D01*
X152006962Y-83950830D01*
X152018327Y-83929566D01*
X152025327Y-83906491D01*
X152027690Y-83882500D01*
X152025327Y-83858509D01*
X152018327Y-83835434D01*
X152006962Y-83814170D01*
X151991667Y-83795533D01*
X151974904Y-83781776D01*
X151974200Y-83779904D01*
X151975469Y-83778358D01*
X151976938Y-83778382D01*
G37*
G36*
X150066938Y-82953382D02*
G01*
X150128692Y-82978962D01*
X150195795Y-82992310D01*
X150264205Y-82992310D01*
X150331308Y-82978962D01*
X150393062Y-82953382D01*
X150395045Y-82953643D01*
X150395810Y-82955491D01*
X150395096Y-82956776D01*
X150378333Y-82970533D01*
X150363038Y-82989170D01*
X150351673Y-83010434D01*
X150344673Y-83033509D01*
X150342310Y-83057500D01*
X150344673Y-83081491D01*
X150351673Y-83104566D01*
X150363038Y-83125830D01*
X150378333Y-83144467D01*
X150395096Y-83158224D01*
X150395800Y-83160096D01*
X150394531Y-83161642D01*
X150393062Y-83161618D01*
X150331308Y-83136038D01*
X150264205Y-83122690D01*
X150195795Y-83122690D01*
X150128692Y-83136038D01*
X150066938Y-83161618D01*
X150064955Y-83161357D01*
X150064190Y-83159509D01*
X150064904Y-83158224D01*
X150081667Y-83144467D01*
X150096962Y-83125830D01*
X150108327Y-83104566D01*
X150115327Y-83081491D01*
X150117690Y-83057500D01*
X150115327Y-83033509D01*
X150108327Y-83010434D01*
X150096962Y-82989170D01*
X150081667Y-82970533D01*
X150064904Y-82956776D01*
X150064200Y-82954904D01*
X150065469Y-82953358D01*
X150066938Y-82953382D01*
G37*
G36*
X151976938Y-82953382D02*
G01*
X152038692Y-82978962D01*
X152105795Y-82992310D01*
X152174205Y-82992310D01*
X152241308Y-82978962D01*
X152303062Y-82953382D01*
X152305045Y-82953643D01*
X152305810Y-82955491D01*
X152305096Y-82956776D01*
X152288333Y-82970533D01*
X152273038Y-82989170D01*
X152261673Y-83010434D01*
X152254673Y-83033509D01*
X152252310Y-83057500D01*
X152254673Y-83081491D01*
X152261673Y-83104566D01*
X152273038Y-83125830D01*
X152288333Y-83144467D01*
X152305096Y-83158224D01*
X152305800Y-83160096D01*
X152304531Y-83161642D01*
X152303062Y-83161618D01*
X152241308Y-83136038D01*
X152174205Y-83122690D01*
X152105795Y-83122690D01*
X152038692Y-83136038D01*
X151976938Y-83161618D01*
X151974955Y-83161357D01*
X151974190Y-83159509D01*
X151974904Y-83158224D01*
X151991667Y-83144467D01*
X152006962Y-83125830D01*
X152018327Y-83104566D01*
X152025327Y-83081491D01*
X152027690Y-83057500D01*
X152025327Y-83033509D01*
X152018327Y-83010434D01*
X152006962Y-82989170D01*
X151991667Y-82970533D01*
X151974904Y-82956776D01*
X151974200Y-82954904D01*
X151975469Y-82953358D01*
X151976938Y-82953382D01*
G37*
G36*
X150066938Y-82128382D02*
G01*
X150128692Y-82153962D01*
X150195795Y-82167310D01*
X150264205Y-82167310D01*
X150331308Y-82153962D01*
X150393062Y-82128382D01*
X150395045Y-82128643D01*
X150395810Y-82130491D01*
X150395096Y-82131776D01*
X150378333Y-82145533D01*
X150363038Y-82164170D01*
X150351673Y-82185434D01*
X150344673Y-82208509D01*
X150342310Y-82232500D01*
X150344673Y-82256491D01*
X150351673Y-82279566D01*
X150363038Y-82300830D01*
X150378333Y-82319467D01*
X150395096Y-82333224D01*
X150395800Y-82335096D01*
X150394531Y-82336642D01*
X150393062Y-82336618D01*
X150331308Y-82311038D01*
X150264205Y-82297690D01*
X150195795Y-82297690D01*
X150128692Y-82311038D01*
X150066938Y-82336618D01*
X150064955Y-82336357D01*
X150064190Y-82334509D01*
X150064904Y-82333224D01*
X150081667Y-82319467D01*
X150096962Y-82300830D01*
X150108327Y-82279566D01*
X150115327Y-82256491D01*
X150117690Y-82232500D01*
X150115327Y-82208509D01*
X150108327Y-82185434D01*
X150096962Y-82164170D01*
X150081667Y-82145533D01*
X150064904Y-82131776D01*
X150064200Y-82129904D01*
X150065469Y-82128358D01*
X150066938Y-82128382D01*
G37*
G36*
X151976938Y-82128382D02*
G01*
X152038692Y-82153962D01*
X152105795Y-82167310D01*
X152174205Y-82167310D01*
X152241308Y-82153962D01*
X152303062Y-82128382D01*
X152305045Y-82128643D01*
X152305810Y-82130491D01*
X152305096Y-82131776D01*
X152288333Y-82145533D01*
X152273038Y-82164170D01*
X152261673Y-82185434D01*
X152254673Y-82208509D01*
X152252310Y-82232500D01*
X152254673Y-82256491D01*
X152261673Y-82279566D01*
X152273038Y-82300830D01*
X152288333Y-82319467D01*
X152305096Y-82333224D01*
X152305800Y-82335096D01*
X152304531Y-82336642D01*
X152303062Y-82336618D01*
X152241308Y-82311038D01*
X152174205Y-82297690D01*
X152105795Y-82297690D01*
X152038692Y-82311038D01*
X151976938Y-82336618D01*
X151974955Y-82336357D01*
X151974190Y-82334509D01*
X151974904Y-82333224D01*
X151991667Y-82319467D01*
X152006962Y-82300830D01*
X152018327Y-82279566D01*
X152025327Y-82256491D01*
X152027690Y-82232500D01*
X152025327Y-82208509D01*
X152018327Y-82185434D01*
X152006962Y-82164170D01*
X151991667Y-82145533D01*
X151974904Y-82131776D01*
X151974200Y-82129904D01*
X151975469Y-82128358D01*
X151976938Y-82128382D01*
G37*
G36*
X151976938Y-81303382D02*
G01*
X152038692Y-81328962D01*
X152105795Y-81342310D01*
X152174205Y-81342310D01*
X152241308Y-81328962D01*
X152303062Y-81303382D01*
X152305045Y-81303643D01*
X152305810Y-81305491D01*
X152305096Y-81306776D01*
X152288333Y-81320533D01*
X152273038Y-81339170D01*
X152261673Y-81360434D01*
X152254673Y-81383509D01*
X152252310Y-81407500D01*
X152254673Y-81431491D01*
X152261673Y-81454566D01*
X152273038Y-81475830D01*
X152288333Y-81494467D01*
X152305096Y-81508224D01*
X152305800Y-81510096D01*
X152304531Y-81511642D01*
X152303062Y-81511618D01*
X152241308Y-81486038D01*
X152174205Y-81472690D01*
X152105795Y-81472690D01*
X152038692Y-81486038D01*
X151976938Y-81511618D01*
X151974955Y-81511357D01*
X151974190Y-81509509D01*
X151974904Y-81508224D01*
X151991667Y-81494467D01*
X152006962Y-81475830D01*
X152018327Y-81454566D01*
X152025327Y-81431491D01*
X152027690Y-81407500D01*
X152025327Y-81383509D01*
X152018327Y-81360434D01*
X152006962Y-81339170D01*
X151991667Y-81320533D01*
X151974904Y-81306776D01*
X151974200Y-81304904D01*
X151975469Y-81303358D01*
X151976938Y-81303382D01*
G37*
G36*
X150066938Y-81303382D02*
G01*
X150128692Y-81328962D01*
X150195795Y-81342310D01*
X150264205Y-81342310D01*
X150331308Y-81328962D01*
X150393062Y-81303382D01*
X150395045Y-81303643D01*
X150395810Y-81305491D01*
X150395096Y-81306776D01*
X150378333Y-81320533D01*
X150363038Y-81339170D01*
X150351673Y-81360434D01*
X150344673Y-81383509D01*
X150342310Y-81407500D01*
X150344673Y-81431491D01*
X150351673Y-81454566D01*
X150363038Y-81475830D01*
X150378333Y-81494467D01*
X150395096Y-81508224D01*
X150395800Y-81510096D01*
X150394531Y-81511642D01*
X150393062Y-81511618D01*
X150331308Y-81486038D01*
X150264205Y-81472690D01*
X150195795Y-81472690D01*
X150128692Y-81486038D01*
X150066938Y-81511618D01*
X150064955Y-81511357D01*
X150064190Y-81509509D01*
X150064904Y-81508224D01*
X150081667Y-81494467D01*
X150096962Y-81475830D01*
X150108327Y-81454566D01*
X150115327Y-81431491D01*
X150117690Y-81407500D01*
X150115327Y-81383509D01*
X150108327Y-81360434D01*
X150096962Y-81339170D01*
X150081667Y-81320533D01*
X150064904Y-81306776D01*
X150064200Y-81304904D01*
X150065469Y-81303358D01*
X150066938Y-81303382D01*
G37*
G36*
X151976938Y-80478382D02*
G01*
X152038692Y-80503962D01*
X152105795Y-80517310D01*
X152174205Y-80517310D01*
X152241308Y-80503962D01*
X152303062Y-80478382D01*
X152305045Y-80478643D01*
X152305810Y-80480491D01*
X152305096Y-80481776D01*
X152288333Y-80495533D01*
X152273038Y-80514170D01*
X152261673Y-80535434D01*
X152254673Y-80558509D01*
X152252310Y-80582500D01*
X152254673Y-80606491D01*
X152261673Y-80629566D01*
X152273038Y-80650830D01*
X152288333Y-80669467D01*
X152305096Y-80683224D01*
X152305800Y-80685096D01*
X152304531Y-80686642D01*
X152303062Y-80686618D01*
X152241308Y-80661038D01*
X152174205Y-80647690D01*
X152105795Y-80647690D01*
X152038692Y-80661038D01*
X151976938Y-80686618D01*
X151974955Y-80686357D01*
X151974190Y-80684509D01*
X151974904Y-80683224D01*
X151991667Y-80669467D01*
X152006962Y-80650830D01*
X152018327Y-80629566D01*
X152025327Y-80606491D01*
X152027690Y-80582500D01*
X152025327Y-80558509D01*
X152018327Y-80535434D01*
X152006962Y-80514170D01*
X151991667Y-80495533D01*
X151974904Y-80481776D01*
X151974200Y-80479904D01*
X151975469Y-80478358D01*
X151976938Y-80478382D01*
G37*
G36*
X150066938Y-80478382D02*
G01*
X150128692Y-80503962D01*
X150195795Y-80517310D01*
X150264205Y-80517310D01*
X150331308Y-80503962D01*
X150393062Y-80478382D01*
X150395045Y-80478643D01*
X150395810Y-80480491D01*
X150395096Y-80481776D01*
X150378333Y-80495533D01*
X150363038Y-80514170D01*
X150351673Y-80535434D01*
X150344673Y-80558509D01*
X150342310Y-80582500D01*
X150344673Y-80606491D01*
X150351673Y-80629566D01*
X150363038Y-80650830D01*
X150378333Y-80669467D01*
X150395096Y-80683224D01*
X150395800Y-80685096D01*
X150394531Y-80686642D01*
X150393062Y-80686618D01*
X150331308Y-80661038D01*
X150264205Y-80647690D01*
X150195795Y-80647690D01*
X150128692Y-80661038D01*
X150066938Y-80686618D01*
X150064955Y-80686357D01*
X150064190Y-80684509D01*
X150064904Y-80683224D01*
X150081667Y-80669467D01*
X150096962Y-80650830D01*
X150108327Y-80629566D01*
X150115327Y-80606491D01*
X150117690Y-80582500D01*
X150115327Y-80558509D01*
X150108327Y-80535434D01*
X150096962Y-80514170D01*
X150081667Y-80495533D01*
X150064904Y-80481776D01*
X150064200Y-80479904D01*
X150065469Y-80478358D01*
X150066938Y-80478382D01*
G37*
G36*
X151976938Y-79653382D02*
G01*
X152038692Y-79678962D01*
X152105795Y-79692310D01*
X152174205Y-79692310D01*
X152241308Y-79678962D01*
X152303062Y-79653382D01*
X152305045Y-79653643D01*
X152305810Y-79655491D01*
X152305096Y-79656776D01*
X152288333Y-79670533D01*
X152273038Y-79689170D01*
X152261673Y-79710434D01*
X152254673Y-79733509D01*
X152252310Y-79757500D01*
X152254673Y-79781491D01*
X152261673Y-79804566D01*
X152273038Y-79825830D01*
X152288333Y-79844467D01*
X152305096Y-79858224D01*
X152305800Y-79860096D01*
X152304531Y-79861642D01*
X152303062Y-79861618D01*
X152241308Y-79836038D01*
X152174205Y-79822690D01*
X152105795Y-79822690D01*
X152038692Y-79836038D01*
X151976938Y-79861618D01*
X151974955Y-79861357D01*
X151974190Y-79859509D01*
X151974904Y-79858224D01*
X151991667Y-79844467D01*
X152006962Y-79825830D01*
X152018327Y-79804566D01*
X152025327Y-79781491D01*
X152027690Y-79757500D01*
X152025327Y-79733509D01*
X152018327Y-79710434D01*
X152006962Y-79689170D01*
X151991667Y-79670533D01*
X151974904Y-79656776D01*
X151974200Y-79654904D01*
X151975469Y-79653358D01*
X151976938Y-79653382D01*
G37*
G36*
X150066938Y-79653382D02*
G01*
X150128692Y-79678962D01*
X150195795Y-79692310D01*
X150264205Y-79692310D01*
X150331308Y-79678962D01*
X150393062Y-79653382D01*
X150395045Y-79653643D01*
X150395810Y-79655491D01*
X150395096Y-79656776D01*
X150378333Y-79670533D01*
X150363038Y-79689170D01*
X150351673Y-79710434D01*
X150344673Y-79733509D01*
X150342310Y-79757500D01*
X150344673Y-79781491D01*
X150351673Y-79804566D01*
X150363038Y-79825830D01*
X150378333Y-79844467D01*
X150395096Y-79858224D01*
X150395800Y-79860096D01*
X150394531Y-79861642D01*
X150393062Y-79861618D01*
X150331308Y-79836038D01*
X150264205Y-79822690D01*
X150195795Y-79822690D01*
X150128692Y-79836038D01*
X150066938Y-79861618D01*
X150064955Y-79861357D01*
X150064190Y-79859509D01*
X150064904Y-79858224D01*
X150081667Y-79844467D01*
X150096962Y-79825830D01*
X150108327Y-79804566D01*
X150115327Y-79781491D01*
X150117690Y-79757500D01*
X150115327Y-79733509D01*
X150108327Y-79710434D01*
X150096962Y-79689170D01*
X150081667Y-79670533D01*
X150064904Y-79656776D01*
X150064200Y-79654904D01*
X150065469Y-79653358D01*
X150066938Y-79653382D01*
G37*
G36*
X151985000Y-78827456D02*
G01*
X151985487Y-78827781D01*
X152048692Y-78853962D01*
X152115795Y-78867310D01*
X152184205Y-78867310D01*
X152251308Y-78853962D01*
X152311846Y-78828886D01*
X152313829Y-78829147D01*
X152314594Y-78830995D01*
X152313722Y-78832397D01*
X152312048Y-78833516D01*
X152293333Y-78848874D01*
X152278038Y-78867511D01*
X152266673Y-78888775D01*
X152259673Y-78911850D01*
X152257310Y-78935841D01*
X152259673Y-78959832D01*
X152266673Y-78982907D01*
X152278038Y-79004171D01*
X152293333Y-79022808D01*
X152307380Y-79034335D01*
X152308084Y-79036207D01*
X152306816Y-79037753D01*
X152305000Y-79037544D01*
X152304513Y-79037219D01*
X152241308Y-79011038D01*
X152174205Y-78997690D01*
X152105795Y-78997690D01*
X152038692Y-79011038D01*
X151978154Y-79036114D01*
X151976171Y-79035853D01*
X151975406Y-79034005D01*
X151976278Y-79032603D01*
X151977952Y-79031484D01*
X151996667Y-79016126D01*
X152011962Y-78997489D01*
X152023327Y-78976225D01*
X152030327Y-78953150D01*
X152032690Y-78929159D01*
X152030327Y-78905168D01*
X152023327Y-78882093D01*
X152011962Y-78860829D01*
X151996667Y-78842192D01*
X151982620Y-78830665D01*
X151981916Y-78828793D01*
X151983184Y-78827247D01*
X151985000Y-78827456D01*
G37*
G36*
X150075000Y-78827456D02*
G01*
X150075487Y-78827781D01*
X150138692Y-78853962D01*
X150205795Y-78867310D01*
X150274205Y-78867310D01*
X150341308Y-78853962D01*
X150401846Y-78828886D01*
X150403829Y-78829147D01*
X150404594Y-78830995D01*
X150403722Y-78832397D01*
X150402048Y-78833516D01*
X150383333Y-78848874D01*
X150368038Y-78867511D01*
X150356673Y-78888775D01*
X150349673Y-78911850D01*
X150347310Y-78935841D01*
X150349673Y-78959832D01*
X150356673Y-78982907D01*
X150368038Y-79004171D01*
X150383333Y-79022808D01*
X150397380Y-79034335D01*
X150398084Y-79036207D01*
X150396816Y-79037753D01*
X150395000Y-79037544D01*
X150394513Y-79037219D01*
X150331308Y-79011038D01*
X150264205Y-78997690D01*
X150195795Y-78997690D01*
X150128692Y-79011038D01*
X150068154Y-79036114D01*
X150066171Y-79035853D01*
X150065406Y-79034005D01*
X150066278Y-79032603D01*
X150067952Y-79031484D01*
X150086667Y-79016126D01*
X150101962Y-78997489D01*
X150113327Y-78976225D01*
X150120327Y-78953150D01*
X150122690Y-78929159D01*
X150120327Y-78905168D01*
X150113327Y-78882093D01*
X150101962Y-78860829D01*
X150086667Y-78842192D01*
X150072620Y-78830665D01*
X150071916Y-78828793D01*
X150073184Y-78827247D01*
X150075000Y-78827456D01*
G37*
M02*
