G04 #@! TF.GenerationSoftware,KiCad,Pcbnew,(5.1.9)-1*
G04 #@! TF.CreationDate,2021-01-26T21:27:30-05:00*
G04 #@! TF.ProjectId,reviung34-split-L,72657669-756e-4673-9334-2d73706c6974,2.0*
G04 #@! TF.SameCoordinates,Original*
G04 #@! TF.FileFunction,Legend,Bot*
G04 #@! TF.FilePolarity,Positive*
%FSLAX46Y46*%
G04 Gerber Fmt 4.6, Leading zero omitted, Abs format (unit mm)*
G04 Created by KiCad (PCBNEW (5.1.9)-1) date 2021-01-26 21:27:30*
%MOMM*%
%LPD*%
G01*
G04 APERTURE LIST*
%ADD10C,0.150000*%
%ADD11C,1.000000*%
%ADD12C,0.400000*%
%ADD13C,0.500000*%
%ADD14C,3.500000*%
%ADD15C,3.000000*%
%ADD16C,0.800000*%
%ADD17C,0.300000*%
G04 APERTURE END LIST*
D10*
X131091318Y-140071471D02*
G75*
G02*
X128875000Y-141950000I-2151318J291471D01*
G01*
X134375000Y-143649999D02*
G75*
G02*
X132275001Y-145550000I-2000000J99999D01*
G01*
D11*
X131491318Y-140471471D02*
G75*
G02*
X129275000Y-142350000I-2151318J291471D01*
G01*
D12*
X124225000Y-145350000D02*
X125475000Y-145350000D01*
D13*
X133925000Y-140250000D02*
X131475000Y-140250000D01*
D10*
X124075000Y-145550000D02*
X132275001Y-145550000D01*
X128875000Y-141950000D02*
X124075000Y-141950000D01*
X134125000Y-140050000D02*
X131095000Y-140050000D01*
X134375000Y-143650000D02*
X134375000Y-142900000D01*
X134125000Y-144500000D02*
X134125000Y-140050000D01*
X134375000Y-142900000D02*
X134175000Y-142900000D01*
X124095000Y-142950000D02*
X124095000Y-145200000D01*
X124075000Y-141950000D02*
X124075000Y-145550000D01*
D14*
X125875000Y-143750000D02*
X132575000Y-143750000D01*
D11*
X124575000Y-144950000D02*
X124575000Y-142450000D01*
D13*
X124275000Y-142200000D02*
X125575000Y-142250000D01*
D15*
X132645000Y-144050000D02*
X132645000Y-141810000D01*
D16*
X133775000Y-140550000D02*
X133775000Y-142349999D01*
D17*
X134275000Y-143000000D02*
X134275000Y-143650000D01*
D10*
X176551318Y-140071471D02*
G75*
G02*
X174335000Y-141950000I-2151318J291471D01*
G01*
X179835000Y-143649999D02*
G75*
G02*
X177735001Y-145550000I-2000000J99999D01*
G01*
D11*
X176951318Y-140471471D02*
G75*
G02*
X174735000Y-142350000I-2151318J291471D01*
G01*
D12*
X169685000Y-145350000D02*
X170935000Y-145350000D01*
D13*
X179385000Y-140250000D02*
X176935000Y-140250000D01*
D10*
X169535000Y-145550000D02*
X177735001Y-145550000D01*
X174335000Y-141950000D02*
X169535000Y-141950000D01*
X179585000Y-140050000D02*
X176555000Y-140050000D01*
X179835000Y-143650000D02*
X179835000Y-142900000D01*
X179585000Y-144500000D02*
X179585000Y-140050000D01*
X179835000Y-142900000D02*
X179635000Y-142900000D01*
X169555000Y-142950000D02*
X169555000Y-145200000D01*
X169535000Y-141950000D02*
X169535000Y-145550000D01*
D14*
X171335000Y-143750000D02*
X178035000Y-143750000D01*
D11*
X170035000Y-144950000D02*
X170035000Y-142450000D01*
D13*
X169735000Y-142200000D02*
X171035000Y-142250000D01*
D15*
X178105000Y-144050000D02*
X178105000Y-141810000D01*
D16*
X179235000Y-140550000D02*
X179235000Y-142349999D01*
D17*
X179735000Y-143000000D02*
X179735000Y-143650000D01*
D10*
X237993682Y-118778529D02*
G75*
G02*
X240210000Y-116900000I2151318J-291471D01*
G01*
X234710000Y-115200001D02*
G75*
G02*
X236809999Y-113300000I2000000J-99999D01*
G01*
D11*
X237593682Y-118378529D02*
G75*
G02*
X239810000Y-116500000I2151318J-291471D01*
G01*
D12*
X244860000Y-113500000D02*
X243610000Y-113500000D01*
D13*
X235160000Y-118600000D02*
X237610000Y-118600000D01*
D10*
X245010000Y-113300000D02*
X236809999Y-113300000D01*
X240210000Y-116900000D02*
X245010000Y-116900000D01*
X234960000Y-118800000D02*
X237990000Y-118800000D01*
X234710000Y-115200000D02*
X234710000Y-115950000D01*
X234960000Y-114350000D02*
X234960000Y-118800000D01*
X234710000Y-115950000D02*
X234910000Y-115950000D01*
X244990000Y-115900000D02*
X244990000Y-113650000D01*
X245010000Y-116900000D02*
X245010000Y-113300000D01*
D14*
X243210000Y-115100000D02*
X236510000Y-115100000D01*
D11*
X244510000Y-113900000D02*
X244510000Y-116400000D01*
D13*
X244810000Y-116650000D02*
X243510000Y-116600000D01*
D15*
X236440000Y-114800000D02*
X236440000Y-117040000D01*
D16*
X235310000Y-118300000D02*
X235310000Y-116500001D01*
D17*
X234810000Y-115850000D02*
X234810000Y-115200000D01*
D10*
X237993682Y-99728529D02*
G75*
G02*
X240210000Y-97850000I2151318J-291471D01*
G01*
X234710000Y-96150001D02*
G75*
G02*
X236809999Y-94250000I2000000J-99999D01*
G01*
D11*
X237593682Y-99328529D02*
G75*
G02*
X239810000Y-97450000I2151318J-291471D01*
G01*
D12*
X244860000Y-94450000D02*
X243610000Y-94450000D01*
D13*
X235160000Y-99550000D02*
X237610000Y-99550000D01*
D10*
X245010000Y-94250000D02*
X236809999Y-94250000D01*
X240210000Y-97850000D02*
X245010000Y-97850000D01*
X234960000Y-99750000D02*
X237990000Y-99750000D01*
X234710000Y-96150000D02*
X234710000Y-96900000D01*
X234960000Y-95300000D02*
X234960000Y-99750000D01*
X234710000Y-96900000D02*
X234910000Y-96900000D01*
X244990000Y-96850000D02*
X244990000Y-94600000D01*
X245010000Y-97850000D02*
X245010000Y-94250000D01*
D14*
X243210000Y-96050000D02*
X236510000Y-96050000D01*
D11*
X244510000Y-94850000D02*
X244510000Y-97350000D01*
D13*
X244810000Y-97600000D02*
X243510000Y-97550000D01*
D15*
X236440000Y-95750000D02*
X236440000Y-97990000D01*
D16*
X235310000Y-99250000D02*
X235310000Y-97450001D01*
D17*
X234810000Y-96800000D02*
X234810000Y-96150000D01*
D10*
X237993682Y-80678529D02*
G75*
G02*
X240210000Y-78800000I2151318J-291471D01*
G01*
X234710000Y-77100001D02*
G75*
G02*
X236809999Y-75200000I2000000J-99999D01*
G01*
D11*
X237593682Y-80278529D02*
G75*
G02*
X239810000Y-78400000I2151318J-291471D01*
G01*
D12*
X244860000Y-75400000D02*
X243610000Y-75400000D01*
D13*
X235160000Y-80500000D02*
X237610000Y-80500000D01*
D10*
X245010000Y-75200000D02*
X236809999Y-75200000D01*
X240210000Y-78800000D02*
X245010000Y-78800000D01*
X234960000Y-80700000D02*
X237990000Y-80700000D01*
X234710000Y-77100000D02*
X234710000Y-77850000D01*
X234960000Y-76250000D02*
X234960000Y-80700000D01*
X234710000Y-77850000D02*
X234910000Y-77850000D01*
X244990000Y-77800000D02*
X244990000Y-75550000D01*
X245010000Y-78800000D02*
X245010000Y-75200000D01*
D14*
X243210000Y-77000000D02*
X236510000Y-77000000D01*
D11*
X244510000Y-75800000D02*
X244510000Y-78300000D01*
D13*
X244810000Y-78550000D02*
X243510000Y-78500000D01*
D15*
X236440000Y-76700000D02*
X236440000Y-78940000D01*
D16*
X235310000Y-80200000D02*
X235310000Y-78400001D01*
D17*
X234810000Y-77750000D02*
X234810000Y-77100000D01*
D10*
X218943682Y-118778529D02*
G75*
G02*
X221160000Y-116900000I2151318J-291471D01*
G01*
X215660000Y-115200001D02*
G75*
G02*
X217759999Y-113300000I2000000J-99999D01*
G01*
D11*
X218543682Y-118378529D02*
G75*
G02*
X220760000Y-116500000I2151318J-291471D01*
G01*
D12*
X225810000Y-113500000D02*
X224560000Y-113500000D01*
D13*
X216110000Y-118600000D02*
X218560000Y-118600000D01*
D10*
X225960000Y-113300000D02*
X217759999Y-113300000D01*
X221160000Y-116900000D02*
X225960000Y-116900000D01*
X215910000Y-118800000D02*
X218940000Y-118800000D01*
X215660000Y-115200000D02*
X215660000Y-115950000D01*
X215910000Y-114350000D02*
X215910000Y-118800000D01*
X215660000Y-115950000D02*
X215860000Y-115950000D01*
X225940000Y-115900000D02*
X225940000Y-113650000D01*
X225960000Y-116900000D02*
X225960000Y-113300000D01*
D14*
X224160000Y-115100000D02*
X217460000Y-115100000D01*
D11*
X225460000Y-113900000D02*
X225460000Y-116400000D01*
D13*
X225760000Y-116650000D02*
X224460000Y-116600000D01*
D15*
X217390000Y-114800000D02*
X217390000Y-117040000D01*
D16*
X216260000Y-118300000D02*
X216260000Y-116500001D01*
D17*
X215760000Y-115850000D02*
X215760000Y-115200000D01*
D10*
X199893682Y-118778529D02*
G75*
G02*
X202110000Y-116900000I2151318J-291471D01*
G01*
X196610000Y-115200001D02*
G75*
G02*
X198709999Y-113300000I2000000J-99999D01*
G01*
D11*
X199493682Y-118378529D02*
G75*
G02*
X201710000Y-116500000I2151318J-291471D01*
G01*
D12*
X206760000Y-113500000D02*
X205510000Y-113500000D01*
D13*
X197060000Y-118600000D02*
X199510000Y-118600000D01*
D10*
X206910000Y-113300000D02*
X198709999Y-113300000D01*
X202110000Y-116900000D02*
X206910000Y-116900000D01*
X196860000Y-118800000D02*
X199890000Y-118800000D01*
X196610000Y-115200000D02*
X196610000Y-115950000D01*
X196860000Y-114350000D02*
X196860000Y-118800000D01*
X196610000Y-115950000D02*
X196810000Y-115950000D01*
X206890000Y-115900000D02*
X206890000Y-113650000D01*
X206910000Y-116900000D02*
X206910000Y-113300000D01*
D14*
X205110000Y-115100000D02*
X198410000Y-115100000D01*
D11*
X206410000Y-113900000D02*
X206410000Y-116400000D01*
D13*
X206710000Y-116650000D02*
X205410000Y-116600000D01*
D15*
X198340000Y-114800000D02*
X198340000Y-117040000D01*
D16*
X197210000Y-118300000D02*
X197210000Y-116500001D01*
D17*
X196710000Y-115850000D02*
X196710000Y-115200000D01*
D10*
X180843682Y-118778529D02*
G75*
G02*
X183060000Y-116900000I2151318J-291471D01*
G01*
X177560000Y-115200001D02*
G75*
G02*
X179659999Y-113300000I2000000J-99999D01*
G01*
D11*
X180443682Y-118378529D02*
G75*
G02*
X182660000Y-116500000I2151318J-291471D01*
G01*
D12*
X187710000Y-113500000D02*
X186460000Y-113500000D01*
D13*
X178010000Y-118600000D02*
X180460000Y-118600000D01*
D10*
X187860000Y-113300000D02*
X179659999Y-113300000D01*
X183060000Y-116900000D02*
X187860000Y-116900000D01*
X177810000Y-118800000D02*
X180840000Y-118800000D01*
X177560000Y-115200000D02*
X177560000Y-115950000D01*
X177810000Y-114350000D02*
X177810000Y-118800000D01*
X177560000Y-115950000D02*
X177760000Y-115950000D01*
X187840000Y-115900000D02*
X187840000Y-113650000D01*
X187860000Y-116900000D02*
X187860000Y-113300000D01*
D14*
X186060000Y-115100000D02*
X179360000Y-115100000D01*
D11*
X187360000Y-113900000D02*
X187360000Y-116400000D01*
D13*
X187660000Y-116650000D02*
X186360000Y-116600000D01*
D15*
X179290000Y-114800000D02*
X179290000Y-117040000D01*
D16*
X178160000Y-118300000D02*
X178160000Y-116500001D01*
D17*
X177660000Y-115850000D02*
X177660000Y-115200000D01*
D10*
X161793682Y-118778529D02*
G75*
G02*
X164010000Y-116900000I2151318J-291471D01*
G01*
X158510000Y-115200001D02*
G75*
G02*
X160609999Y-113300000I2000000J-99999D01*
G01*
D11*
X161393682Y-118378529D02*
G75*
G02*
X163610000Y-116500000I2151318J-291471D01*
G01*
D12*
X168660000Y-113500000D02*
X167410000Y-113500000D01*
D13*
X158960000Y-118600000D02*
X161410000Y-118600000D01*
D10*
X168810000Y-113300000D02*
X160609999Y-113300000D01*
X164010000Y-116900000D02*
X168810000Y-116900000D01*
X158760000Y-118800000D02*
X161790000Y-118800000D01*
X158510000Y-115200000D02*
X158510000Y-115950000D01*
X158760000Y-114350000D02*
X158760000Y-118800000D01*
X158510000Y-115950000D02*
X158710000Y-115950000D01*
X168790000Y-115900000D02*
X168790000Y-113650000D01*
X168810000Y-116900000D02*
X168810000Y-113300000D01*
D14*
X167010000Y-115100000D02*
X160310000Y-115100000D01*
D11*
X168310000Y-113900000D02*
X168310000Y-116400000D01*
D13*
X168610000Y-116650000D02*
X167310000Y-116600000D01*
D15*
X160240000Y-114800000D02*
X160240000Y-117040000D01*
D16*
X159110000Y-118300000D02*
X159110000Y-116500001D01*
D17*
X158610000Y-115850000D02*
X158610000Y-115200000D01*
D10*
X218943682Y-99728529D02*
G75*
G02*
X221160000Y-97850000I2151318J-291471D01*
G01*
X215660000Y-96150001D02*
G75*
G02*
X217759999Y-94250000I2000000J-99999D01*
G01*
D11*
X218543682Y-99328529D02*
G75*
G02*
X220760000Y-97450000I2151318J-291471D01*
G01*
D12*
X225810000Y-94450000D02*
X224560000Y-94450000D01*
D13*
X216110000Y-99550000D02*
X218560000Y-99550000D01*
D10*
X225960000Y-94250000D02*
X217759999Y-94250000D01*
X221160000Y-97850000D02*
X225960000Y-97850000D01*
X215910000Y-99750000D02*
X218940000Y-99750000D01*
X215660000Y-96150000D02*
X215660000Y-96900000D01*
X215910000Y-95300000D02*
X215910000Y-99750000D01*
X215660000Y-96900000D02*
X215860000Y-96900000D01*
X225940000Y-96850000D02*
X225940000Y-94600000D01*
X225960000Y-97850000D02*
X225960000Y-94250000D01*
D14*
X224160000Y-96050000D02*
X217460000Y-96050000D01*
D11*
X225460000Y-94850000D02*
X225460000Y-97350000D01*
D13*
X225760000Y-97600000D02*
X224460000Y-97550000D01*
D15*
X217390000Y-95750000D02*
X217390000Y-97990000D01*
D16*
X216260000Y-99250000D02*
X216260000Y-97450001D01*
D17*
X215760000Y-96800000D02*
X215760000Y-96150000D01*
D10*
X199893682Y-99728529D02*
G75*
G02*
X202110000Y-97850000I2151318J-291471D01*
G01*
X196610000Y-96150001D02*
G75*
G02*
X198709999Y-94250000I2000000J-99999D01*
G01*
D11*
X199493682Y-99328529D02*
G75*
G02*
X201710000Y-97450000I2151318J-291471D01*
G01*
D12*
X206760000Y-94450000D02*
X205510000Y-94450000D01*
D13*
X197060000Y-99550000D02*
X199510000Y-99550000D01*
D10*
X206910000Y-94250000D02*
X198709999Y-94250000D01*
X202110000Y-97850000D02*
X206910000Y-97850000D01*
X196860000Y-99750000D02*
X199890000Y-99750000D01*
X196610000Y-96150000D02*
X196610000Y-96900000D01*
X196860000Y-95300000D02*
X196860000Y-99750000D01*
X196610000Y-96900000D02*
X196810000Y-96900000D01*
X206890000Y-96850000D02*
X206890000Y-94600000D01*
X206910000Y-97850000D02*
X206910000Y-94250000D01*
D14*
X205110000Y-96050000D02*
X198410000Y-96050000D01*
D11*
X206410000Y-94850000D02*
X206410000Y-97350000D01*
D13*
X206710000Y-97600000D02*
X205410000Y-97550000D01*
D15*
X198340000Y-95750000D02*
X198340000Y-97990000D01*
D16*
X197210000Y-99250000D02*
X197210000Y-97450001D01*
D17*
X196710000Y-96800000D02*
X196710000Y-96150000D01*
D10*
X180843682Y-99728529D02*
G75*
G02*
X183060000Y-97850000I2151318J-291471D01*
G01*
X177560000Y-96150001D02*
G75*
G02*
X179659999Y-94250000I2000000J-99999D01*
G01*
D11*
X180443682Y-99328529D02*
G75*
G02*
X182660000Y-97450000I2151318J-291471D01*
G01*
D12*
X187710000Y-94450000D02*
X186460000Y-94450000D01*
D13*
X178010000Y-99550000D02*
X180460000Y-99550000D01*
D10*
X187860000Y-94250000D02*
X179659999Y-94250000D01*
X183060000Y-97850000D02*
X187860000Y-97850000D01*
X177810000Y-99750000D02*
X180840000Y-99750000D01*
X177560000Y-96150000D02*
X177560000Y-96900000D01*
X177810000Y-95300000D02*
X177810000Y-99750000D01*
X177560000Y-96900000D02*
X177760000Y-96900000D01*
X187840000Y-96850000D02*
X187840000Y-94600000D01*
X187860000Y-97850000D02*
X187860000Y-94250000D01*
D14*
X186060000Y-96050000D02*
X179360000Y-96050000D01*
D11*
X187360000Y-94850000D02*
X187360000Y-97350000D01*
D13*
X187660000Y-97600000D02*
X186360000Y-97550000D01*
D15*
X179290000Y-95750000D02*
X179290000Y-97990000D01*
D16*
X178160000Y-99250000D02*
X178160000Y-97450001D01*
D17*
X177660000Y-96800000D02*
X177660000Y-96150000D01*
D10*
X161793682Y-99728529D02*
G75*
G02*
X164010000Y-97850000I2151318J-291471D01*
G01*
X158510000Y-96150001D02*
G75*
G02*
X160609999Y-94250000I2000000J-99999D01*
G01*
D11*
X161393682Y-99328529D02*
G75*
G02*
X163610000Y-97450000I2151318J-291471D01*
G01*
D12*
X168660000Y-94450000D02*
X167410000Y-94450000D01*
D13*
X158960000Y-99550000D02*
X161410000Y-99550000D01*
D10*
X168810000Y-94250000D02*
X160609999Y-94250000D01*
X164010000Y-97850000D02*
X168810000Y-97850000D01*
X158760000Y-99750000D02*
X161790000Y-99750000D01*
X158510000Y-96150000D02*
X158510000Y-96900000D01*
X158760000Y-95300000D02*
X158760000Y-99750000D01*
X158510000Y-96900000D02*
X158710000Y-96900000D01*
X168790000Y-96850000D02*
X168790000Y-94600000D01*
X168810000Y-97850000D02*
X168810000Y-94250000D01*
D14*
X167010000Y-96050000D02*
X160310000Y-96050000D01*
D11*
X168310000Y-94850000D02*
X168310000Y-97350000D01*
D13*
X168610000Y-97600000D02*
X167310000Y-97550000D01*
D15*
X160240000Y-95750000D02*
X160240000Y-97990000D01*
D16*
X159110000Y-99250000D02*
X159110000Y-97450001D01*
D17*
X158610000Y-96800000D02*
X158610000Y-96150000D01*
D10*
X218943682Y-80678529D02*
G75*
G02*
X221160000Y-78800000I2151318J-291471D01*
G01*
X215660000Y-77100001D02*
G75*
G02*
X217759999Y-75200000I2000000J-99999D01*
G01*
D11*
X218543682Y-80278529D02*
G75*
G02*
X220760000Y-78400000I2151318J-291471D01*
G01*
D12*
X225810000Y-75400000D02*
X224560000Y-75400000D01*
D13*
X216110000Y-80500000D02*
X218560000Y-80500000D01*
D10*
X225960000Y-75200000D02*
X217759999Y-75200000D01*
X221160000Y-78800000D02*
X225960000Y-78800000D01*
X215910000Y-80700000D02*
X218940000Y-80700000D01*
X215660000Y-77100000D02*
X215660000Y-77850000D01*
X215910000Y-76250000D02*
X215910000Y-80700000D01*
X215660000Y-77850000D02*
X215860000Y-77850000D01*
X225940000Y-77800000D02*
X225940000Y-75550000D01*
X225960000Y-78800000D02*
X225960000Y-75200000D01*
D14*
X224160000Y-77000000D02*
X217460000Y-77000000D01*
D11*
X225460000Y-75800000D02*
X225460000Y-78300000D01*
D13*
X225760000Y-78550000D02*
X224460000Y-78500000D01*
D15*
X217390000Y-76700000D02*
X217390000Y-78940000D01*
D16*
X216260000Y-80200000D02*
X216260000Y-78400001D01*
D17*
X215760000Y-77750000D02*
X215760000Y-77100000D01*
D10*
X199893682Y-80678529D02*
G75*
G02*
X202110000Y-78800000I2151318J-291471D01*
G01*
X196610000Y-77100001D02*
G75*
G02*
X198709999Y-75200000I2000000J-99999D01*
G01*
D11*
X199493682Y-80278529D02*
G75*
G02*
X201710000Y-78400000I2151318J-291471D01*
G01*
D12*
X206760000Y-75400000D02*
X205510000Y-75400000D01*
D13*
X197060000Y-80500000D02*
X199510000Y-80500000D01*
D10*
X206910000Y-75200000D02*
X198709999Y-75200000D01*
X202110000Y-78800000D02*
X206910000Y-78800000D01*
X196860000Y-80700000D02*
X199890000Y-80700000D01*
X196610000Y-77100000D02*
X196610000Y-77850000D01*
X196860000Y-76250000D02*
X196860000Y-80700000D01*
X196610000Y-77850000D02*
X196810000Y-77850000D01*
X206890000Y-77800000D02*
X206890000Y-75550000D01*
X206910000Y-78800000D02*
X206910000Y-75200000D01*
D14*
X205110000Y-77000000D02*
X198410000Y-77000000D01*
D11*
X206410000Y-75800000D02*
X206410000Y-78300000D01*
D13*
X206710000Y-78550000D02*
X205410000Y-78500000D01*
D15*
X198340000Y-76700000D02*
X198340000Y-78940000D01*
D16*
X197210000Y-80200000D02*
X197210000Y-78400001D01*
D17*
X196710000Y-77750000D02*
X196710000Y-77100000D01*
D10*
X180843682Y-80678529D02*
G75*
G02*
X183060000Y-78800000I2151318J-291471D01*
G01*
X177560000Y-77100001D02*
G75*
G02*
X179659999Y-75200000I2000000J-99999D01*
G01*
D11*
X180443682Y-80278529D02*
G75*
G02*
X182660000Y-78400000I2151318J-291471D01*
G01*
D12*
X187710000Y-75400000D02*
X186460000Y-75400000D01*
D13*
X178010000Y-80500000D02*
X180460000Y-80500000D01*
D10*
X187860000Y-75200000D02*
X179659999Y-75200000D01*
X183060000Y-78800000D02*
X187860000Y-78800000D01*
X177810000Y-80700000D02*
X180840000Y-80700000D01*
X177560000Y-77100000D02*
X177560000Y-77850000D01*
X177810000Y-76250000D02*
X177810000Y-80700000D01*
X177560000Y-77850000D02*
X177760000Y-77850000D01*
X187840000Y-77800000D02*
X187840000Y-75550000D01*
X187860000Y-78800000D02*
X187860000Y-75200000D01*
D14*
X186060000Y-77000000D02*
X179360000Y-77000000D01*
D11*
X187360000Y-75800000D02*
X187360000Y-78300000D01*
D13*
X187660000Y-78550000D02*
X186360000Y-78500000D01*
D15*
X179290000Y-76700000D02*
X179290000Y-78940000D01*
D16*
X178160000Y-80200000D02*
X178160000Y-78400001D01*
D17*
X177660000Y-77750000D02*
X177660000Y-77100000D01*
D10*
X161793682Y-80678529D02*
G75*
G02*
X164010000Y-78800000I2151318J-291471D01*
G01*
X158510000Y-77100001D02*
G75*
G02*
X160609999Y-75200000I2000000J-99999D01*
G01*
D11*
X161393682Y-80278529D02*
G75*
G02*
X163610000Y-78400000I2151318J-291471D01*
G01*
D12*
X168660000Y-75400000D02*
X167410000Y-75400000D01*
D13*
X158960000Y-80500000D02*
X161410000Y-80500000D01*
D10*
X168810000Y-75200000D02*
X160609999Y-75200000D01*
X164010000Y-78800000D02*
X168810000Y-78800000D01*
X158760000Y-80700000D02*
X161790000Y-80700000D01*
X158510000Y-77100000D02*
X158510000Y-77850000D01*
X158760000Y-76250000D02*
X158760000Y-80700000D01*
X158510000Y-77850000D02*
X158710000Y-77850000D01*
X168790000Y-77800000D02*
X168790000Y-75550000D01*
X168810000Y-78800000D02*
X168810000Y-75200000D01*
D14*
X167010000Y-77000000D02*
X160310000Y-77000000D01*
D11*
X168310000Y-75800000D02*
X168310000Y-78300000D01*
D13*
X168610000Y-78550000D02*
X167310000Y-78500000D01*
D15*
X160240000Y-76700000D02*
X160240000Y-78940000D01*
D16*
X159110000Y-80200000D02*
X159110000Y-78400001D01*
D17*
X158610000Y-77750000D02*
X158610000Y-77100000D01*
D10*
X135383682Y-137828529D02*
G75*
G02*
X137600000Y-135950000I2151318J-291471D01*
G01*
X132100000Y-134250001D02*
G75*
G02*
X134199999Y-132350000I2000000J-99999D01*
G01*
D11*
X134983682Y-137428529D02*
G75*
G02*
X137200000Y-135550000I2151318J-291471D01*
G01*
D12*
X142250000Y-132550000D02*
X141000000Y-132550000D01*
D13*
X132550000Y-137650000D02*
X135000000Y-137650000D01*
D10*
X142400000Y-132350000D02*
X134199999Y-132350000D01*
X137600000Y-135950000D02*
X142400000Y-135950000D01*
X132350000Y-137850000D02*
X135380000Y-137850000D01*
X132100000Y-134250000D02*
X132100000Y-135000000D01*
X132350000Y-133400000D02*
X132350000Y-137850000D01*
X132100000Y-135000000D02*
X132300000Y-135000000D01*
X142380000Y-134950000D02*
X142380000Y-132700000D01*
X142400000Y-135950000D02*
X142400000Y-132350000D01*
D14*
X140600000Y-134150000D02*
X133900000Y-134150000D01*
D11*
X141900000Y-132950000D02*
X141900000Y-135450000D01*
D13*
X142200000Y-135700000D02*
X140900000Y-135650000D01*
D15*
X133830000Y-133850000D02*
X133830000Y-136090000D01*
D16*
X132700000Y-137350000D02*
X132700000Y-135550001D01*
D17*
X132200000Y-134900000D02*
X132200000Y-134250000D01*
D10*
X116333682Y-137828529D02*
G75*
G02*
X118550000Y-135950000I2151318J-291471D01*
G01*
X113050000Y-134250001D02*
G75*
G02*
X115149999Y-132350000I2000000J-99999D01*
G01*
D11*
X115933682Y-137428529D02*
G75*
G02*
X118150000Y-135550000I2151318J-291471D01*
G01*
D12*
X123200000Y-132550000D02*
X121950000Y-132550000D01*
D13*
X113500000Y-137650000D02*
X115950000Y-137650000D01*
D10*
X123350000Y-132350000D02*
X115149999Y-132350000D01*
X118550000Y-135950000D02*
X123350000Y-135950000D01*
X113300000Y-137850000D02*
X116330000Y-137850000D01*
X113050000Y-134250000D02*
X113050000Y-135000000D01*
X113300000Y-133400000D02*
X113300000Y-137850000D01*
X113050000Y-135000000D02*
X113250000Y-135000000D01*
X123330000Y-134950000D02*
X123330000Y-132700000D01*
X123350000Y-135950000D02*
X123350000Y-132350000D01*
D14*
X121550000Y-134150000D02*
X114850000Y-134150000D01*
D11*
X122850000Y-132950000D02*
X122850000Y-135450000D01*
D13*
X123150000Y-135700000D02*
X121850000Y-135650000D01*
D15*
X114780000Y-133850000D02*
X114780000Y-136090000D01*
D16*
X113650000Y-137350000D02*
X113650000Y-135550001D01*
D17*
X113150000Y-134900000D02*
X113150000Y-134250000D01*
D10*
X97283682Y-137828529D02*
G75*
G02*
X99500000Y-135950000I2151318J-291471D01*
G01*
X94000000Y-134250001D02*
G75*
G02*
X96099999Y-132350000I2000000J-99999D01*
G01*
D11*
X96883682Y-137428529D02*
G75*
G02*
X99100000Y-135550000I2151318J-291471D01*
G01*
D12*
X104150000Y-132550000D02*
X102900000Y-132550000D01*
D13*
X94450000Y-137650000D02*
X96900000Y-137650000D01*
D10*
X104300000Y-132350000D02*
X96099999Y-132350000D01*
X99500000Y-135950000D02*
X104300000Y-135950000D01*
X94250000Y-137850000D02*
X97280000Y-137850000D01*
X94000000Y-134250000D02*
X94000000Y-135000000D01*
X94250000Y-133400000D02*
X94250000Y-137850000D01*
X94000000Y-135000000D02*
X94200000Y-135000000D01*
X104280000Y-134950000D02*
X104280000Y-132700000D01*
X104300000Y-135950000D02*
X104300000Y-132350000D01*
D14*
X102500000Y-134150000D02*
X95800000Y-134150000D01*
D11*
X103800000Y-132950000D02*
X103800000Y-135450000D01*
D13*
X104100000Y-135700000D02*
X102800000Y-135650000D01*
D15*
X95730000Y-133850000D02*
X95730000Y-136090000D01*
D16*
X94600000Y-137350000D02*
X94600000Y-135550001D01*
D17*
X94100000Y-134900000D02*
X94100000Y-134250000D01*
D10*
X135383682Y-118778529D02*
G75*
G02*
X137600000Y-116900000I2151318J-291471D01*
G01*
X132100000Y-115200001D02*
G75*
G02*
X134199999Y-113300000I2000000J-99999D01*
G01*
D11*
X134983682Y-118378529D02*
G75*
G02*
X137200000Y-116500000I2151318J-291471D01*
G01*
D12*
X142250000Y-113500000D02*
X141000000Y-113500000D01*
D13*
X132550000Y-118600000D02*
X135000000Y-118600000D01*
D10*
X142400000Y-113300000D02*
X134199999Y-113300000D01*
X137600000Y-116900000D02*
X142400000Y-116900000D01*
X132350000Y-118800000D02*
X135380000Y-118800000D01*
X132100000Y-115200000D02*
X132100000Y-115950000D01*
X132350000Y-114350000D02*
X132350000Y-118800000D01*
X132100000Y-115950000D02*
X132300000Y-115950000D01*
X142380000Y-115900000D02*
X142380000Y-113650000D01*
X142400000Y-116900000D02*
X142400000Y-113300000D01*
D14*
X140600000Y-115100000D02*
X133900000Y-115100000D01*
D11*
X141900000Y-113900000D02*
X141900000Y-116400000D01*
D13*
X142200000Y-116650000D02*
X140900000Y-116600000D01*
D15*
X133830000Y-114800000D02*
X133830000Y-117040000D01*
D16*
X132700000Y-118300000D02*
X132700000Y-116500001D01*
D17*
X132200000Y-115850000D02*
X132200000Y-115200000D01*
D10*
X116333682Y-118778529D02*
G75*
G02*
X118550000Y-116900000I2151318J-291471D01*
G01*
X113050000Y-115200001D02*
G75*
G02*
X115149999Y-113300000I2000000J-99999D01*
G01*
D11*
X115933682Y-118378529D02*
G75*
G02*
X118150000Y-116500000I2151318J-291471D01*
G01*
D12*
X123200000Y-113500000D02*
X121950000Y-113500000D01*
D13*
X113500000Y-118600000D02*
X115950000Y-118600000D01*
D10*
X123350000Y-113300000D02*
X115149999Y-113300000D01*
X118550000Y-116900000D02*
X123350000Y-116900000D01*
X113300000Y-118800000D02*
X116330000Y-118800000D01*
X113050000Y-115200000D02*
X113050000Y-115950000D01*
X113300000Y-114350000D02*
X113300000Y-118800000D01*
X113050000Y-115950000D02*
X113250000Y-115950000D01*
X123330000Y-115900000D02*
X123330000Y-113650000D01*
X123350000Y-116900000D02*
X123350000Y-113300000D01*
D14*
X121550000Y-115100000D02*
X114850000Y-115100000D01*
D11*
X122850000Y-113900000D02*
X122850000Y-116400000D01*
D13*
X123150000Y-116650000D02*
X121850000Y-116600000D01*
D15*
X114780000Y-114800000D02*
X114780000Y-117040000D01*
D16*
X113650000Y-118300000D02*
X113650000Y-116500001D01*
D17*
X113150000Y-115850000D02*
X113150000Y-115200000D01*
D10*
X97283682Y-118778529D02*
G75*
G02*
X99500000Y-116900000I2151318J-291471D01*
G01*
X94000000Y-115200001D02*
G75*
G02*
X96099999Y-113300000I2000000J-99999D01*
G01*
D11*
X96883682Y-118378529D02*
G75*
G02*
X99100000Y-116500000I2151318J-291471D01*
G01*
D12*
X104150000Y-113500000D02*
X102900000Y-113500000D01*
D13*
X94450000Y-118600000D02*
X96900000Y-118600000D01*
D10*
X104300000Y-113300000D02*
X96099999Y-113300000D01*
X99500000Y-116900000D02*
X104300000Y-116900000D01*
X94250000Y-118800000D02*
X97280000Y-118800000D01*
X94000000Y-115200000D02*
X94000000Y-115950000D01*
X94250000Y-114350000D02*
X94250000Y-118800000D01*
X94000000Y-115950000D02*
X94200000Y-115950000D01*
X104280000Y-115900000D02*
X104280000Y-113650000D01*
X104300000Y-116900000D02*
X104300000Y-113300000D01*
D14*
X102500000Y-115100000D02*
X95800000Y-115100000D01*
D11*
X103800000Y-113900000D02*
X103800000Y-116400000D01*
D13*
X104100000Y-116650000D02*
X102800000Y-116600000D01*
D15*
X95730000Y-114800000D02*
X95730000Y-117040000D01*
D16*
X94600000Y-118300000D02*
X94600000Y-116500001D01*
D17*
X94100000Y-115850000D02*
X94100000Y-115200000D01*
D10*
X78233682Y-118778529D02*
G75*
G02*
X80450000Y-116900000I2151318J-291471D01*
G01*
X74950000Y-115200001D02*
G75*
G02*
X77049999Y-113300000I2000000J-99999D01*
G01*
D11*
X77833682Y-118378529D02*
G75*
G02*
X80050000Y-116500000I2151318J-291471D01*
G01*
D12*
X85100000Y-113500000D02*
X83850000Y-113500000D01*
D13*
X75400000Y-118600000D02*
X77850000Y-118600000D01*
D10*
X85250000Y-113300000D02*
X77049999Y-113300000D01*
X80450000Y-116900000D02*
X85250000Y-116900000D01*
X75200000Y-118800000D02*
X78230000Y-118800000D01*
X74950000Y-115200000D02*
X74950000Y-115950000D01*
X75200000Y-114350000D02*
X75200000Y-118800000D01*
X74950000Y-115950000D02*
X75150000Y-115950000D01*
X85230000Y-115900000D02*
X85230000Y-113650000D01*
X85250000Y-116900000D02*
X85250000Y-113300000D01*
D14*
X83450000Y-115100000D02*
X76750000Y-115100000D01*
D11*
X84750000Y-113900000D02*
X84750000Y-116400000D01*
D13*
X85050000Y-116650000D02*
X83750000Y-116600000D01*
D15*
X76680000Y-114800000D02*
X76680000Y-117040000D01*
D16*
X75550000Y-118300000D02*
X75550000Y-116500001D01*
D17*
X75050000Y-115850000D02*
X75050000Y-115200000D01*
D10*
X59183682Y-118778529D02*
G75*
G02*
X61400000Y-116900000I2151318J-291471D01*
G01*
X55900000Y-115200001D02*
G75*
G02*
X57999999Y-113300000I2000000J-99999D01*
G01*
D11*
X58783682Y-118378529D02*
G75*
G02*
X61000000Y-116500000I2151318J-291471D01*
G01*
D12*
X66050000Y-113500000D02*
X64800000Y-113500000D01*
D13*
X56350000Y-118600000D02*
X58800000Y-118600000D01*
D10*
X66200000Y-113300000D02*
X57999999Y-113300000D01*
X61400000Y-116900000D02*
X66200000Y-116900000D01*
X56150000Y-118800000D02*
X59180000Y-118800000D01*
X55900000Y-115200000D02*
X55900000Y-115950000D01*
X56150000Y-114350000D02*
X56150000Y-118800000D01*
X55900000Y-115950000D02*
X56100000Y-115950000D01*
X66180000Y-115900000D02*
X66180000Y-113650000D01*
X66200000Y-116900000D02*
X66200000Y-113300000D01*
D14*
X64400000Y-115100000D02*
X57700000Y-115100000D01*
D11*
X65700000Y-113900000D02*
X65700000Y-116400000D01*
D13*
X66000000Y-116650000D02*
X64700000Y-116600000D01*
D15*
X57630000Y-114800000D02*
X57630000Y-117040000D01*
D16*
X56500000Y-118300000D02*
X56500000Y-116500001D01*
D17*
X56000000Y-115850000D02*
X56000000Y-115200000D01*
D10*
X135383682Y-99728529D02*
G75*
G02*
X137600000Y-97850000I2151318J-291471D01*
G01*
X132100000Y-96150001D02*
G75*
G02*
X134199999Y-94250000I2000000J-99999D01*
G01*
D11*
X134983682Y-99328529D02*
G75*
G02*
X137200000Y-97450000I2151318J-291471D01*
G01*
D12*
X142250000Y-94450000D02*
X141000000Y-94450000D01*
D13*
X132550000Y-99550000D02*
X135000000Y-99550000D01*
D10*
X142400000Y-94250000D02*
X134199999Y-94250000D01*
X137600000Y-97850000D02*
X142400000Y-97850000D01*
X132350000Y-99750000D02*
X135380000Y-99750000D01*
X132100000Y-96150000D02*
X132100000Y-96900000D01*
X132350000Y-95300000D02*
X132350000Y-99750000D01*
X132100000Y-96900000D02*
X132300000Y-96900000D01*
X142380000Y-96850000D02*
X142380000Y-94600000D01*
X142400000Y-97850000D02*
X142400000Y-94250000D01*
D14*
X140600000Y-96050000D02*
X133900000Y-96050000D01*
D11*
X141900000Y-94850000D02*
X141900000Y-97350000D01*
D13*
X142200000Y-97600000D02*
X140900000Y-97550000D01*
D15*
X133830000Y-95750000D02*
X133830000Y-97990000D01*
D16*
X132700000Y-99250000D02*
X132700000Y-97450001D01*
D17*
X132200000Y-96800000D02*
X132200000Y-96150000D01*
D10*
X116333682Y-99728529D02*
G75*
G02*
X118550000Y-97850000I2151318J-291471D01*
G01*
X113050000Y-96150001D02*
G75*
G02*
X115149999Y-94250000I2000000J-99999D01*
G01*
D11*
X115933682Y-99328529D02*
G75*
G02*
X118150000Y-97450000I2151318J-291471D01*
G01*
D12*
X123200000Y-94450000D02*
X121950000Y-94450000D01*
D13*
X113500000Y-99550000D02*
X115950000Y-99550000D01*
D10*
X123350000Y-94250000D02*
X115149999Y-94250000D01*
X118550000Y-97850000D02*
X123350000Y-97850000D01*
X113300000Y-99750000D02*
X116330000Y-99750000D01*
X113050000Y-96150000D02*
X113050000Y-96900000D01*
X113300000Y-95300000D02*
X113300000Y-99750000D01*
X113050000Y-96900000D02*
X113250000Y-96900000D01*
X123330000Y-96850000D02*
X123330000Y-94600000D01*
X123350000Y-97850000D02*
X123350000Y-94250000D01*
D14*
X121550000Y-96050000D02*
X114850000Y-96050000D01*
D11*
X122850000Y-94850000D02*
X122850000Y-97350000D01*
D13*
X123150000Y-97600000D02*
X121850000Y-97550000D01*
D15*
X114780000Y-95750000D02*
X114780000Y-97990000D01*
D16*
X113650000Y-99250000D02*
X113650000Y-97450001D01*
D17*
X113150000Y-96800000D02*
X113150000Y-96150000D01*
D10*
X97283682Y-99728529D02*
G75*
G02*
X99500000Y-97850000I2151318J-291471D01*
G01*
X94000000Y-96150001D02*
G75*
G02*
X96099999Y-94250000I2000000J-99999D01*
G01*
D11*
X96883682Y-99328529D02*
G75*
G02*
X99100000Y-97450000I2151318J-291471D01*
G01*
D12*
X104150000Y-94450000D02*
X102900000Y-94450000D01*
D13*
X94450000Y-99550000D02*
X96900000Y-99550000D01*
D10*
X104300000Y-94250000D02*
X96099999Y-94250000D01*
X99500000Y-97850000D02*
X104300000Y-97850000D01*
X94250000Y-99750000D02*
X97280000Y-99750000D01*
X94000000Y-96150000D02*
X94000000Y-96900000D01*
X94250000Y-95300000D02*
X94250000Y-99750000D01*
X94000000Y-96900000D02*
X94200000Y-96900000D01*
X104280000Y-96850000D02*
X104280000Y-94600000D01*
X104300000Y-97850000D02*
X104300000Y-94250000D01*
D14*
X102500000Y-96050000D02*
X95800000Y-96050000D01*
D11*
X103800000Y-94850000D02*
X103800000Y-97350000D01*
D13*
X104100000Y-97600000D02*
X102800000Y-97550000D01*
D15*
X95730000Y-95750000D02*
X95730000Y-97990000D01*
D16*
X94600000Y-99250000D02*
X94600000Y-97450001D01*
D17*
X94100000Y-96800000D02*
X94100000Y-96150000D01*
D10*
X78233682Y-99728529D02*
G75*
G02*
X80450000Y-97850000I2151318J-291471D01*
G01*
X74950000Y-96150001D02*
G75*
G02*
X77049999Y-94250000I2000000J-99999D01*
G01*
D11*
X77833682Y-99328529D02*
G75*
G02*
X80050000Y-97450000I2151318J-291471D01*
G01*
D12*
X85100000Y-94450000D02*
X83850000Y-94450000D01*
D13*
X75400000Y-99550000D02*
X77850000Y-99550000D01*
D10*
X85250000Y-94250000D02*
X77049999Y-94250000D01*
X80450000Y-97850000D02*
X85250000Y-97850000D01*
X75200000Y-99750000D02*
X78230000Y-99750000D01*
X74950000Y-96150000D02*
X74950000Y-96900000D01*
X75200000Y-95300000D02*
X75200000Y-99750000D01*
X74950000Y-96900000D02*
X75150000Y-96900000D01*
X85230000Y-96850000D02*
X85230000Y-94600000D01*
X85250000Y-97850000D02*
X85250000Y-94250000D01*
D14*
X83450000Y-96050000D02*
X76750000Y-96050000D01*
D11*
X84750000Y-94850000D02*
X84750000Y-97350000D01*
D13*
X85050000Y-97600000D02*
X83750000Y-97550000D01*
D15*
X76680000Y-95750000D02*
X76680000Y-97990000D01*
D16*
X75550000Y-99250000D02*
X75550000Y-97450001D01*
D17*
X75050000Y-96800000D02*
X75050000Y-96150000D01*
D10*
X59183682Y-99728529D02*
G75*
G02*
X61400000Y-97850000I2151318J-291471D01*
G01*
X55900000Y-96150001D02*
G75*
G02*
X57999999Y-94250000I2000000J-99999D01*
G01*
D11*
X58783682Y-99328529D02*
G75*
G02*
X61000000Y-97450000I2151318J-291471D01*
G01*
D12*
X66050000Y-94450000D02*
X64800000Y-94450000D01*
D13*
X56350000Y-99550000D02*
X58800000Y-99550000D01*
D10*
X66200000Y-94250000D02*
X57999999Y-94250000D01*
X61400000Y-97850000D02*
X66200000Y-97850000D01*
X56150000Y-99750000D02*
X59180000Y-99750000D01*
X55900000Y-96150000D02*
X55900000Y-96900000D01*
X56150000Y-95300000D02*
X56150000Y-99750000D01*
X55900000Y-96900000D02*
X56100000Y-96900000D01*
X66180000Y-96850000D02*
X66180000Y-94600000D01*
X66200000Y-97850000D02*
X66200000Y-94250000D01*
D14*
X64400000Y-96050000D02*
X57700000Y-96050000D01*
D11*
X65700000Y-94850000D02*
X65700000Y-97350000D01*
D13*
X66000000Y-97600000D02*
X64700000Y-97550000D01*
D15*
X57630000Y-95750000D02*
X57630000Y-97990000D01*
D16*
X56500000Y-99250000D02*
X56500000Y-97450001D01*
D17*
X56000000Y-96800000D02*
X56000000Y-96150000D01*
D10*
X135383682Y-80678529D02*
G75*
G02*
X137600000Y-78800000I2151318J-291471D01*
G01*
X132100000Y-77100001D02*
G75*
G02*
X134199999Y-75200000I2000000J-99999D01*
G01*
D11*
X134983682Y-80278529D02*
G75*
G02*
X137200000Y-78400000I2151318J-291471D01*
G01*
D12*
X142250000Y-75400000D02*
X141000000Y-75400000D01*
D13*
X132550000Y-80500000D02*
X135000000Y-80500000D01*
D10*
X142400000Y-75200000D02*
X134199999Y-75200000D01*
X137600000Y-78800000D02*
X142400000Y-78800000D01*
X132350000Y-80700000D02*
X135380000Y-80700000D01*
X132100000Y-77100000D02*
X132100000Y-77850000D01*
X132350000Y-76250000D02*
X132350000Y-80700000D01*
X132100000Y-77850000D02*
X132300000Y-77850000D01*
X142380000Y-77800000D02*
X142380000Y-75550000D01*
X142400000Y-78800000D02*
X142400000Y-75200000D01*
D14*
X140600000Y-77000000D02*
X133900000Y-77000000D01*
D11*
X141900000Y-75800000D02*
X141900000Y-78300000D01*
D13*
X142200000Y-78550000D02*
X140900000Y-78500000D01*
D15*
X133830000Y-76700000D02*
X133830000Y-78940000D01*
D16*
X132700000Y-80200000D02*
X132700000Y-78400001D01*
D17*
X132200000Y-77750000D02*
X132200000Y-77100000D01*
D10*
X116333682Y-80678529D02*
G75*
G02*
X118550000Y-78800000I2151318J-291471D01*
G01*
X113050000Y-77100001D02*
G75*
G02*
X115149999Y-75200000I2000000J-99999D01*
G01*
D11*
X115933682Y-80278529D02*
G75*
G02*
X118150000Y-78400000I2151318J-291471D01*
G01*
D12*
X123200000Y-75400000D02*
X121950000Y-75400000D01*
D13*
X113500000Y-80500000D02*
X115950000Y-80500000D01*
D10*
X123350000Y-75200000D02*
X115149999Y-75200000D01*
X118550000Y-78800000D02*
X123350000Y-78800000D01*
X113300000Y-80700000D02*
X116330000Y-80700000D01*
X113050000Y-77100000D02*
X113050000Y-77850000D01*
X113300000Y-76250000D02*
X113300000Y-80700000D01*
X113050000Y-77850000D02*
X113250000Y-77850000D01*
X123330000Y-77800000D02*
X123330000Y-75550000D01*
X123350000Y-78800000D02*
X123350000Y-75200000D01*
D14*
X121550000Y-77000000D02*
X114850000Y-77000000D01*
D11*
X122850000Y-75800000D02*
X122850000Y-78300000D01*
D13*
X123150000Y-78550000D02*
X121850000Y-78500000D01*
D15*
X114780000Y-76700000D02*
X114780000Y-78940000D01*
D16*
X113650000Y-80200000D02*
X113650000Y-78400001D01*
D17*
X113150000Y-77750000D02*
X113150000Y-77100000D01*
D10*
X97283682Y-80678529D02*
G75*
G02*
X99500000Y-78800000I2151318J-291471D01*
G01*
X94000000Y-77100001D02*
G75*
G02*
X96099999Y-75200000I2000000J-99999D01*
G01*
D11*
X96883682Y-80278529D02*
G75*
G02*
X99100000Y-78400000I2151318J-291471D01*
G01*
D12*
X104150000Y-75400000D02*
X102900000Y-75400000D01*
D13*
X94450000Y-80500000D02*
X96900000Y-80500000D01*
D10*
X104300000Y-75200000D02*
X96099999Y-75200000D01*
X99500000Y-78800000D02*
X104300000Y-78800000D01*
X94250000Y-80700000D02*
X97280000Y-80700000D01*
X94000000Y-77100000D02*
X94000000Y-77850000D01*
X94250000Y-76250000D02*
X94250000Y-80700000D01*
X94000000Y-77850000D02*
X94200000Y-77850000D01*
X104280000Y-77800000D02*
X104280000Y-75550000D01*
X104300000Y-78800000D02*
X104300000Y-75200000D01*
D14*
X102500000Y-77000000D02*
X95800000Y-77000000D01*
D11*
X103800000Y-75800000D02*
X103800000Y-78300000D01*
D13*
X104100000Y-78550000D02*
X102800000Y-78500000D01*
D15*
X95730000Y-76700000D02*
X95730000Y-78940000D01*
D16*
X94600000Y-80200000D02*
X94600000Y-78400001D01*
D17*
X94100000Y-77750000D02*
X94100000Y-77100000D01*
D10*
X78233682Y-80678529D02*
G75*
G02*
X80450000Y-78800000I2151318J-291471D01*
G01*
X74950000Y-77100001D02*
G75*
G02*
X77049999Y-75200000I2000000J-99999D01*
G01*
D11*
X77833682Y-80278529D02*
G75*
G02*
X80050000Y-78400000I2151318J-291471D01*
G01*
D12*
X85100000Y-75400000D02*
X83850000Y-75400000D01*
D13*
X75400000Y-80500000D02*
X77850000Y-80500000D01*
D10*
X85250000Y-75200000D02*
X77049999Y-75200000D01*
X80450000Y-78800000D02*
X85250000Y-78800000D01*
X75200000Y-80700000D02*
X78230000Y-80700000D01*
X74950000Y-77100000D02*
X74950000Y-77850000D01*
X75200000Y-76250000D02*
X75200000Y-80700000D01*
X74950000Y-77850000D02*
X75150000Y-77850000D01*
X85230000Y-77800000D02*
X85230000Y-75550000D01*
X85250000Y-78800000D02*
X85250000Y-75200000D01*
D14*
X83450000Y-77000000D02*
X76750000Y-77000000D01*
D11*
X84750000Y-75800000D02*
X84750000Y-78300000D01*
D13*
X85050000Y-78550000D02*
X83750000Y-78500000D01*
D15*
X76680000Y-76700000D02*
X76680000Y-78940000D01*
D16*
X75550000Y-80200000D02*
X75550000Y-78400001D01*
D17*
X75050000Y-77750000D02*
X75050000Y-77100000D01*
D10*
X59183682Y-80678529D02*
G75*
G02*
X61400000Y-78800000I2151318J-291471D01*
G01*
X55900000Y-77100001D02*
G75*
G02*
X57999999Y-75200000I2000000J-99999D01*
G01*
D11*
X58783682Y-80278529D02*
G75*
G02*
X61000000Y-78400000I2151318J-291471D01*
G01*
D12*
X66050000Y-75400000D02*
X64800000Y-75400000D01*
D13*
X56350000Y-80500000D02*
X58800000Y-80500000D01*
D10*
X66200000Y-75200000D02*
X57999999Y-75200000D01*
X61400000Y-78800000D02*
X66200000Y-78800000D01*
X56150000Y-80700000D02*
X59180000Y-80700000D01*
X55900000Y-77100000D02*
X55900000Y-77850000D01*
X56150000Y-76250000D02*
X56150000Y-80700000D01*
X55900000Y-77850000D02*
X56100000Y-77850000D01*
X66180000Y-77800000D02*
X66180000Y-75550000D01*
X66200000Y-78800000D02*
X66200000Y-75200000D01*
D14*
X64400000Y-77000000D02*
X57700000Y-77000000D01*
D11*
X65700000Y-75800000D02*
X65700000Y-78300000D01*
D13*
X66000000Y-78550000D02*
X64700000Y-78500000D01*
D15*
X57630000Y-76700000D02*
X57630000Y-78940000D01*
D16*
X56500000Y-80200000D02*
X56500000Y-78400001D01*
D17*
X56000000Y-77750000D02*
X56000000Y-77100000D01*
D10*
X126110000Y-62690000D02*
X126360000Y-62690000D01*
X126110000Y-56690000D02*
X126110000Y-62690000D01*
X126110000Y-56690000D02*
X126360000Y-56690000D01*
X129610000Y-56690000D02*
X129360000Y-56690000D01*
X129610000Y-62690000D02*
X129360000Y-62690000D01*
X129610000Y-56690000D02*
X129610000Y-62690000D01*
X70020000Y-83320000D02*
X69520000Y-84220000D01*
X69520000Y-84220000D02*
X70520000Y-84220000D01*
X70520000Y-84220000D02*
X70020000Y-83320000D01*
X69520000Y-83220000D02*
X70520000Y-83220000D01*
X69270000Y-86420000D02*
X69270000Y-81020000D01*
X69270000Y-81020000D02*
X70770000Y-81020000D01*
X70770000Y-81020000D02*
X70770000Y-86420000D01*
X70770000Y-86420000D02*
X69270000Y-86420000D01*
X89820000Y-86420000D02*
X88320000Y-86420000D01*
X89820000Y-81020000D02*
X89820000Y-86420000D01*
X88320000Y-81020000D02*
X89820000Y-81020000D01*
X88320000Y-86420000D02*
X88320000Y-81020000D01*
X88570000Y-83220000D02*
X89570000Y-83220000D01*
X89570000Y-84220000D02*
X89070000Y-83320000D01*
X88570000Y-84220000D02*
X89570000Y-84220000D01*
X89070000Y-83320000D02*
X88570000Y-84220000D01*
X108120000Y-83320000D02*
X107620000Y-84220000D01*
X107620000Y-84220000D02*
X108620000Y-84220000D01*
X108620000Y-84220000D02*
X108120000Y-83320000D01*
X107620000Y-83220000D02*
X108620000Y-83220000D01*
X107370000Y-86420000D02*
X107370000Y-81020000D01*
X107370000Y-81020000D02*
X108870000Y-81020000D01*
X108870000Y-81020000D02*
X108870000Y-86420000D01*
X108870000Y-86420000D02*
X107370000Y-86420000D01*
X127920000Y-86420000D02*
X126420000Y-86420000D01*
X127920000Y-81020000D02*
X127920000Y-86420000D01*
X126420000Y-81020000D02*
X127920000Y-81020000D01*
X126420000Y-86420000D02*
X126420000Y-81020000D01*
X126670000Y-83220000D02*
X127670000Y-83220000D01*
X127670000Y-84220000D02*
X127170000Y-83320000D01*
X126670000Y-84220000D02*
X127670000Y-84220000D01*
X127170000Y-83320000D02*
X126670000Y-84220000D01*
X146970000Y-86420000D02*
X145470000Y-86420000D01*
X146970000Y-81020000D02*
X146970000Y-86420000D01*
X145470000Y-81020000D02*
X146970000Y-81020000D01*
X145470000Y-86420000D02*
X145470000Y-81020000D01*
X145720000Y-83220000D02*
X146720000Y-83220000D01*
X146720000Y-84220000D02*
X146220000Y-83320000D01*
X145720000Y-84220000D02*
X146720000Y-84220000D01*
X146220000Y-83320000D02*
X145720000Y-84220000D01*
X70600000Y-105570000D02*
X69100000Y-105570000D01*
X70600000Y-100170000D02*
X70600000Y-105570000D01*
X69100000Y-100170000D02*
X70600000Y-100170000D01*
X69100000Y-105570000D02*
X69100000Y-100170000D01*
X69350000Y-102370000D02*
X70350000Y-102370000D01*
X70350000Y-103370000D02*
X69850000Y-102470000D01*
X69350000Y-103370000D02*
X70350000Y-103370000D01*
X69850000Y-102470000D02*
X69350000Y-103370000D01*
X89820000Y-105470000D02*
X88320000Y-105470000D01*
X89820000Y-100070000D02*
X89820000Y-105470000D01*
X88320000Y-100070000D02*
X89820000Y-100070000D01*
X88320000Y-105470000D02*
X88320000Y-100070000D01*
X88570000Y-102270000D02*
X89570000Y-102270000D01*
X89570000Y-103270000D02*
X89070000Y-102370000D01*
X88570000Y-103270000D02*
X89570000Y-103270000D01*
X89070000Y-102370000D02*
X88570000Y-103270000D01*
X108870000Y-105470000D02*
X107370000Y-105470000D01*
X108870000Y-100070000D02*
X108870000Y-105470000D01*
X107370000Y-100070000D02*
X108870000Y-100070000D01*
X107370000Y-105470000D02*
X107370000Y-100070000D01*
X107620000Y-102270000D02*
X108620000Y-102270000D01*
X108620000Y-103270000D02*
X108120000Y-102370000D01*
X107620000Y-103270000D02*
X108620000Y-103270000D01*
X108120000Y-102370000D02*
X107620000Y-103270000D01*
X127750000Y-105570000D02*
X126250000Y-105570000D01*
X127750000Y-100170000D02*
X127750000Y-105570000D01*
X126250000Y-100170000D02*
X127750000Y-100170000D01*
X126250000Y-105570000D02*
X126250000Y-100170000D01*
X126500000Y-102370000D02*
X127500000Y-102370000D01*
X127500000Y-103370000D02*
X127000000Y-102470000D01*
X126500000Y-103370000D02*
X127500000Y-103370000D01*
X127000000Y-102470000D02*
X126500000Y-103370000D01*
X146950000Y-105065000D02*
X145450000Y-105065000D01*
X146950000Y-99665000D02*
X146950000Y-105065000D01*
X145450000Y-99665000D02*
X146950000Y-99665000D01*
X145450000Y-105065000D02*
X145450000Y-99665000D01*
X145700000Y-101865000D02*
X146700000Y-101865000D01*
X146700000Y-102865000D02*
X146200000Y-101965000D01*
X145700000Y-102865000D02*
X146700000Y-102865000D01*
X146200000Y-101965000D02*
X145700000Y-102865000D01*
X61360000Y-124460000D02*
X60460000Y-123960000D01*
X60460000Y-123960000D02*
X60460000Y-124960000D01*
X60460000Y-124960000D02*
X61360000Y-124460000D01*
X61460000Y-123960000D02*
X61460000Y-124960000D01*
X58260000Y-123710000D02*
X63660000Y-123710000D01*
X63660000Y-123710000D02*
X63660000Y-125210000D01*
X63660000Y-125210000D02*
X58260000Y-125210000D01*
X58260000Y-125210000D02*
X58260000Y-123710000D01*
X89070000Y-121420000D02*
X88570000Y-122320000D01*
X88570000Y-122320000D02*
X89570000Y-122320000D01*
X89570000Y-122320000D02*
X89070000Y-121420000D01*
X88570000Y-121320000D02*
X89570000Y-121320000D01*
X88320000Y-124520000D02*
X88320000Y-119120000D01*
X88320000Y-119120000D02*
X89820000Y-119120000D01*
X89820000Y-119120000D02*
X89820000Y-124520000D01*
X89820000Y-124520000D02*
X88320000Y-124520000D01*
X108120000Y-121420000D02*
X107620000Y-122320000D01*
X107620000Y-122320000D02*
X108620000Y-122320000D01*
X108620000Y-122320000D02*
X108120000Y-121420000D01*
X107620000Y-121320000D02*
X108620000Y-121320000D01*
X107370000Y-124520000D02*
X107370000Y-119120000D01*
X107370000Y-119120000D02*
X108870000Y-119120000D01*
X108870000Y-119120000D02*
X108870000Y-124520000D01*
X108870000Y-124520000D02*
X107370000Y-124520000D01*
X119780000Y-124460000D02*
X118880000Y-123960000D01*
X118880000Y-123960000D02*
X118880000Y-124960000D01*
X118880000Y-124960000D02*
X119780000Y-124460000D01*
X119880000Y-123960000D02*
X119880000Y-124960000D01*
X116680000Y-123710000D02*
X122080000Y-123710000D01*
X122080000Y-123710000D02*
X122080000Y-125210000D01*
X122080000Y-125210000D02*
X116680000Y-125210000D01*
X116680000Y-125210000D02*
X116680000Y-123710000D01*
X146050000Y-121520000D02*
X145550000Y-122420000D01*
X145550000Y-122420000D02*
X146550000Y-122420000D01*
X146550000Y-122420000D02*
X146050000Y-121520000D01*
X145550000Y-121420000D02*
X146550000Y-121420000D01*
X145300000Y-124620000D02*
X145300000Y-119220000D01*
X145300000Y-119220000D02*
X146800000Y-119220000D01*
X146800000Y-119220000D02*
X146800000Y-124620000D01*
X146800000Y-124620000D02*
X145300000Y-124620000D01*
X88900000Y-140570000D02*
X88400000Y-141470000D01*
X88400000Y-141470000D02*
X89400000Y-141470000D01*
X89400000Y-141470000D02*
X88900000Y-140570000D01*
X88400000Y-140470000D02*
X89400000Y-140470000D01*
X88150000Y-143670000D02*
X88150000Y-138270000D01*
X88150000Y-138270000D02*
X89650000Y-138270000D01*
X89650000Y-138270000D02*
X89650000Y-143670000D01*
X89650000Y-143670000D02*
X88150000Y-143670000D01*
X107950000Y-140570000D02*
X107450000Y-141470000D01*
X107450000Y-141470000D02*
X108450000Y-141470000D01*
X108450000Y-141470000D02*
X107950000Y-140570000D01*
X107450000Y-140470000D02*
X108450000Y-140470000D01*
X107200000Y-143670000D02*
X107200000Y-138270000D01*
X107200000Y-138270000D02*
X108700000Y-138270000D01*
X108700000Y-138270000D02*
X108700000Y-143670000D01*
X108700000Y-143670000D02*
X107200000Y-143670000D01*
X148240000Y-143165000D02*
X146740000Y-143165000D01*
X148240000Y-137765000D02*
X148240000Y-143165000D01*
X146740000Y-137765000D02*
X148240000Y-137765000D01*
X146740000Y-143165000D02*
X146740000Y-137765000D01*
X146990000Y-139965000D02*
X147990000Y-139965000D01*
X147990000Y-140965000D02*
X147490000Y-140065000D01*
X146990000Y-140965000D02*
X147990000Y-140965000D01*
X147490000Y-140065000D02*
X146990000Y-140965000D01*
X172710000Y-83320000D02*
X172210000Y-84220000D01*
X172210000Y-84220000D02*
X173210000Y-84220000D01*
X173210000Y-84220000D02*
X172710000Y-83320000D01*
X172210000Y-83220000D02*
X173210000Y-83220000D01*
X171960000Y-86420000D02*
X171960000Y-81020000D01*
X171960000Y-81020000D02*
X173460000Y-81020000D01*
X173460000Y-81020000D02*
X173460000Y-86420000D01*
X173460000Y-86420000D02*
X171960000Y-86420000D01*
X192510000Y-86420000D02*
X191010000Y-86420000D01*
X192510000Y-81020000D02*
X192510000Y-86420000D01*
X191010000Y-81020000D02*
X192510000Y-81020000D01*
X191010000Y-86420000D02*
X191010000Y-81020000D01*
X191260000Y-83220000D02*
X192260000Y-83220000D01*
X192260000Y-84220000D02*
X191760000Y-83320000D01*
X191260000Y-84220000D02*
X192260000Y-84220000D01*
X191760000Y-83320000D02*
X191260000Y-84220000D01*
X210810000Y-83320000D02*
X210310000Y-84220000D01*
X210310000Y-84220000D02*
X211310000Y-84220000D01*
X211310000Y-84220000D02*
X210810000Y-83320000D01*
X210310000Y-83220000D02*
X211310000Y-83220000D01*
X210060000Y-86420000D02*
X210060000Y-81020000D01*
X210060000Y-81020000D02*
X211560000Y-81020000D01*
X211560000Y-81020000D02*
X211560000Y-86420000D01*
X211560000Y-86420000D02*
X210060000Y-86420000D01*
X219550000Y-88380000D02*
X219550000Y-86880000D01*
X224950000Y-88380000D02*
X219550000Y-88380000D01*
X224950000Y-86880000D02*
X224950000Y-88380000D01*
X219550000Y-86880000D02*
X224950000Y-86880000D01*
X222750000Y-87130000D02*
X222750000Y-88130000D01*
X221750000Y-88130000D02*
X222650000Y-87630000D01*
X221750000Y-87130000D02*
X221750000Y-88130000D01*
X222650000Y-87630000D02*
X221750000Y-87130000D01*
X172720000Y-102470000D02*
X172220000Y-103370000D01*
X172220000Y-103370000D02*
X173220000Y-103370000D01*
X173220000Y-103370000D02*
X172720000Y-102470000D01*
X172220000Y-102370000D02*
X173220000Y-102370000D01*
X171970000Y-105570000D02*
X171970000Y-100170000D01*
X171970000Y-100170000D02*
X173470000Y-100170000D01*
X173470000Y-100170000D02*
X173470000Y-105570000D01*
X173470000Y-105570000D02*
X171970000Y-105570000D01*
X192510000Y-105470000D02*
X191010000Y-105470000D01*
X192510000Y-100070000D02*
X192510000Y-105470000D01*
X191010000Y-100070000D02*
X192510000Y-100070000D01*
X191010000Y-105470000D02*
X191010000Y-100070000D01*
X191260000Y-102270000D02*
X192260000Y-102270000D01*
X192260000Y-103270000D02*
X191760000Y-102370000D01*
X191260000Y-103270000D02*
X192260000Y-103270000D01*
X191760000Y-102370000D02*
X191260000Y-103270000D01*
X210810000Y-102370000D02*
X210310000Y-103270000D01*
X210310000Y-103270000D02*
X211310000Y-103270000D01*
X211310000Y-103270000D02*
X210810000Y-102370000D01*
X210310000Y-102270000D02*
X211310000Y-102270000D01*
X210060000Y-105470000D02*
X210060000Y-100070000D01*
X210060000Y-100070000D02*
X211560000Y-100070000D01*
X211560000Y-100070000D02*
X211560000Y-105470000D01*
X211560000Y-105470000D02*
X210060000Y-105470000D01*
X230620000Y-105570000D02*
X229120000Y-105570000D01*
X230620000Y-100170000D02*
X230620000Y-105570000D01*
X229120000Y-100170000D02*
X230620000Y-100170000D01*
X229120000Y-105570000D02*
X229120000Y-100170000D01*
X229370000Y-102370000D02*
X230370000Y-102370000D01*
X230370000Y-103370000D02*
X229870000Y-102470000D01*
X229370000Y-103370000D02*
X230370000Y-103370000D01*
X229870000Y-102470000D02*
X229370000Y-103370000D01*
X161130000Y-126480000D02*
X161130000Y-124980000D01*
X166530000Y-126480000D02*
X161130000Y-126480000D01*
X166530000Y-124980000D02*
X166530000Y-126480000D01*
X161130000Y-124980000D02*
X166530000Y-124980000D01*
X164330000Y-125230000D02*
X164330000Y-126230000D01*
X163330000Y-126230000D02*
X164230000Y-125730000D01*
X163330000Y-125230000D02*
X163330000Y-126230000D01*
X164230000Y-125730000D02*
X163330000Y-125230000D01*
X191760000Y-121420000D02*
X191260000Y-122320000D01*
X191260000Y-122320000D02*
X192260000Y-122320000D01*
X192260000Y-122320000D02*
X191760000Y-121420000D01*
X191260000Y-121320000D02*
X192260000Y-121320000D01*
X191010000Y-124520000D02*
X191010000Y-119120000D01*
X191010000Y-119120000D02*
X192510000Y-119120000D01*
X192510000Y-119120000D02*
X192510000Y-124520000D01*
X192510000Y-124520000D02*
X191010000Y-124520000D01*
X211560000Y-124520000D02*
X210060000Y-124520000D01*
X211560000Y-119120000D02*
X211560000Y-124520000D01*
X210060000Y-119120000D02*
X211560000Y-119120000D01*
X210060000Y-124520000D02*
X210060000Y-119120000D01*
X210310000Y-121320000D02*
X211310000Y-121320000D01*
X211310000Y-122320000D02*
X210810000Y-121420000D01*
X210310000Y-122320000D02*
X211310000Y-122320000D01*
X210810000Y-121420000D02*
X210310000Y-122320000D01*
X221850000Y-125730000D02*
X222750000Y-126230000D01*
X222750000Y-126230000D02*
X222750000Y-125230000D01*
X222750000Y-125230000D02*
X221850000Y-125730000D01*
X221750000Y-126230000D02*
X221750000Y-125230000D01*
X224950000Y-126480000D02*
X219550000Y-126480000D01*
X219550000Y-126480000D02*
X219550000Y-124980000D01*
X219550000Y-124980000D02*
X224950000Y-124980000D01*
X224950000Y-124980000D02*
X224950000Y-126480000D01*
X249660000Y-86420000D02*
X248160000Y-86420000D01*
X249660000Y-81020000D02*
X249660000Y-86420000D01*
X248160000Y-81020000D02*
X249660000Y-81020000D01*
X248160000Y-86420000D02*
X248160000Y-81020000D01*
X248410000Y-83220000D02*
X249410000Y-83220000D01*
X249410000Y-84220000D02*
X248910000Y-83320000D01*
X248410000Y-84220000D02*
X249410000Y-84220000D01*
X248910000Y-83320000D02*
X248410000Y-84220000D01*
X248850000Y-102470000D02*
X248350000Y-103370000D01*
X248350000Y-103370000D02*
X249350000Y-103370000D01*
X249350000Y-103370000D02*
X248850000Y-102470000D01*
X248350000Y-102370000D02*
X249350000Y-102370000D01*
X248100000Y-105570000D02*
X248100000Y-100170000D01*
X248100000Y-100170000D02*
X249600000Y-100170000D01*
X249600000Y-100170000D02*
X249600000Y-105570000D01*
X249600000Y-105570000D02*
X248100000Y-105570000D01*
X250870000Y-124520000D02*
X249370000Y-124520000D01*
X250870000Y-119120000D02*
X250870000Y-124520000D01*
X249370000Y-119120000D02*
X250870000Y-119120000D01*
X249370000Y-124520000D02*
X249370000Y-119120000D01*
X249620000Y-121320000D02*
X250620000Y-121320000D01*
X250620000Y-122320000D02*
X250120000Y-121420000D01*
X249620000Y-122320000D02*
X250620000Y-122320000D01*
X250120000Y-121420000D02*
X249620000Y-122320000D01*
X193030000Y-132850000D02*
X192530000Y-133750000D01*
X192530000Y-133750000D02*
X193530000Y-133750000D01*
X193530000Y-133750000D02*
X193030000Y-132850000D01*
X192530000Y-132750000D02*
X193530000Y-132750000D01*
X192280000Y-135950000D02*
X192280000Y-130550000D01*
X192280000Y-130550000D02*
X193780000Y-130550000D01*
X193780000Y-130550000D02*
X193780000Y-135950000D01*
X193780000Y-135950000D02*
X192280000Y-135950000D01*
X135505238Y-67530952D02*
X135600476Y-67483333D01*
X135648095Y-67435714D01*
X135695714Y-67340476D01*
X135695714Y-67292857D01*
X135648095Y-67197619D01*
X135600476Y-67150000D01*
X135505238Y-67102380D01*
X135314761Y-67102380D01*
X135219523Y-67150000D01*
X135171904Y-67197619D01*
X135124285Y-67292857D01*
X135124285Y-67340476D01*
X135171904Y-67435714D01*
X135219523Y-67483333D01*
X135314761Y-67530952D01*
X135505238Y-67530952D01*
X135600476Y-67578571D01*
X135648095Y-67626190D01*
X135695714Y-67721428D01*
X135695714Y-67911904D01*
X135648095Y-68007142D01*
X135600476Y-68054761D01*
X135505238Y-68102380D01*
X135314761Y-68102380D01*
X135219523Y-68054761D01*
X135171904Y-68007142D01*
X135124285Y-67911904D01*
X135124285Y-67721428D01*
X135171904Y-67626190D01*
X135219523Y-67578571D01*
X135314761Y-67530952D01*
X137093333Y-64502380D02*
X136426666Y-64502380D01*
X136855238Y-65502380D01*
X137819523Y-67102380D02*
X138010000Y-67102380D01*
X138105238Y-67150000D01*
X138152857Y-67197619D01*
X138248095Y-67340476D01*
X138295714Y-67530952D01*
X138295714Y-67911904D01*
X138248095Y-68007142D01*
X138200476Y-68054761D01*
X138105238Y-68102380D01*
X137914761Y-68102380D01*
X137819523Y-68054761D01*
X137771904Y-68007142D01*
X137724285Y-67911904D01*
X137724285Y-67673809D01*
X137771904Y-67578571D01*
X137819523Y-67530952D01*
X137914761Y-67483333D01*
X138105238Y-67483333D01*
X138200476Y-67530952D01*
X138248095Y-67578571D01*
X138295714Y-67673809D01*
X138971904Y-64552380D02*
X139448095Y-64552380D01*
X139495714Y-65028571D01*
X139448095Y-64980952D01*
X139352857Y-64933333D01*
X139114761Y-64933333D01*
X139019523Y-64980952D01*
X138971904Y-65028571D01*
X138924285Y-65123809D01*
X138924285Y-65361904D01*
X138971904Y-65457142D01*
X139019523Y-65504761D01*
X139114761Y-65552380D01*
X139352857Y-65552380D01*
X139448095Y-65504761D01*
X139495714Y-65457142D01*
X140219523Y-67385714D02*
X140219523Y-68052380D01*
X140457619Y-67004761D02*
X140695714Y-67719047D01*
X140076666Y-67719047D01*
X142193333Y-64502380D02*
X141574285Y-64502380D01*
X141907619Y-64883333D01*
X141764761Y-64883333D01*
X141669523Y-64930952D01*
X141621904Y-64978571D01*
X141574285Y-65073809D01*
X141574285Y-65311904D01*
X141621904Y-65407142D01*
X141669523Y-65454761D01*
X141764761Y-65502380D01*
X142050476Y-65502380D01*
X142145714Y-65454761D01*
X142193333Y-65407142D01*
X143345714Y-67247619D02*
X143298095Y-67200000D01*
X143202857Y-67152380D01*
X142964761Y-67152380D01*
X142869523Y-67200000D01*
X142821904Y-67247619D01*
X142774285Y-67342857D01*
X142774285Y-67438095D01*
X142821904Y-67580952D01*
X143393333Y-68152380D01*
X142774285Y-68152380D01*
X144124285Y-65502380D02*
X144695714Y-65502380D01*
X144410000Y-65502380D02*
X144410000Y-64502380D01*
X144505238Y-64645238D01*
X144600476Y-64740476D01*
X144695714Y-64788095D01*
X158045238Y-67530952D02*
X158140476Y-67483333D01*
X158188095Y-67435714D01*
X158235714Y-67340476D01*
X158235714Y-67292857D01*
X158188095Y-67197619D01*
X158140476Y-67150000D01*
X158045238Y-67102380D01*
X157854761Y-67102380D01*
X157759523Y-67150000D01*
X157711904Y-67197619D01*
X157664285Y-67292857D01*
X157664285Y-67340476D01*
X157711904Y-67435714D01*
X157759523Y-67483333D01*
X157854761Y-67530952D01*
X158045238Y-67530952D01*
X158140476Y-67578571D01*
X158188095Y-67626190D01*
X158235714Y-67721428D01*
X158235714Y-67911904D01*
X158188095Y-68007142D01*
X158140476Y-68054761D01*
X158045238Y-68102380D01*
X157854761Y-68102380D01*
X157759523Y-68054761D01*
X157711904Y-68007142D01*
X157664285Y-67911904D01*
X157664285Y-67721428D01*
X157711904Y-67626190D01*
X157759523Y-67578571D01*
X157854761Y-67530952D01*
X159633333Y-64502380D02*
X158966666Y-64502380D01*
X159395238Y-65502380D01*
X160359523Y-67102380D02*
X160550000Y-67102380D01*
X160645238Y-67150000D01*
X160692857Y-67197619D01*
X160788095Y-67340476D01*
X160835714Y-67530952D01*
X160835714Y-67911904D01*
X160788095Y-68007142D01*
X160740476Y-68054761D01*
X160645238Y-68102380D01*
X160454761Y-68102380D01*
X160359523Y-68054761D01*
X160311904Y-68007142D01*
X160264285Y-67911904D01*
X160264285Y-67673809D01*
X160311904Y-67578571D01*
X160359523Y-67530952D01*
X160454761Y-67483333D01*
X160645238Y-67483333D01*
X160740476Y-67530952D01*
X160788095Y-67578571D01*
X160835714Y-67673809D01*
X161511904Y-64552380D02*
X161988095Y-64552380D01*
X162035714Y-65028571D01*
X161988095Y-64980952D01*
X161892857Y-64933333D01*
X161654761Y-64933333D01*
X161559523Y-64980952D01*
X161511904Y-65028571D01*
X161464285Y-65123809D01*
X161464285Y-65361904D01*
X161511904Y-65457142D01*
X161559523Y-65504761D01*
X161654761Y-65552380D01*
X161892857Y-65552380D01*
X161988095Y-65504761D01*
X162035714Y-65457142D01*
X162759523Y-67385714D02*
X162759523Y-68052380D01*
X162997619Y-67004761D02*
X163235714Y-67719047D01*
X162616666Y-67719047D01*
X164733333Y-64502380D02*
X164114285Y-64502380D01*
X164447619Y-64883333D01*
X164304761Y-64883333D01*
X164209523Y-64930952D01*
X164161904Y-64978571D01*
X164114285Y-65073809D01*
X164114285Y-65311904D01*
X164161904Y-65407142D01*
X164209523Y-65454761D01*
X164304761Y-65502380D01*
X164590476Y-65502380D01*
X164685714Y-65454761D01*
X164733333Y-65407142D01*
X165885714Y-67247619D02*
X165838095Y-67200000D01*
X165742857Y-67152380D01*
X165504761Y-67152380D01*
X165409523Y-67200000D01*
X165361904Y-67247619D01*
X165314285Y-67342857D01*
X165314285Y-67438095D01*
X165361904Y-67580952D01*
X165933333Y-68152380D01*
X165314285Y-68152380D01*
X166664285Y-65502380D02*
X167235714Y-65502380D01*
X166950000Y-65502380D02*
X166950000Y-64502380D01*
X167045238Y-64645238D01*
X167140476Y-64740476D01*
X167235714Y-64788095D01*
X128312380Y-58237619D02*
X127836190Y-57904285D01*
X128312380Y-57666190D02*
X127312380Y-57666190D01*
X127312380Y-58047142D01*
X127360000Y-58142380D01*
X127407619Y-58190000D01*
X127502857Y-58237619D01*
X127645714Y-58237619D01*
X127740952Y-58190000D01*
X127788571Y-58142380D01*
X127836190Y-58047142D01*
X127836190Y-57666190D01*
X127788571Y-58666190D02*
X127788571Y-58999523D01*
X128312380Y-59142380D02*
X128312380Y-58666190D01*
X127312380Y-58666190D01*
X127312380Y-59142380D01*
X128264761Y-59523333D02*
X128312380Y-59666190D01*
X128312380Y-59904285D01*
X128264761Y-59999523D01*
X128217142Y-60047142D01*
X128121904Y-60094761D01*
X128026666Y-60094761D01*
X127931428Y-60047142D01*
X127883809Y-59999523D01*
X127836190Y-59904285D01*
X127788571Y-59713809D01*
X127740952Y-59618571D01*
X127693333Y-59570952D01*
X127598095Y-59523333D01*
X127502857Y-59523333D01*
X127407619Y-59570952D01*
X127360000Y-59618571D01*
X127312380Y-59713809D01*
X127312380Y-59951904D01*
X127360000Y-60094761D01*
X127788571Y-60523333D02*
X127788571Y-60856666D01*
X128312380Y-60999523D02*
X128312380Y-60523333D01*
X127312380Y-60523333D01*
X127312380Y-60999523D01*
X127312380Y-61285238D02*
X127312380Y-61856666D01*
X128312380Y-61570952D02*
X127312380Y-61570952D01*
M02*
