M48
; DRILL file {KiCad (5.1.9)-1} date 01/26/21 21:27:29
; FORMAT={-:-/ absolute / inch / decimal}
; #@! TF.CreationDate,2021-01-26T21:27:29-05:00
; #@! TF.GenerationSoftware,Kicad,Pcbnew,(5.1.9)-1
; #@! TF.FileFunction,Plated,1,2,PTH
FMAT,2
INCH
T1C0.0118
T2C0.0320
T3C0.0354
T4C0.0512
T5C0.1575
T6C0.1693
%
G90
G05
T1
X2.25Y-2.8
X2.25Y-2.8
X2.25Y-2.8
X3.05Y-2.85
X3.05Y-2.85
X3.65Y-2.85
X3.7Y-2.8
X4.7Y-2.1
X5.3998Y-3.8002
X6.9579Y-3.3079
X7.15Y-3.65
X7.65Y-3.3
X7.9Y-4.4
X8.7Y-4.4
X9.3Y-3.65
T2
X2.25Y-4.9
X2.55Y-4.9
X2.75Y-3.9
X2.75Y-4.2
X2.7567Y-3.1461
X2.7567Y-3.4461
X3.5Y-5.4
X3.5Y-5.7
X3.5067Y-3.1461
X3.5067Y-3.4461
X3.5067Y-3.8961
X3.5067Y-4.1961
X3.5067Y-4.6461
X3.5067Y-4.9461
X3.7072Y-2.0208
X3.7072Y-2.62
X3.8072Y-2.0208
X3.8072Y-2.62
X3.9072Y-2.0208
X3.9072Y-2.62
X4.0072Y-2.0208
X4.0072Y-2.62
X4.1072Y-2.0208
X4.1072Y-2.62
X4.2072Y-2.0208
X4.2072Y-2.62
X4.25Y-5.4
X4.25Y-5.7
X4.2567Y-3.1461
X4.2567Y-3.4461
X4.2567Y-3.8961
X4.2567Y-4.1961
X4.2567Y-4.6461
X4.2567Y-4.9461
X4.3072Y-2.0208
X4.3072Y-2.62
X4.4072Y-2.0208
X4.4072Y-2.62
X4.5072Y-2.0208
X4.5072Y-2.62
X4.55Y-4.9
X4.6072Y-2.0208
X4.6072Y-2.62
X4.7072Y-2.0208
X4.7072Y-2.62
X4.8072Y-2.0208
X4.8072Y-2.62
X4.85Y-4.9
X5.0Y-3.9
X5.0Y-4.2
X5.0067Y-3.1461
X5.0067Y-3.4461
X5.75Y-4.65
X5.75Y-4.95
X5.7559Y-3.8801
X5.7559Y-4.1801
X5.7567Y-3.1461
X5.7567Y-3.4461
X5.8067Y-5.3801
X5.8067Y-5.6801
X6.3Y-4.95
X6.6Y-4.95
X6.7996Y-3.1461
X6.7996Y-3.4461
X6.8Y-3.9
X6.8Y-4.2
X7.5496Y-3.1461
X7.5496Y-3.4461
X7.5496Y-3.8961
X7.5496Y-4.1961
X7.5496Y-4.6461
X7.5496Y-4.9461
X7.5996Y-5.0961
X7.5996Y-5.3961
X8.2996Y-3.1461
X8.2996Y-3.4461
X8.2996Y-3.8961
X8.2996Y-4.1961
X8.2996Y-4.6461
X8.2996Y-4.9461
X8.6Y-3.45
X8.6Y-4.95
X8.9Y-3.45
X8.9Y-4.95
X9.05Y-3.9
X9.05Y-4.2
X9.7972Y-3.9
X9.7972Y-4.2
X9.7996Y-3.1461
X9.7996Y-3.4461
X9.8472Y-4.6461
X9.8472Y-4.9461
T3
X5.3343Y-2.7244
X5.3843Y-2.6244
X5.4343Y-2.7244
X5.4843Y-2.6244
X5.5343Y-2.7244
X5.5843Y-2.6244
X5.6343Y-2.7244
X5.6843Y-2.6244
X6.2217Y-2.7244
X6.2717Y-2.6244
X6.3217Y-2.7244
X6.3717Y-2.6244
X6.4217Y-2.7244
X6.4717Y-2.6244
X6.5217Y-2.7244
X6.5717Y-2.6244
T4
X5.0339Y-2.222
X5.0339Y-2.478
T5
X2.8079Y-3.5961
X2.8079Y-5.0173
X5.0567Y-3.5961
X5.0618Y-5.0173
X6.8476Y-3.5961
X6.8476Y-5.0173
X8.3386Y-2.1287
X9.0976Y-5.0173
T6
X9.0976Y-3.5961
T0
M30
