M48
; DRILL file {KiCad (5.1.9)-1} date 01/26/21 21:27:29
; FORMAT={-:-/ absolute / inch / decimal}
; #@! TF.CreationDate,2021-01-26T21:27:29-05:00
; #@! TF.GenerationSoftware,Kicad,Pcbnew,(5.1.9)-1
; #@! TF.FileFunction,NonPlated,1,2,NPTH
FMAT,2
INCH
T1C0.0236
T2C0.0748
T3C0.0866
T4C0.1181
T5C0.1280
T6C0.1614
%
G90
G05
T1
X5.9146Y-3.1238
X5.9146Y-3.1563
X5.9146Y-3.1888
X5.9146Y-3.2213
X5.9146Y-3.2537
X5.9146Y-3.2862
X5.9146Y-3.3187
X5.9146Y-3.3512
X5.9146Y-4.623
X5.9146Y-4.6555
X5.9146Y-4.688
X5.9146Y-4.7205
X5.9146Y-4.753
X5.9146Y-4.7854
X5.9146Y-4.8179
X5.9146Y-4.8504
X5.915Y-3.0913
X5.915Y-4.5906
X5.9898Y-3.1238
X5.9898Y-3.1563
X5.9898Y-3.1888
X5.9898Y-3.2213
X5.9898Y-3.2537
X5.9898Y-3.2862
X5.9898Y-3.3187
X5.9898Y-3.3512
X5.9898Y-4.623
X5.9898Y-4.6555
X5.9898Y-4.688
X5.9898Y-4.7205
X5.9898Y-4.753
X5.9898Y-4.7854
X5.9898Y-4.8179
X5.9898Y-4.8504
X5.9902Y-3.0913
X5.9902Y-4.5906
T2
X2.2331Y-3.2205
X2.2331Y-3.9705
X2.2331Y-4.7205
X2.6331Y-3.2205
X2.6331Y-3.9705
X2.6331Y-4.7205
X2.9831Y-3.2205
X2.9831Y-3.9705
X2.9831Y-4.7205
X3.3831Y-3.2205
X3.3831Y-3.9705
X3.3831Y-4.7205
X3.7331Y-3.2205
X3.7331Y-3.9705
X3.7331Y-4.7205
X3.7331Y-5.4705
X4.1331Y-3.2205
X4.1331Y-3.9705
X4.1331Y-4.7205
X4.1331Y-5.4705
X4.4831Y-3.2205
X4.4831Y-3.9705
X4.4831Y-4.7205
X4.4831Y-5.4705
X4.8581Y-5.4705
X4.8831Y-3.2205
X4.8831Y-3.9705
X4.8831Y-4.7205
X4.8831Y-5.4705
X5.2331Y-3.2205
X5.2331Y-3.9705
X5.2331Y-4.7205
X5.2331Y-5.4705
X5.2581Y-5.4705
X5.6331Y-3.2205
X5.6331Y-3.9705
X5.6331Y-4.7205
X5.6331Y-5.4705
X6.2728Y-3.2205
X6.2728Y-3.9705
X6.2728Y-4.7205
X6.6478Y-5.4705
X6.6728Y-3.2205
X6.6728Y-3.9705
X6.6728Y-4.7205
X7.0228Y-3.2205
X7.0228Y-3.9705
X7.0228Y-4.7205
X7.0478Y-5.4705
X7.4228Y-3.2205
X7.4228Y-3.9705
X7.4228Y-4.7205
X7.7728Y-3.2205
X7.7728Y-3.9705
X7.7728Y-4.7205
X8.1728Y-3.2205
X8.1728Y-3.9705
X8.1728Y-4.7205
X8.5228Y-3.2205
X8.5228Y-3.9705
X8.5228Y-4.7205
X8.9228Y-3.2205
X8.9228Y-3.9705
X8.9228Y-4.7205
X9.2728Y-3.2205
X9.2728Y-3.9705
X9.2728Y-4.7205
X9.6728Y-3.2205
X9.6728Y-3.9705
X9.6728Y-4.7205
T3
X3.4551Y-2.6846
X5.0335Y-2.0638
X5.0335Y-2.6366
T4
X2.2831Y-3.1205
X2.2831Y-3.8705
X2.2831Y-4.6205
X2.5331Y-3.0205
X2.5331Y-3.7705
X2.5331Y-4.5205
X3.0331Y-3.1205
X3.0331Y-3.8705
X3.0331Y-4.6205
X3.2831Y-3.0205
X3.2831Y-3.7705
X3.2831Y-4.5205
X3.7831Y-3.1205
X3.7831Y-3.8705
X3.7831Y-4.6205
X3.7831Y-5.3705
X4.0331Y-3.0205
X4.0331Y-3.7705
X4.0331Y-4.5205
X4.0331Y-5.2705
X4.5331Y-3.1205
X4.5331Y-3.8705
X4.5331Y-4.6205
X4.5331Y-5.3705
X4.7831Y-3.0205
X4.7831Y-3.7705
X4.7831Y-4.5205
X4.7831Y-5.2705
X4.9581Y-5.6705
X5.2081Y-5.5705
X5.2831Y-3.1205
X5.2831Y-3.8705
X5.2831Y-4.6205
X5.2831Y-5.3705
X5.5331Y-3.0205
X5.5331Y-3.7705
X5.5331Y-4.5205
X5.5331Y-5.2705
X6.3228Y-3.1205
X6.3228Y-3.8705
X6.3228Y-4.6205
X6.5728Y-3.0205
X6.5728Y-3.7705
X6.5728Y-4.5205
X6.7478Y-5.6705
X6.9978Y-5.5705
X7.0728Y-3.1205
X7.0728Y-3.8705
X7.0728Y-4.6205
X7.3228Y-3.0205
X7.3228Y-3.7705
X7.3228Y-4.5205
X7.8228Y-3.1205
X7.8228Y-3.8705
X7.8228Y-4.6205
X8.0728Y-3.0205
X8.0728Y-3.7705
X8.0728Y-4.5205
X8.5728Y-3.1205
X8.5728Y-3.8705
X8.5728Y-4.6205
X8.8228Y-3.0205
X8.8228Y-3.7705
X8.8228Y-4.5205
X9.3228Y-3.1205
X9.3228Y-3.8705
X9.3228Y-4.6205
X9.5728Y-3.0205
X9.5728Y-3.7705
X9.5728Y-4.5205
T5
X5.2843Y-2.3744
X5.7343Y-2.3744
X6.1717Y-2.3744
X6.6217Y-2.3744
T6
X2.4331Y-3.2205
X2.4331Y-3.9705
X2.4331Y-4.7205
X3.1831Y-3.2205
X3.1831Y-3.9705
X3.1831Y-4.7205
X3.9331Y-3.2205
X3.9331Y-3.9705
X3.9331Y-4.7205
X3.9331Y-5.4705
X4.6831Y-3.2205
X4.6831Y-3.9705
X4.6831Y-4.7205
X4.6831Y-5.4705
X5.0581Y-5.4705
X5.4331Y-3.2205
X5.4331Y-3.9705
X5.4331Y-4.7205
X5.4331Y-5.4705
X6.4728Y-3.2205
X6.4728Y-3.9705
X6.4728Y-4.7205
X6.8478Y-5.4705
X7.2228Y-3.2205
X7.2228Y-3.9705
X7.2228Y-4.7205
X7.9728Y-3.2205
X7.9728Y-3.9705
X7.9728Y-4.7205
X8.7228Y-3.2205
X8.7228Y-3.9705
X8.7228Y-4.7205
X9.4728Y-3.2205
X9.4728Y-3.9705
X9.4728Y-4.7205
T0
M30
